<svg width="38" height="38" viewBox="0 0 38 38" fill="none" xmlns="http://www.w3.org/2000/svg">
<path d="M0 8C0 3.58172 3.58172 0 8 0H30C34.4183 0 38 3.58172 38 8V38H0V8Z" fill="url(#paint0_linear_236_433)"/>
<g clip-path="url(#clip0_236_433)">
<path d="M19.7909 23.7906L16.4244 20.2607L14.9625 20.2654L19.2237 24.6918H19.7909H20.3581L24.6192 20.2654L23.1574 20.2607L19.7909 23.7906Z" fill="#E52421"/>
<path d="M6.92453 21.6475C6.92453 21.5261 6.94759 21.4234 6.99832 21.3486C7.04904 21.2739 7.13666 21.2319 7.25657 21.2319L14.008 21.2132V20.2374L6.86458 20.256C6.74468 20.256 6.62939 20.2794 6.52332 20.3214C6.41725 20.3634 6.32041 20.4288 6.2374 20.5129C6.15439 20.5969 6.08522 20.6996 6.03449 20.821C5.98376 20.9424 5.95609 21.0825 5.9607 21.2366L5.96993 23.7486C5.96993 23.9074 5.9976 24.0475 6.04832 24.1689C6.09905 24.2903 6.16823 24.3883 6.25123 24.4724C6.33424 24.5564 6.43109 24.6171 6.54177 24.6592C6.64783 24.7012 6.76312 24.7245 6.88764 24.7245L14.0172 24.7058V23.73L7.25657 23.7486C7.16433 23.7486 7.09055 23.7113 7.0306 23.6319C6.97065 23.5572 6.93837 23.4545 6.93837 23.3331V22.9782H14.0172V21.9883H6.92453V21.6475Z" fill="#E52421"/>
<path d="M32.6896 20.186H26.5008C25.9889 20.186 25.5739 20.6109 25.5739 21.1338V23.7253C25.5739 24.2482 25.9889 24.6731 26.5008 24.6731H32.6896C33.2015 24.6731 33.6165 24.2482 33.6165 23.7253V21.1338C33.6211 20.6062 33.2015 20.186 32.6896 20.186ZM32.6619 23.5385C32.6619 23.6226 32.5927 23.6926 32.5097 23.6926H26.6806C26.5976 23.6926 26.5285 23.6226 26.5285 23.5385V21.3019C26.5285 21.2272 26.5884 21.1619 26.6668 21.1619H32.5097C32.5927 21.1619 32.6619 21.2319 32.6619 21.3159V23.5385Z" fill="#E52421"/>
<path d="M5.96066 19.7424L7.50555 18.1642V14.7603L3 19.3549V21.0591L5.96066 18.0428V19.7424Z" fill="white"/>
<path d="M10.849 13.056L7.99902 15.965V17.6646L10.849 14.7603V13.056Z" fill="white"/>
<path d="M12.5092 14.7603L9.54853 17.7767V16.6981L7.99902 18.2763V19.3549H9.66843L12.5092 16.4646V14.7603Z" fill="white"/>
<path d="M17.2084 16.4319H17.2037C16.6503 16.4319 16.263 16.8241 16.263 17.3611C16.263 17.3657 16.263 17.3657 16.263 17.3704C16.263 17.6272 16.3783 17.8607 16.595 18.0755C16.7656 18.2436 16.8486 18.3369 16.8486 18.5004C16.8486 18.505 16.8486 18.505 16.8486 18.505C16.844 18.6918 16.7195 18.8085 16.5212 18.8132C16.5166 18.8132 16.512 18.8132 16.5028 18.8132C16.3644 18.8132 16.2307 18.7712 16.1523 18.7245L16.1016 18.6918V19.3128C16.1984 19.3408 16.3321 19.3688 16.5074 19.3688H16.5166C17.0516 19.3688 17.462 19 17.462 18.4023C17.462 18.3976 17.462 18.393 17.462 18.393C17.462 18.1548 17.3513 17.9027 17.1253 17.6926C16.9132 17.4965 16.8717 17.4124 16.8717 17.3004C16.8809 17.1089 16.9962 16.9922 17.1899 16.9922C17.3098 16.9922 17.3882 17.0202 17.462 17.0622L17.5127 17.0903L17.628 16.5159C17.5358 16.4646 17.4066 16.4319 17.2084 16.4319Z" fill="white"/>
<path d="M30.8772 19.3642C31.4122 19.3642 31.818 18.9953 31.8226 18.3976C31.8226 18.393 31.8226 18.3883 31.8226 18.3883C31.8226 18.1502 31.7119 17.898 31.486 17.6879C31.2738 17.4918 31.2323 17.4078 31.2323 17.2957C31.2415 17.1043 31.3568 16.9875 31.5505 16.9875C31.6704 16.9875 31.7488 17.0155 31.8226 17.0576L31.8733 17.0856L31.9886 16.5113C31.9102 16.4692 31.7765 16.4319 31.5828 16.4319H31.5782C31.0248 16.4319 30.6374 16.8241 30.6374 17.3611C30.6374 17.3657 30.6374 17.3657 30.6374 17.3704C30.6374 17.6272 30.7527 17.8607 30.9695 18.0755C31.1401 18.2436 31.2231 18.3369 31.2231 18.5004C31.2231 18.505 31.2231 18.505 31.2231 18.505C31.2185 18.6918 31.094 18.8085 30.8911 18.8132C30.8865 18.8132 30.8818 18.8132 30.8726 18.8132C30.7343 18.8132 30.6005 18.7712 30.5221 18.7245L30.4668 18.6918V19.3128C30.5636 19.3408 30.6974 19.3688 30.8772 19.3642Z" fill="white"/>
<path d="M26.6852 17.0576L26.8005 16.4786C26.7314 16.4506 26.6161 16.4272 26.4916 16.4272V16.4553V16.4319C26.201 16.4319 25.892 16.5393 25.643 16.7961C25.311 17.1323 25.0988 17.6786 25.0942 18.365C25.0942 18.3697 25.0942 18.3743 25.0942 18.379C25.0942 18.5471 25.1173 18.7899 25.2372 18.9953C25.3525 19.2008 25.5692 19.3642 25.9243 19.3642H25.9289C26.0627 19.3642 26.1734 19.3549 26.261 19.3269L26.3763 18.7292L26.3071 18.7572C26.2471 18.7806 26.1411 18.7992 26.0488 18.7992C26.0488 18.7992 26.0488 18.7992 26.0442 18.7992C25.9243 18.7992 25.8552 18.7525 25.8044 18.6638C25.7537 18.5751 25.7306 18.435 25.7306 18.2669C25.7306 18.2623 25.7306 18.2576 25.7306 18.2529C25.7353 17.814 25.869 17.4451 26.0488 17.2164C26.1503 17.0809 26.2979 17.0016 26.4224 17.0016C26.5285 17.0016 26.593 17.0156 26.6391 17.0389L26.6852 17.0576Z" fill="white"/>
<path d="M21.0775 16.4553H19.5234L19.4127 17.0062H19.8877L19.4312 19.3409H20.0353L20.4918 17.0062H20.9668L21.0775 16.4553Z" fill="white"/>
<path d="M22.7838 16.4553H21.2297L21.119 17.0062H21.594L21.1375 19.3409H21.7416L22.1981 17.0062H22.6731L22.7838 16.4553Z" fill="white"/>
<path d="M24.4809 17.3517H24.504V17.3331C24.504 17.0903 24.4671 16.8941 24.3841 16.7401C24.2688 16.5159 24.0566 16.3945 23.7799 16.3945C23.5309 16.3945 23.3096 16.4879 23.1205 16.67C22.71 17.0762 22.521 17.8373 22.5164 18.407V18.421C22.5164 18.5797 22.5394 18.8179 22.6409 19.0187C22.7608 19.2568 22.9775 19.3875 23.2588 19.3875C23.5079 19.3875 23.7292 19.2895 23.9137 19.1027C24.3103 18.7011 24.4947 17.9307 24.4994 17.3471L24.4809 17.3517ZM23.8399 17.3144C23.8399 17.5852 23.7108 18.491 23.4571 18.7338C23.4248 18.7712 23.3833 18.7899 23.3511 18.7945H23.3418C23.2681 18.7945 23.2404 18.7618 23.2173 18.7011C23.1943 18.6498 23.185 18.5751 23.185 18.477V18.463C23.185 18.0521 23.3464 17.2864 23.5724 17.0622C23.6185 17.0155 23.66 16.9969 23.7062 16.9969C23.7661 16.9969 23.7892 17.0202 23.8122 17.0762C23.8307 17.1229 23.8445 17.2023 23.8445 17.3004L23.8399 17.3144Z" fill="white"/>
<path d="M28.6221 17.3564V17.3378C28.6221 17.095 28.5852 16.8988 28.5022 16.7448C28.3869 16.5206 28.1748 16.3992 27.8981 16.3992C27.6491 16.3992 27.4277 16.4926 27.2386 16.6747C26.8282 17.0809 26.6391 17.842 26.6345 18.4117V18.4257C26.6345 18.5891 26.6576 18.8226 26.759 19.0234C26.8789 19.2615 27.0957 19.3922 27.377 19.3922C27.626 19.3922 27.8428 19.2942 28.0318 19.1074C28.4284 18.7058 28.6129 17.9401 28.6221 17.3564ZM27.9534 17.3144C27.9534 17.6272 27.8105 18.5097 27.5707 18.7339C27.5338 18.7712 27.4923 18.7946 27.4554 18.7946C27.3816 18.7946 27.3539 18.7619 27.3309 18.7012C27.3032 18.6358 27.2986 18.5424 27.2986 18.4771V18.463C27.2986 18.0521 27.46 17.2864 27.6814 17.0623C27.7275 17.0202 27.769 16.9969 27.8151 16.9969H27.8243C27.8797 17.0016 27.8981 17.0249 27.9212 17.0763C27.9396 17.123 27.9534 17.2023 27.9534 17.3004V17.3144Z" fill="white"/>
<path d="M30.1348 19.3409C30.1348 19.3409 30.1394 18.8413 30.1348 18.5331C30.1302 18.2716 30.084 18.0942 29.9641 17.9961C30.2547 17.856 30.4714 17.5339 30.476 17.1416C30.476 17.137 30.476 17.137 30.476 17.137C30.476 16.9455 30.4068 16.7728 30.2869 16.6514C30.1302 16.4926 29.8903 16.4459 29.6505 16.4459C29.4661 16.4459 29.2724 16.4693 29.0972 16.4973L29.0649 16.502L29.0603 16.5346L28.5115 19.3455H29.1064L29.3185 18.2296H29.3646C29.4384 18.2342 29.4707 18.2483 29.503 18.2996C29.5353 18.351 29.5537 18.4537 29.5491 18.6125V19.3502H30.1348V19.3409ZM29.4845 17.7253H29.4246L29.5721 16.9549C29.5998 16.9502 29.6321 16.9502 29.6644 16.9502C29.8166 16.9502 29.8581 17.0623 29.8627 17.2023C29.8627 17.207 29.8627 17.207 29.8627 17.207C29.8627 17.4778 29.7013 17.7253 29.4845 17.7253Z" fill="white"/>
<path d="M33.0308 19.3409H33.6211V16.4553H32.9478L31.7765 19.3409H32.376L32.6204 18.6965H33.0447L33.0308 19.3409ZM32.7818 18.2156L32.9801 17.6599C33.0124 17.5759 33.0539 17.4451 33.0954 17.3097C33.0908 17.4358 33.0816 17.5572 33.0816 17.6459L33.0677 18.2156H32.7818Z" fill="white"/>
<path d="M17.5173 19.3409H18.8086L18.9239 18.7806H18.2321L18.3705 18.1082H18.97L18.9792 18.0662L19.0807 17.5712H18.4673L18.5872 17.0062H19.2144L19.3297 16.4553H18.0846L17.5173 19.3409Z" fill="white"/>
<path d="M15.6911 16.4319H15.6865C15.1331 16.4319 14.7457 16.8241 14.7457 17.3611C14.7457 17.3657 14.7457 17.3657 14.7457 17.3704C14.7457 17.6272 14.861 17.8607 15.0778 18.0755C15.2484 18.2436 15.3314 18.3369 15.3314 18.5004C15.3314 18.505 15.3314 18.505 15.3314 18.505C15.3268 18.6918 15.2023 18.8085 15.004 18.8132C14.9994 18.8132 14.9948 18.8132 14.9855 18.8132C14.8472 18.8132 14.7134 18.7712 14.6351 18.7245L14.5797 18.6918V19.3128C14.6766 19.3408 14.8103 19.3688 14.9855 19.3688H14.9948C15.5297 19.3688 15.9401 19 15.9401 18.4023C15.9401 18.3976 15.9401 18.393 15.9401 18.393C15.9401 18.1548 15.8295 17.9027 15.6035 17.6926C15.3914 17.4965 15.3499 17.4124 15.3499 17.3004C15.3591 17.1089 15.4744 16.9922 15.6681 16.9922C15.788 16.9922 15.8664 17.0202 15.9401 17.0622L15.9909 17.0903L16.1062 16.5159C16.0185 16.4646 15.8894 16.4319 15.6911 16.4319Z" fill="white"/>
<path d="M14.2984 16.4366L13.6251 16.4459L12.4999 19.3549L13.0994 19.3455L13.3346 18.6965L13.7588 18.6872L13.7542 19.3315L14.3445 19.3222L14.2984 16.4366ZM13.7865 17.6459L13.7681 18.2156H13.4822L13.6805 17.6599C13.7127 17.5759 13.7542 17.4451 13.7957 17.3097C13.7957 17.4358 13.7865 17.5572 13.7865 17.6459Z" fill="white"/>
<path d="M34.608 15.3627C34.4005 15.3627 34.2345 15.5261 34.2345 15.7269C34.2345 15.9277 34.4005 16.0957 34.608 16.0957C34.8156 16.0957 34.977 15.9323 34.977 15.7269C34.977 15.5214 34.8156 15.3627 34.608 15.3627ZM34.6127 16.021C34.4512 16.021 34.3313 15.8903 34.3313 15.7269C34.3313 15.5634 34.4512 15.4327 34.6127 15.4327C34.7741 15.4327 34.8893 15.5634 34.8893 15.7269C34.8893 15.8903 34.7694 16.021 34.6127 16.021Z" fill="white"/>
<path d="M34.6911 15.7408C34.7372 15.7222 34.7648 15.6895 34.7648 15.6521C34.7648 15.6148 34.751 15.5868 34.728 15.5728C34.7003 15.5587 34.6726 15.5447 34.6034 15.5447C34.5435 15.5447 34.4974 15.5494 34.4651 15.5541V15.9183H34.5481V15.7735H34.5896C34.6357 15.7735 34.6588 15.7922 34.6634 15.8296C34.6726 15.8716 34.6818 15.9043 34.6911 15.9183H34.7833C34.7741 15.9043 34.7695 15.8809 34.7556 15.8249C34.7464 15.7829 34.728 15.7549 34.6911 15.7408ZM34.5896 15.7128H34.5527V15.6101C34.5619 15.6101 34.5758 15.6054 34.5988 15.6054C34.6542 15.6054 34.6772 15.6288 34.6772 15.6615C34.6772 15.6988 34.6403 15.7128 34.5896 15.7128Z" fill="white"/>
</g>
<defs>
<linearGradient id="paint0_linear_236_433" x1="19" y1="0" x2="19" y2="38" gradientUnits="userSpaceOnUse">
<stop stop-color="white" stop-opacity="0.1"/>
<stop offset="1" stop-color="white" stop-opacity="0"/>
</linearGradient>
<clipPath id="clip0_236_433">
<rect width="32" height="12" fill="white" transform="translate(3 13)"/>
</clipPath>
</defs>
</svg>
