<svg width="38" height="38" viewBox="0 0 38 38" fill="none" xmlns="http://www.w3.org/2000/svg">
<path d="M0 8C0 3.58172 3.58172 0 8 0H30C34.4183 0 38 3.58172 38 8V38H0V8Z" fill="url(#paint0_linear_236_432)"/>
<g clip-path="url(#clip0_236_432)">
<path d="M6.292 5.95316L6.47343 6.62881C6.47834 6.73599 6.49773 6.84198 6.53103 6.94379L6.4861 7.03044C6.27184 7.11358 6.12266 7.30211 5.98557 7.47424C5.69758 7.84953 5.64804 7.95433 5.75517 8.2096C5.7743 8.252 5.79122 8.29538 5.80586 8.33958C5.83764 8.43918 5.85699 8.54245 5.86346 8.64696C5.88477 8.84778 5.90896 9.07553 6.21366 9.21136C6.25759 9.23022 6.30479 9.23997 6.35248 9.24005C6.40135 9.23908 6.44954 9.22823 6.49424 9.20812C6.53894 9.18802 6.57925 9.15906 6.61282 9.12295C6.62204 9.14696 6.63068 9.17096 6.64047 9.19555C6.67618 9.2904 6.7142 9.39052 6.75912 9.51464L6.77871 9.55386L6.79599 9.57611C6.91118 9.72951 7.09147 9.96194 7.32993 9.96194C7.36105 9.96197 7.39203 9.95784 7.42209 9.94965C7.5298 9.9555 7.573 10.0041 7.61792 10.1715C7.55687 10.4672 7.61504 10.5673 7.75674 10.7149C7.78266 10.7418 7.81434 10.7734 7.84602 10.8138C7.87078 10.856 7.8944 10.904 7.91744 10.9508C7.97504 11.0638 8.02284 11.1628 8.09542 11.2225C8.10464 11.2324 8.11731 11.2441 8.13055 11.257C8.16612 11.2877 8.19996 11.3203 8.23193 11.3548C8.33906 11.4877 8.43064 11.6247 8.52741 11.7699C8.62418 11.9151 8.72094 12.0626 8.83499 12.202L8.84824 12.219L8.86552 12.2319C9.26871 12.5427 9.47607 12.7588 9.59933 12.9994L9.60682 13.0129L9.61603 13.0258C9.82281 13.3004 9.98236 13.531 10.1229 13.7348C10.4161 14.1593 10.6298 14.4684 10.9932 14.7576C11.0453 14.8285 11.1031 14.8949 11.166 14.9561C11.2639 15.058 11.3486 15.1452 11.3613 15.2547C11.412 15.7506 12.0525 16.3595 12.5622 16.8489L12.75 17.0293C13.4181 17.707 14.1555 18.3104 14.9497 18.829C15.4018 20.0937 16.3707 23.1944 16.1374 25.9561C16.0642 26.2436 16.0055 26.5152 15.949 26.7787C15.9174 26.9262 15.8851 27.0714 15.8505 27.226L16.0233 27.2664H23.5774L23.7502 27.2342C23.7197 27.0662 23.6857 26.8975 23.6512 26.7295L23.6419 26.6844C23.6312 26.6251 23.617 26.5664 23.5993 26.5088C23.5794 26.4504 23.5672 26.3895 23.563 26.3279C23.5698 26.3065 23.5787 26.2859 23.5895 26.2664C23.6231 26.2067 23.6448 26.1408 23.6535 26.0726C23.7595 24.4918 24.0895 23.2834 24.4385 22.0035C24.6113 21.3759 24.7876 20.7266 24.9368 20.0275C24.9541 19.9432 24.9719 19.8607 24.9892 19.7822C25.0327 19.6161 25.062 19.4464 25.0767 19.2752C25.1516 19.226 25.2255 19.178 25.2985 19.1311C25.7236 18.8583 26.125 18.6007 26.428 18.058C27.2724 17.4251 27.7211 16.8536 27.8334 16.2687C27.9175 16.2095 28.0089 16.1619 28.1053 16.127C28.3507 16.0234 28.6813 15.8835 28.7176 15.4485C28.9624 15.1926 29.1288 14.9549 29.1928 14.6194C29.2774 14.51 29.3656 14.3981 29.4589 14.2869C29.7687 13.9081 30.0625 13.548 30.1334 13.2459C30.574 12.9163 30.9772 12.5972 30.862 12.1499C30.9867 12.0662 31.0867 11.9496 31.151 11.8124C31.2154 11.6753 31.2417 11.523 31.2272 11.3718C31.3189 11.3003 31.4194 11.2413 31.5261 11.1961C31.7029 11.1107 31.8861 11.0205 31.9869 10.8448C32.0163 10.8068 32.0923 10.7178 32.1677 10.6294C32.2933 10.4836 32.2904 10.2992 32.3624 10.1212V9.24297C32.2432 8.91745 32.2357 8.61944 32.0007 8.4356C31.9616 8.40253 31.9166 8.37731 31.8682 8.36124C31.9072 8.1755 31.9559 7.99199 32.014 7.81148C32.0422 7.7178 32.0716 7.62471 32.0946 7.53454C32.2852 7.22131 32.3083 6.96429 32.162 6.76991L32.1533 6.75878L32.1436 6.74941C32.0707 6.67132 31.9706 6.62547 31.8648 6.62178C31.6165 6.62178 31.4489 6.88583 31.2513 7.23888C31.2076 7.33431 31.15 7.45609 31.0924 7.58138C31.0186 7.7459 30.9426 7.91569 30.877 8.0404C30.7304 8.23707 30.6029 8.44765 30.4962 8.6692C30.2509 8.94731 29.994 9.38817 29.9669 9.75117C29.9369 9.7945 29.9133 9.83372 29.892 9.86827C29.8755 9.89733 29.8573 9.9253 29.8373 9.95199C29.8229 9.95108 29.8085 9.95108 29.7941 9.95199C29.7392 9.95267 29.6852 9.96623 29.6364 9.99163C29.5875 10.017 29.5451 10.0535 29.5124 10.0984L29.4854 10.1323L29.4761 10.1751C29.4648 10.2188 29.4475 10.2608 29.4249 10.2998L29.4065 10.3361C29.0413 10.3361 28.8656 10.7699 28.7907 10.9936L28.7711 11.0018C28.6559 11.0545 28.5246 11.113 28.4664 11.216C28.4216 11.2588 28.3818 11.3068 28.3478 11.3589C28.3307 11.3852 28.3115 11.4098 28.2902 11.4327C28.0817 11.4819 27.982 11.6505 27.9077 11.7763C27.8834 11.82 27.856 11.8619 27.8259 11.9016C27.6785 11.9748 27.5702 12.127 27.4775 12.2933C27.2523 12.3519 27.0806 12.596 26.9988 12.7652C26.7149 12.9467 26.5674 13.1071 26.4505 13.3689C26.3014 13.3938 26.1594 13.4513 26.0343 13.5374C25.9092 13.6235 25.804 13.7362 25.7259 13.8677C25.4713 14.0381 25.1706 14.3167 25.0249 14.6288C24.768 14.8185 24.5946 15.0703 24.3504 15.4655C24.2203 15.422 24.0842 15.4 23.9472 15.4005C23.77 15.4017 23.5944 15.4352 23.4288 15.4994C23.2491 15.4573 23.0758 15.4215 22.9104 15.3899C22.8977 15.3754 22.891 15.3565 22.8916 15.3371C22.8923 15.3177 22.9003 15.2993 22.9139 15.2857L22.9433 15.24V14.8033C23.0302 14.4877 23.1161 14.1721 23.2048 13.846C23.4225 13.2963 23.4726 12.7453 23.3655 12.0632C23.4063 11.5285 23.3183 10.9918 23.1092 10.4994L23.0902 10.4543L23.0516 10.4256C22.4099 9.94789 21.5661 9.63817 20.8979 9.63466C20.6943 9.60758 20.4893 9.5935 20.2839 9.59251C19.7542 9.58414 19.2315 9.71632 18.7674 9.976C18.6049 10.0714 18.4483 10.1803 18.2968 10.2857C18.1453 10.3911 18.0019 10.49 17.8619 10.5732C17.5808 10.7166 17.3671 11.1323 17.1408 11.5726C17.0446 11.7605 16.9449 11.9543 16.8476 12.1083L16.8407 12.1183L16.8355 12.13C16.6587 12.5164 16.6241 12.774 16.7249 12.9333C16.755 12.9799 16.7966 13.0179 16.8454 13.0434C16.8943 13.069 16.9488 13.0812 17.0037 13.079C17.0662 13.0781 17.128 13.0666 17.1868 13.0451C17.1788 13.1493 17.1517 13.3027 17.1333 13.4063C17.1183 13.4906 17.1033 13.5755 17.0918 13.6546C16.9132 13.8144 16.7537 14.0931 16.8614 14.5574L16.8672 14.5761C16.9438 14.7922 17.0048 14.9959 16.9703 15.2646L16.8885 15.3039C16.7364 15.2207 16.5964 15.1499 16.4438 15.0779L16.4283 15.0708L16.4121 15.0667C16.3181 15.0419 16.2213 15.0289 16.1241 15.0281C16.028 15.028 15.9323 15.0422 15.8402 15.0703C15.7631 14.9879 15.6701 14.9226 15.567 14.8786C15.4639 14.8346 15.353 14.8127 15.2411 14.8144C15.2083 14.8144 15.1766 14.8144 15.1444 14.8185L14.804 14.5386C14.7516 13.9748 14.4353 13.6083 13.9434 13.5433C13.8466 13.4769 13.7458 13.4166 13.6416 13.363C13.569 13.3238 13.4994 13.2863 13.4308 13.2424V12.9022L13.4222 12.8753C13.334 12.5937 13.1785 12.2845 12.6958 12.1253L12.6607 12.1142L12.6244 12.1177H12.5985C12.4914 12.1177 12.4355 12.0357 12.3157 11.8185C12.2788 11.7523 12.2402 11.6827 12.1959 11.6142L12.1821 11.5913L12.1619 11.5744C12.0467 11.4789 11.9396 11.377 11.8296 11.2758C11.7011 11.1587 11.5692 11.0351 11.4344 10.9245C11.3573 10.8272 11.2665 10.7419 11.1649 10.6715C11.0898 10.6171 11.0234 10.5514 10.9679 10.4766L10.9431 10.4391L10.9039 10.418C10.8399 10.3805 10.7803 10.3355 10.7265 10.284C10.6548 10.2171 10.5762 10.1582 10.4921 10.1083C10.4743 10.0831 10.4483 10.0386 10.4282 10.0041C10.3683 9.89179 10.2933 9.78853 10.2053 9.69731C10.1149 9.61815 9.99852 9.57636 9.87926 9.58021C9.86486 9.55855 9.85103 9.53981 9.83836 9.52166C9.80208 9.47123 9.76881 9.41864 9.73872 9.36417L9.72144 9.33314L9.69321 9.31148C9.51293 9.1692 9.32919 9.03396 9.16561 8.91393C9.07057 8.79157 8.97207 8.67272 8.87185 8.55269L8.7221 8.37178L8.70539 8.35948C8.64434 8.31265 8.58559 8.26639 8.52684 8.21956C8.48018 8.18267 8.4341 8.14578 8.38629 8.1089C8.25337 7.86622 8.10663 7.63162 7.94681 7.40632C7.81761 7.22431 7.69913 7.03467 7.592 6.83841L7.58567 6.82553L7.57703 6.8144C7.53479 6.75154 7.50739 6.67961 7.49697 6.60422C7.47769 6.49135 7.43658 6.38349 7.37601 6.28689L7.18305 5.91628C7.11278 5.77752 7.02984 5.65808 6.95842 5.51874L6.72802 5.5H6.56905C6.40086 5.53864 6.31043 5.62881 6.31043 5.76288L6.292 5.95316ZM17.1782 12.6522C17.2358 12.5749 17.3763 12.4696 17.4455 12.4643C17.6297 12.4442 17.8148 12.4337 18.0001 12.4327C18.5185 12.4327 19.246 12.517 20.2874 13.1774C20.6422 13.3806 20.963 13.5498 21.2908 13.5545C21.1865 13.6444 21.063 13.7086 20.9302 13.7418C20.2551 13.7799 19.7039 13.8004 19.2448 13.8004C17.8959 13.8004 17.567 13.6311 17.4875 13.5556C17.5191 13.409 17.5422 13.2606 17.5566 13.1112C17.567 13.024 17.5768 12.9391 17.5906 12.8589L17.6263 12.6487H17.4167C17.3659 12.6466 17.3151 12.654 17.2669 12.6704L17.2421 12.6792V12.6598C17.2201 12.6587 17.1982 12.6561 17.1765 12.6522H17.1782Z" fill="white"/>
<path d="M17.1753 15.4532C17.4265 16.6493 19.6181 16.1481 21.8702 15.5246C20.925 15.9748 19.9499 16.4555 18.6833 16.4251C17.5572 16.404 16.934 16.1083 17.1753 15.4532ZM32.3647 5.5H6.72803C6.74819 5.5 6.75855 5.51054 6.77871 5.52049C6.86281 5.68033 6.94345 5.83899 7.02409 5.99824L7.22223 6.37822C7.35298 6.57201 7.29307 6.726 7.43361 6.91979C7.62484 7.29801 8.01709 7.76815 8.24806 8.22775C8.36845 8.32026 8.47846 8.41159 8.59999 8.50351C8.7509 8.68735 8.90124 8.86124 9.04178 9.04508C9.22321 9.17799 9.40407 9.31089 9.58551 9.45492C9.66557 9.59836 9.6961 9.61827 9.78653 9.76171C9.86659 9.76171 9.98698 9.74122 10.0878 9.83255C10.2082 9.94496 10.309 10.1797 10.3758 10.2523C10.5572 10.3437 10.6476 10.4865 10.8181 10.579C10.9391 10.7629 11.1902 10.8648 11.3118 11.0474C11.5623 11.2523 11.8036 11.4977 12.0554 11.7114C12.2466 12.0082 12.3261 12.3249 12.648 12.2968C13.0512 12.4297 13.1808 12.6751 13.2615 12.9315V13.3413C13.4729 13.4947 13.6843 13.5662 13.8847 13.7196C14.3645 13.7605 14.6162 14.1177 14.6404 14.6311L15.0972 15.0059C15.3276 14.9766 15.566 14.9889 15.7953 15.2822C15.979 15.2001 16.1852 15.1861 16.3782 15.2424C16.551 15.3249 16.7134 15.4075 16.8919 15.507L17.1379 15.3899C17.2087 15.0263 17.1298 14.7676 17.0417 14.5182C16.9611 14.1809 17.0319 13.9256 17.2629 13.7523C17.3026 13.4139 17.4437 12.9139 17.3205 12.8425C17.3497 12.8334 17.3804 12.8296 17.4109 12.8314C17.3712 13.0656 17.3608 13.3431 17.2905 13.5884C17.4518 14.0375 19.1504 14.0275 20.9498 13.9256C21.3219 13.8331 21.6439 13.548 21.4929 13.3536C21.141 13.4555 20.7586 13.2506 20.3669 13.0263C19.1101 12.2289 18.2357 12.2067 17.4213 12.291C17.1799 12.3109 16.6575 12.822 17.2306 12.8425H17.2203C16.9288 12.9854 16.6771 12.9139 16.9991 12.209C17.3107 11.7178 17.6027 10.911 17.9443 10.7371C18.2559 10.5533 18.5473 10.3179 18.8589 10.1347C19.4418 9.81792 20.0357 9.70492 20.8899 9.81792C21.5736 9.81792 22.3875 10.1546 22.9508 10.5738C23.1714 11.0948 23.2215 11.565 23.1921 12.0761C23.282 12.6382 23.282 13.1885 23.0406 13.7927C22.9508 14.1306 22.8603 14.4567 22.7693 14.784V15.1938C22.6887 15.3167 22.6991 15.4391 22.82 15.5621C23.0308 15.603 23.2319 15.6434 23.4427 15.6944C23.7848 15.5515 24.1166 15.5515 24.4178 15.6944C24.6995 15.2348 24.8786 14.9485 25.1626 14.7576C25.283 14.4608 25.5842 14.1721 25.8538 14.0018C26.0047 13.695 26.3174 13.5621 26.568 13.541C26.6786 13.2547 26.7984 13.1019 27.1307 12.897C27.2108 12.7026 27.402 12.4573 27.5835 12.4678C27.6733 12.2922 27.7845 12.1101 27.925 12.058C28.0753 11.9052 28.1162 11.6393 28.3576 11.6083C28.4676 11.5381 28.4981 11.4151 28.6081 11.3331C28.6185 11.2512 28.8385 11.1797 28.9307 11.1288C29.0712 10.6786 29.2619 10.4432 29.5234 10.5433C29.5234 10.4403 29.6144 10.3589 29.6443 10.216C29.6691 10.1794 29.7062 10.1532 29.7486 10.1424C29.7911 10.1316 29.8359 10.137 29.8747 10.1575C29.9957 10.0867 30.0153 9.98185 30.1362 9.82084C30.1362 9.48361 30.4081 9.03454 30.6391 8.77869C30.7469 8.55108 30.8774 8.33529 31.0284 8.13466C31.1488 7.90984 31.2997 7.54215 31.4103 7.31499C31.6517 6.88525 31.8135 6.67096 32.0238 6.87529C32.124 7.008 32.0936 7.20316 31.9328 7.46077C31.8429 7.79801 31.7024 8.17564 31.6718 8.50293C32.0543 8.55445 32.2248 8.70726 32.204 9.0445C32.2363 9.07728 32.268 9.11241 32.2962 9.14696C32.3064 9.15836 32.316 9.17028 32.325 9.18267C32.3395 9.20141 32.353 9.22096 32.3653 9.24122L32.3647 5.5ZM32.325 10.1692C32.325 10.1692 32.1902 10.3326 32.1211 10.4098C32.0226 10.5269 31.9235 10.637 31.8429 10.7424C31.7018 11.0082 31.2594 11.0386 31.0365 11.3144C31.1171 11.6112 30.9461 11.928 30.6443 12.0708C30.8453 12.4807 30.4934 12.7553 29.9715 13.1434C29.9404 13.4912 29.4082 14.0427 29.0257 14.5433C28.9756 14.8607 28.8247 15.0855 28.5431 15.3712C28.5431 15.9567 27.9302 15.8923 27.6693 16.1786C27.5783 16.7816 27.0754 17.3536 26.2921 17.935C25.9396 18.589 25.4281 18.8132 24.8942 19.1815C24.9241 19.3244 24.8366 19.6411 24.7634 19.9889C24.3211 22.0632 23.6374 23.6581 23.4772 26.0591C23.4669 26.1511 23.3862 26.2318 23.3862 26.3244C23.3862 26.4573 23.4438 26.5802 23.4669 26.7131C23.5043 26.8975 23.5429 27.0826 23.5757 27.267H32.3653V10.1189L32.325 10.1692Z" fill="#1A428A"/>
<path d="M15.0942 18.7131C14.2913 18.1939 13.5463 17.5872 12.8726 16.904C12.4003 16.4438 11.5859 15.7295 11.5358 15.2389C11.5052 14.9725 11.2541 14.8396 11.1228 14.6352C10.5998 14.2254 10.4097 13.7875 9.75594 12.9186C9.61483 12.6429 9.38386 12.4087 8.97433 12.0913C8.75372 11.815 8.59302 11.5187 8.37127 11.2436C8.32378 11.1896 8.2736 11.1383 8.22093 11.0896C8.14721 11.0386 8.07751 10.8443 7.99515 10.7108C7.81486 10.4865 7.72443 10.5164 7.80449 10.1698C7.75438 9.96546 7.68353 9.77049 7.4013 9.77049C7.22044 9.84309 7.03958 9.59485 6.92956 9.45375C6.8184 9.14754 6.74813 8.98536 6.64791 8.68794C6.58743 8.92213 6.45725 9.1171 6.28561 9.04508C5.96421 8.90222 6.10475 8.64696 5.974 8.27869C5.87378 7.97248 5.77355 8.0445 6.12491 7.58372C6.33572 7.31792 6.48663 7.15457 6.74813 7.16511C6.74813 6.95023 6.64791 6.81733 6.64791 6.60246L6.4682 5.92916C6.4682 5.72482 6.47856 5.55094 6.569 5.5H5V27.2687H16.0216C16.1195 26.839 16.1944 26.4368 16.3096 25.9889C16.5106 23.6587 15.8666 20.8589 15.0931 18.7131" fill="#E1251B"/>
<path d="M6.83856 31.8993H5.28799L6.41751 29.3946H7.96923L6.83856 31.8993ZM8.37587 28.493H6.82473L6.55517 29.0949H8.10458L8.37587 28.493ZM23.4795 29.3946H21.9278L20.7977 31.8993H22.3488L23.4795 29.3946ZM23.8861 28.493H22.3373L22.0637 29.0949H23.6148L23.8861 28.493ZM8.97433 31.8993H7.41916L8.95647 28.493H12.0582C12.4867 28.493 12.6722 28.8519 12.4723 29.2945L12.0657 30.1961C11.8658 30.6388 11.3566 30.9977 10.9281 30.9977H11.0248L11.2967 31.8993H9.74731L9.47544 30.9977H9.37752L8.97433 31.8993ZM9.51691 30.6967H10.2893L11.1481 28.7933H10.3728L9.51691 30.6967ZM25.4764 29.695H26.254L25.257 31.8993H26.8081L27.5788 30.1961C27.7787 29.7535 27.5932 29.3946 27.1652 29.3946H24.0606L22.9306 31.8993H24.4817L25.4764 29.695ZM16.5255 30.1961L15.7572 31.8993H12.6555C12.2269 31.8993 12.0415 31.5404 12.2413 31.0978L12.3767 30.7974C12.4694 30.6018 12.6049 30.4303 12.773 30.2963C12.9982 30.113 13.2689 29.9953 13.5143 29.9953H15.0648L15.2008 29.695H13.262L13.3974 29.3946H16.112C16.5399 29.3946 16.7254 29.7535 16.5255 30.1961ZM14.9295 30.2963H14.1542L13.5661 31.5984H14.342L14.9295 30.2963ZM17.1142 31.8993H19.4406C19.8692 31.8993 20.3783 31.5404 20.5782 31.0978L20.6231 30.9977H19.072L18.8013 31.5984H18.0254L18.8842 29.695H19.6601L19.3882 30.2963H20.9394L20.9849 30.1961C21.1847 29.7535 20.9993 29.3946 20.5707 29.3946H18.2443C17.9995 29.3946 17.7259 29.5117 17.5036 29.695C17.3355 29.829 17.1999 30.0005 17.1073 30.1961L16.7007 31.0978C16.5008 31.5404 16.6863 31.8993 17.1142 31.8993ZM32.3975 29.3946L31.3579 31.6991C31.265 31.8944 31.1295 32.0657 30.9616 32.1997C30.7364 32.3823 30.4656 32.5 30.2209 32.5H5L5.13593 32.1979H29.5804L29.7163 31.8975H28.1651C27.9203 31.8975 27.755 31.7805 27.6957 31.5966C27.6514 31.4596 27.6658 31.2851 27.7533 31.096L28.16 30.1944C28.2526 29.9987 28.3882 29.8273 28.5562 29.6932C28.7809 29.5105 29.0516 29.3929 29.2964 29.3929H32.3992L32.3975 29.3946ZM30.7104 29.695H29.9352L29.0764 31.5984H29.8522L30.7104 29.695ZM32.5622 29.332C32.5679 29.3508 32.5761 29.3687 32.5864 29.3853C32.5962 29.4019 32.6082 29.4171 32.6222 29.4303C32.6361 29.4436 32.6516 29.4552 32.6682 29.4649C32.6851 29.4744 32.7031 29.4816 32.7218 29.4865C32.7406 29.4914 32.76 29.4938 32.7794 29.4936C32.7989 29.4927 32.8183 29.4894 32.837 29.4836C32.8555 29.4783 32.8732 29.4702 32.8894 29.4596C32.9058 29.4497 32.9207 29.4375 32.9338 29.4233C32.947 29.4095 32.9585 29.3939 32.9677 29.3771C32.9771 29.3599 32.9845 29.3416 32.9896 29.3226C32.9942 29.3034 32.9963 29.2838 32.996 29.2641C32.9957 29.2442 32.9926 29.2245 32.9868 29.2055C32.9762 29.168 32.9564 29.134 32.9292 29.1066C32.9153 29.0931 32.8998 29.0815 32.8831 29.072C32.8661 29.0627 32.8482 29.0554 32.8295 29.0504C32.8107 29.0456 32.7913 29.0432 32.7719 29.0433C32.7524 29.0438 32.733 29.047 32.7143 29.0527C32.6773 29.0631 32.6438 29.0833 32.617 29.1112C32.6039 29.1252 32.5925 29.1408 32.583 29.1575C32.5738 29.1749 32.5666 29.1934 32.5617 29.2125C32.5509 29.252 32.5509 29.2937 32.5617 29.3331M32.5985 29.2201C32.6025 29.2043 32.6083 29.1889 32.6158 29.1745C32.6232 29.1601 32.6325 29.1469 32.6435 29.1353C32.6648 29.1111 32.6923 29.0935 32.7229 29.0843C32.7389 29.0795 32.7553 29.0767 32.7719 29.0761C32.7886 29.076 32.8052 29.078 32.8214 29.082C32.8522 29.0901 32.8803 29.1065 32.9027 29.1294C32.9143 29.1406 32.9244 29.1534 32.9326 29.1675C32.9408 29.1818 32.9472 29.1972 32.9516 29.2131C32.9562 29.2297 32.9587 29.2468 32.9591 29.2641C32.96 29.2897 32.9557 29.3152 32.9464 29.339C32.9381 29.3618 32.9253 29.3827 32.909 29.4005C32.8923 29.4176 32.8728 29.4317 32.8514 29.442C32.8286 29.4519 32.8041 29.457 32.7794 29.457C32.7547 29.457 32.7302 29.4519 32.7074 29.442C32.6634 29.4233 32.6282 29.3881 32.6089 29.3437C32.599 29.3202 32.5937 29.2949 32.5934 29.2693C32.5933 29.2518 32.595 29.2344 32.5985 29.2172M32.7592 29.3027C32.763 29.3016 32.767 29.3016 32.7708 29.3027C32.7733 29.3043 32.7757 29.3063 32.7777 29.3086L32.8226 29.3888C32.8246 29.392 32.8274 29.3946 32.8308 29.3963C32.8341 29.3981 32.8379 29.3989 32.8416 29.3987H32.9044L32.8468 29.3056C32.8442 29.3008 32.8411 29.2963 32.8376 29.2922C32.8346 29.2879 32.8306 29.2845 32.8261 29.2822C32.8434 29.2772 32.8584 29.2662 32.8687 29.2512C32.8777 29.2369 32.8821 29.2201 32.8813 29.2032C32.8816 29.1919 32.8793 29.1808 32.8746 29.1706C32.8699 29.1605 32.863 29.1516 32.8543 29.1446C32.829 29.1298 32.7998 29.1234 32.7708 29.1265H32.674L32.6792 29.4022H32.7443V29.3027H32.7592ZM32.7402 29.1774H32.7725C32.7801 29.1764 32.7879 29.1764 32.7955 29.1774C32.8006 29.1783 32.8053 29.1805 32.8093 29.1838C32.8128 29.1869 32.8153 29.191 32.8163 29.1956C32.8169 29.2012 32.8169 29.2069 32.8163 29.2125C32.8169 29.2184 32.8169 29.2243 32.8163 29.2301C32.8149 29.235 32.8123 29.2394 32.8088 29.243C32.8044 29.2471 32.799 29.2499 32.7932 29.2512C32.7848 29.2523 32.7763 29.2523 32.7679 29.2512H32.7408L32.7402 29.1774Z" fill="white"/>
</g>
<defs>
<linearGradient id="paint0_linear_236_432" x1="19" y1="0" x2="19" y2="38" gradientUnits="userSpaceOnUse">
<stop stop-color="white" stop-opacity="0.1"/>
<stop offset="1" stop-color="white" stop-opacity="0"/>
</linearGradient>
<clipPath id="clip0_236_432">
<rect width="28" height="27" fill="white" transform="translate(5 5.5)"/>
</clipPath>
</defs>
</svg>
