<svg width="38" height="38" viewBox="0 0 38 38" fill="none" xmlns="http://www.w3.org/2000/svg">
<path d="M0 8C0 3.58172 3.58172 0 8 0H30C34.4183 0 38 3.58172 38 8V30C38 34.4183 34.4183 38 30 38H8C3.58172 38 0 34.4183 0 30V8Z" fill="white" fill-opacity="0.1"/>
<path d="M12.6522 18.5227L19 8.138L25.3477 18.5227H12.6522ZM24.8932 29.862C23.5129 29.862 22.3382 29.3789 21.369 28.4128C20.3998 27.4466 19.9152 26.2734 19.9152 24.8932C19.9152 23.5129 20.3992 22.3382 21.3672 21.369C22.3354 20.3998 23.511 19.9152 24.894 19.9152C26.277 19.9152 27.4507 20.3993 28.4152 21.3673C29.3797 22.3354 29.862 23.511 29.862 24.894C29.862 26.277 29.3789 27.4508 28.4127 28.4153C27.4466 29.3798 26.2734 29.862 24.8932 29.862ZM8.91199 29.362V20.4152H17.8727V29.362H8.91199ZM24.8957 27.212C25.5392 27.212 26.0862 26.9868 26.5365 26.5365C26.9868 26.0862 27.212 25.5392 27.212 24.8958C27.212 24.2523 26.9868 23.7029 26.5365 23.2478C26.0862 22.7928 25.5392 22.5652 24.8957 22.5652C24.2522 22.5652 23.7029 22.7928 23.2477 23.2478C22.7927 23.7029 22.5652 24.2523 22.5652 24.8958C22.5652 25.5392 22.7927 26.0862 23.2477 26.5365C23.7029 26.9868 24.2522 27.212 24.8957 27.212ZM11.562 26.712H15.2227V23.0652H11.562V26.712ZM17.375 15.8727H20.625L19 13.2175L17.375 15.8727Z" fill="white"/>
</svg>
