<svg width="24" height="24" viewBox="0 0 24 24" fill="none" xmlns="http://www.w3.org/2000/svg">
<path d="M5.92075 16.888C6.77075 16.2568 7.71133 15.7631 8.7425 15.407C9.77367 15.0508 10.8595 14.8727 12 14.8727C13.1405 14.8727 14.2334 15.0579 15.2788 15.4282C16.3241 15.7986 17.2576 16.2899 18.0793 16.9022C18.6344 16.2094 19.0651 15.4556 19.3713 14.6407C19.6774 13.8259 19.8305 12.9456 19.8305 12C19.8305 9.8398 19.0654 7.99472 17.5353 6.46472C16.0053 4.93455 14.1602 4.16947 12 4.16947C9.83983 4.16947 7.99475 4.93455 6.46475 6.46472C4.93458 7.99472 4.1695 9.8398 4.1695 12C4.1695 12.9361 4.32025 13.8116 4.62175 14.6265C4.92325 15.4415 5.35625 16.1953 5.92075 16.888ZM12 13.1272C10.979 13.1272 10.1216 12.7826 9.42775 12.0935C8.73392 11.4043 8.387 10.5492 8.387 9.52822C8.387 8.50722 8.73392 7.6498 9.42775 6.95597C10.1216 6.26214 10.979 5.91522 12 5.91522C13.021 5.91522 13.8784 6.26214 14.5723 6.95597C15.2661 7.6498 15.613 8.50722 15.613 9.52822C15.613 10.5492 15.2661 11.4043 14.5723 12.0935C13.8784 12.7826 13.021 13.1272 12 13.1272ZM12 22.4805C10.5507 22.4805 9.18942 22.2062 7.91625 21.6577C6.64308 21.1091 5.53292 20.3612 4.58575 19.4142C3.63875 18.4671 2.89092 17.3569 2.34225 16.0837C1.79375 14.8106 1.5195 13.4493 1.5195 12C1.5195 10.5506 1.79375 9.18939 2.34225 7.91622C2.89092 6.64305 3.63875 5.53289 4.58575 4.58572C5.53292 3.63872 6.64308 2.89089 7.91625 2.34222C9.18942 1.79372 10.5507 1.51947 12 1.51947C13.4493 1.51947 14.8106 1.79372 16.0837 2.34222C17.3569 2.89089 18.4671 3.63872 19.4143 4.58572C20.3613 5.53289 21.1091 6.64305 21.6578 7.91622C22.2063 9.18939 22.4805 10.5506 22.4805 12C22.4805 13.4493 22.2063 14.8106 21.6578 16.0837C21.1091 17.3569 20.3613 18.4671 19.4143 19.4142C18.4671 20.3612 17.3569 21.1091 16.0837 21.6577C14.8106 22.2062 13.4493 22.4805 12 22.4805Z" fill="currentColor"/>
</svg>
