<svg width="24" height="24" viewBox="0 0 24 24" fill="none" xmlns="http://www.w3.org/2000/svg">
<path d="M5.92072 16.888C6.77072 16.2568 7.7113 15.7631 8.74247 15.407C9.77364 15.0508 10.8605 14.8727 12.003 14.8727C13.1456 14.8727 14.2386 15.0579 15.2817 15.4282C16.3251 15.7986 17.2576 16.2899 18.0792 16.9022C18.6344 16.2094 19.0651 15.4556 19.3712 14.6407C19.6774 13.8259 19.8305 12.9456 19.8305 12C19.8305 9.8398 19.0654 7.99472 17.5352 6.46472C16.0052 4.93455 14.1601 4.16947 12 4.16947C9.8398 4.16947 7.99472 4.93455 6.46472 6.46472C4.93455 7.99472 4.16947 9.8398 4.16947 12C4.16947 12.9361 4.32022 13.8116 4.62172 14.6265C4.92322 15.4415 5.35622 16.1953 5.92072 16.888ZM12 13.1272C10.979 13.1272 10.1216 12.7826 9.42772 12.0935C8.73389 11.4043 8.38697 10.5492 8.38697 9.52822C8.38697 8.50722 8.73389 7.6498 9.42772 6.95597C10.1216 6.26214 10.979 5.91522 12 5.91522C13.021 5.91522 13.8784 6.26214 14.5722 6.95597C15.2661 7.6498 15.613 8.50722 15.613 9.52822C15.613 10.5492 15.2661 11.4043 14.5722 12.0935C13.8784 12.7826 13.021 13.1272 12 13.1272ZM11.9987 22.4805C10.5502 22.4805 9.18939 22.2062 7.91622 21.6577C6.64305 21.1091 5.53289 20.3612 4.58572 19.4142C3.63872 18.4671 2.89089 17.3565 2.34222 16.0825C1.79372 14.8085 1.51947 13.4472 1.51947 11.9987C1.51947 10.5502 1.79372 9.18939 2.34222 7.91622C2.89089 6.64305 3.63872 5.53289 4.58572 4.58572C5.53289 3.63872 6.64347 2.89089 7.91747 2.34222C9.19147 1.79372 10.5527 1.51947 12.0012 1.51947C13.4497 1.51947 14.8106 1.79372 16.0837 2.34222C17.3569 2.89089 18.4671 3.63872 19.4142 4.58572C20.3612 5.53289 21.1091 6.64347 21.6577 7.91747C22.2062 9.19147 22.4805 10.5527 22.4805 12.0012C22.4805 13.4497 22.2062 14.8106 21.6577 16.0837C21.1091 17.3569 20.3612 18.4671 19.4142 19.4142C18.4671 20.3612 17.3565 21.1091 16.0825 21.6577C14.8085 22.2062 13.4472 22.4805 11.9987 22.4805ZM12 19.8305C12.8361 19.8305 13.6176 19.7131 14.3445 19.4782C15.0713 19.2434 15.7597 18.9031 16.4097 18.4575C15.7409 18.0025 15.0548 17.66 14.3515 17.43C13.6483 17.1998 12.8645 17.0847 12 17.0847C11.1355 17.0847 10.354 17.1998 9.65547 17.43C8.9568 17.66 8.27305 18.0025 7.60422 18.4575C8.25422 18.9031 8.9403 19.2434 9.66247 19.4782C10.3846 19.7131 11.1638 19.8305 12 19.8305ZM12 10.9152C12.3956 10.9152 12.7257 10.783 12.9902 10.5185C13.2547 10.254 13.387 9.92389 13.387 9.52822C13.387 9.13255 13.2547 8.80014 12.9902 8.53097C12.7257 8.2618 12.3956 8.12722 12 8.12722C11.6043 8.12722 11.2742 8.2618 11.0097 8.53097C10.7452 8.80014 10.613 9.13255 10.613 9.52822C10.613 9.92389 10.7452 10.254 11.0097 10.5185C11.2742 10.783 11.6043 10.9152 12 10.9152Z" fill="currentColor"/>
</svg>
