<svg width="24" height="24" viewBox="0 0 24 24" fill="none" xmlns="http://www.w3.org/2000/svg">
<path d="M18.8628 13.2927V10.7073H24V13.2927H18.8628ZM20.6724 21L16.5597 18.0183L18.182 15.9499L22.2793 18.9167L20.6724 21ZM18.182 8.0501L16.5597 5.98169L20.6724 3L22.2793 5.08334L18.182 8.0501ZM3.31431 19.9787V15.7123H2.67796C1.9142 15.6521 1.27693 15.3502 0.766157 14.8068C0.255386 14.2635 0 13.6232 0 12.8858V11.1142C0 10.337 0.286688 9.6716 0.860063 9.11804C1.43344 8.56447 2.12263 8.28769 2.92764 8.28769H7.00341L13.1984 4.69617V19.3038L7.00341 15.7123H6.33557V19.9787H3.31431ZM10.2708 14.3119V9.68814L7.75134 11.1142H2.92764V12.8858H7.75134L10.2708 14.3119ZM14.3032 16.0856V7.91438C14.9565 8.38119 15.4766 8.97156 15.8637 9.68547C16.2507 10.3992 16.4442 11.1707 16.4442 12C16.4442 12.8293 16.2507 13.6008 15.8637 14.3145C15.4766 15.0284 14.9565 15.6188 14.3032 16.0856Z" fill="currentColor"/>
</svg>
