<svg width="24" height="24" viewBox="0 0 24 24" fill="none" xmlns="http://www.w3.org/2000/svg">
<path d="M6.09351 19.4663V4.51953H12.7773C13.9831 4.51953 15.0561 4.89295 15.9963 5.63978C16.9364 6.38645 17.4065 7.37028 17.4065 8.59128C17.4065 9.32828 17.2384 9.96128 16.9023 10.4903C16.5659 11.0193 16.1605 11.4073 15.686 11.6543V11.6968C16.2817 11.9461 16.8007 12.3679 17.243 12.962C17.6853 13.5562 17.9065 14.2968 17.9065 15.1838C17.9065 16.5729 17.379 17.6339 16.324 18.3668C15.2688 19.0998 14.1438 19.4663 12.949 19.4663H6.09351ZM9.59901 16.412H12.5523C13.1638 16.412 13.6041 16.2384 13.8733 15.8913C14.1426 15.5443 14.2773 15.2037 14.2773 14.8695C14.2773 14.5355 14.1426 14.1926 13.8733 13.8408C13.6041 13.4889 13.1528 13.313 12.5195 13.313H9.59901V16.412ZM9.59901 10.3445H12.3055C12.7802 10.3445 13.1589 10.2052 13.4418 9.92653C13.7248 9.64803 13.8663 9.31961 13.8663 8.94128C13.8663 8.54128 13.7175 8.2092 13.42 7.94503C13.1227 7.68103 12.7584 7.54903 12.3273 7.54903H9.59901V10.3445Z" fill="currentColor"/>
</svg>
