<svg width="24" height="24" viewBox="0 0 24 24" fill="none" xmlns="http://www.w3.org/2000/svg">
<path d="M5.16953 21.4805C4.44086 21.4805 3.81703 21.221 3.29803 20.702C2.77903 20.183 2.51953 19.5591 2.51953 18.8305V5.16947C2.51953 4.4408 2.77903 3.81697 3.29803 3.29797C3.81703 2.77897 4.44086 2.51947 5.16953 2.51947H8.90328C9.18595 1.90064 9.60495 1.41264 10.1603 1.05547C10.7158 0.698135 11.329 0.51947 12 0.51947C12.671 0.51947 13.2843 0.698135 13.8398 1.05547C14.3951 1.41264 14.8141 1.90064 15.0968 2.51947H18.8305C19.5592 2.51947 20.183 2.77897 20.702 3.29797C21.221 3.81697 21.4805 4.4408 21.4805 5.16947V18.8305C21.4805 19.5591 21.221 20.183 20.702 20.702C20.183 21.221 19.5592 21.4805 18.8305 21.4805H5.16953ZM5.16953 18.8305H18.8305V5.16947H5.16953V18.8305ZM7.16953 16.8305H13.9575V14.8305H7.16953V16.8305ZM7.16953 13H16.8305V11H7.16953V13ZM7.16953 9.16947H16.8305V7.16947H7.16953V9.16947ZM12 4.36297C12.2494 4.36297 12.4555 4.28147 12.6185 4.11847C12.7815 3.95547 12.863 3.7493 12.863 3.49997C12.863 3.25064 12.7815 3.04447 12.6185 2.88147C12.4555 2.71847 12.2494 2.63697 12 2.63697C11.7507 2.63697 11.5445 2.71847 11.3815 2.88147C11.2185 3.04447 11.137 3.25064 11.137 3.49997C11.137 3.7493 11.2185 3.95547 11.3815 4.11847C11.5445 4.28147 11.7507 4.36297 12 4.36297Z" fill="currentColor"/>
</svg>
