<svg width="24" height="24" viewBox="0 0 24 24" fill="none" xmlns="http://www.w3.org/2000/svg">
<path d="M9.28803 15.599L16.5848 10.901L9.28803 6.20322V15.599ZM7.74578 21.4805V19.4805H4.16953C3.4312 19.4805 2.80495 19.2234 2.29078 18.7092C1.77661 18.1951 1.51953 17.5688 1.51953 16.8305V5.16947C1.51953 4.43114 1.77661 3.80489 2.29078 3.29072C2.80495 2.77655 3.4312 2.51947 4.16953 2.51947H19.8305C20.5689 2.51947 21.1951 2.77655 21.7093 3.29072C22.2234 3.80489 22.4805 4.43114 22.4805 5.16947V16.8305C22.4805 17.5688 22.2234 18.1951 21.7093 18.7092C21.1951 19.2234 20.5689 19.4805 19.8305 19.4805H16.2543V21.4805H7.74578ZM4.16953 16.8305H19.8305V5.16947H4.16953V16.8305Z" fill="currentColor"/>
</svg>
