<svg width="24" height="24" viewBox="0 0 24 24" fill="none" xmlns="http://www.w3.org/2000/svg">
<path d="M9.09899 19.325V16.675H21.4805V19.325H9.09899ZM9.09899 13.325V10.675H21.4805V13.325H9.09899ZM9.09899 7.325V4.675H21.4805V7.325H9.09899ZM4.79874 20.2967C4.16624 20.2967 3.62591 20.0715 3.17774 19.621C2.72958 19.1707 2.50549 18.6292 2.50549 17.9965C2.50549 17.364 2.73066 16.8237 3.18099 16.3755C3.63149 15.9273 4.17299 15.7032 4.80549 15.7032C5.43799 15.7032 5.97841 15.9285 6.42674 16.379C6.87491 16.8293 7.09899 17.3708 7.09899 18.0035C7.09899 18.636 6.87374 19.1763 6.42324 19.6245C5.97274 20.0727 5.43124 20.2967 4.79874 20.2967ZM4.79874 14.2967C4.16624 14.2967 3.62591 14.0715 3.17774 13.621C2.72958 13.1707 2.50549 12.6292 2.50549 11.9965C2.50549 11.364 2.73066 10.8237 3.18099 10.3755C3.63149 9.92733 4.17299 9.70325 4.80549 9.70325C5.43799 9.70325 5.97841 9.9285 6.42674 10.379C6.87491 10.8293 7.09899 11.3708 7.09899 12.0035C7.09899 12.636 6.87374 13.1763 6.42324 13.6245C5.97274 14.0727 5.43124 14.2967 4.79874 14.2967ZM3.17774 7.621C2.72958 7.17066 2.50549 6.62916 2.50549 5.9965C2.50549 5.364 2.73066 4.82366 3.18099 4.3755C3.63149 3.92733 4.17299 3.70325 4.80549 3.70325C5.43799 3.70325 5.97841 3.9285 6.42674 4.379C6.87491 4.82933 7.09899 5.37083 7.09899 6.0035C7.09899 6.636 6.87374 7.17633 6.42324 7.6245C5.97274 8.07266 5.43124 8.29675 4.79874 8.29675C4.16624 8.29675 3.62591 8.0715 3.17774 7.621Z" fill="currentColor"/>
</svg>
