<svg width="24" height="24" viewBox="0 0 24 24" fill="none" xmlns="http://www.w3.org/2000/svg">
<path d="M6.88695 21.65V19H10.675V16.4795C9.85828 16.2678 9.12203 15.9125 8.4662 15.4135C7.81037 14.9146 7.30895 14.2866 6.96195 13.5295C5.48579 13.5113 4.2397 12.9607 3.2237 11.8777C2.20787 10.7947 1.69995 9.50214 1.69995 7.99998V6.99998C1.69995 6.26164 1.95703 5.63539 2.4712 5.12123C2.9852 4.60706 3.61145 4.34998 4.34995 4.34998H6.34995V2.34998H17.65V4.34998H19.65C20.3885 4.34998 21.0147 4.60706 21.5287 5.12123C22.0429 5.63539 22.3 6.26164 22.3 6.99998V7.99998C22.3 9.50214 21.792 10.7947 20.7762 11.8777C19.7602 12.9607 18.5141 13.5113 17.038 13.5295C16.691 14.2866 16.1895 14.9146 15.5337 15.4135C14.8779 15.9125 14.1416 16.2678 13.325 16.4795V19H17.113V21.65H6.88695ZM6.34995 10.8V6.99998H4.34995V7.99998C4.34995 8.63331 4.53328 9.20414 4.89995 9.71248C5.26662 10.2208 5.74995 10.5833 6.34995 10.8ZM12 14C12.8333 14 13.5416 13.7083 14.125 13.125C14.7083 12.5416 15 11.8333 15 11V4.99998H8.99995V11C8.99995 11.8333 9.29162 12.5416 9.87495 13.125C10.4583 13.7083 11.1666 14 12 14ZM17.65 10.8C18.25 10.5833 18.7333 10.2208 19.1 9.71248C19.4666 9.20414 19.65 8.63331 19.65 7.99998V6.99998H17.65V10.8Z" fill="currentColor"/>
</svg>
