<svg width="24" height="24" viewBox="0 0 24 24" fill="none" xmlns="http://www.w3.org/2000/svg">
<path d="M4.576 21.0457V18.3957H19.424V21.0457H4.576ZM4.6185 16.8957L3.32925 8.72922C3.31475 8.72922 3.2985 8.73105 3.2805 8.73472C3.26233 8.73839 3.246 8.74022 3.2315 8.74022C2.74883 8.71189 2.34283 8.5213 2.0135 8.16847C1.68417 7.81564 1.5195 7.39789 1.5195 6.91522C1.5195 6.40822 1.69692 5.9773 2.05175 5.62247C2.40675 5.26764 2.83767 5.09022 3.3445 5.09022C3.8515 5.09022 4.28242 5.26764 4.63725 5.62247C4.99208 5.9773 5.1695 6.40822 5.1695 6.91522C5.1695 7.00405 5.16408 7.08655 5.15325 7.16272C5.14242 7.23905 5.125 7.30947 5.101 7.37397L7.8305 8.59022L10.7153 4.62597C10.5508 4.46447 10.4196 4.27389 10.3218 4.05422C10.2239 3.83455 10.175 3.59797 10.175 3.34447C10.175 2.83764 10.3524 2.40672 10.7073 2.05172C11.0621 1.69689 11.493 1.51947 12 1.51947C12.507 1.51947 12.9379 1.69689 13.2928 2.05172C13.6476 2.40672 13.825 2.83764 13.825 3.34447C13.825 3.59797 13.7761 3.83455 13.6783 4.05422C13.5804 4.27389 13.4493 4.46447 13.2848 4.62597L16.1695 8.59022L18.899 7.37397C18.875 7.30947 18.8576 7.23905 18.8468 7.16272C18.8359 7.08655 18.8305 7.00405 18.8305 6.91522C18.8305 6.40822 19.0079 5.9773 19.3628 5.62247C19.7176 5.26764 20.1485 5.09022 20.6555 5.09022C21.1623 5.09022 21.5933 5.26764 21.9483 5.62247C22.3031 5.9773 22.4805 6.40822 22.4805 6.91522C22.4805 7.39789 22.3158 7.81564 21.9865 8.16847C21.6572 8.5213 21.2512 8.71189 20.7685 8.74022C20.754 8.74022 20.7377 8.73839 20.7195 8.73472C20.7015 8.73105 20.6853 8.72922 20.6708 8.72922L19.3815 16.8957H4.6185Z" fill="currentColor"/>
</svg>
