<svg width="24" height="24" viewBox="0 0 24 24" fill="none" xmlns="http://www.w3.org/2000/svg">
<path d="M22.8056 22.862L18.6783 18.7348H8.39583C7.65733 18.7348 7.031 18.4777 6.51683 17.9635C6.00283 17.4495 5.74583 16.8232 5.74583 16.0848V15.0848H16.5056C17.2439 15.0848 17.8702 14.8277 18.3843 14.3135C18.8985 13.7995 19.1556 13.1733 19.1556 12.4348V5.70325H20.1556C20.8939 5.70325 21.5202 5.96033 22.0343 6.4745C22.5485 6.98867 22.8056 7.61492 22.8056 8.35325V22.862ZM3.84458 10.9455L4.35558 10.4348H14.5056V3.788H3.84458V10.9455ZM1.19458 17.2968V3.788C1.19458 3.04967 1.45166 2.42342 1.96583 1.90925C2.48 1.39508 3.10625 1.138 3.84458 1.138H14.5056C15.2439 1.138 15.8702 1.39508 16.3843 1.90925C16.8985 2.42342 17.1556 3.04967 17.1556 3.788V10.4348C17.1556 11.1733 16.8985 11.7995 16.3843 12.3135C15.8702 12.8277 15.2439 13.0848 14.5056 13.0848H5.42058L1.19458 17.2968Z" fill="currentColor"/>
</svg>
