<svg width="24" height="24" viewBox="0 0 24 24" fill="none" xmlns="http://www.w3.org/2000/svg">
<path d="M12 23.438L4.57397 17.8685C4.23914 17.6192 3.97972 17.3075 3.79572 16.9335C3.61155 16.5595 3.51947 16.1636 3.51947 15.7457V4.02823C3.51947 3.2899 3.77655 2.66365 4.29072 2.14948C4.80489 1.63532 5.43114 1.37823 6.16947 1.37823H17.8305C18.5688 1.37823 19.1951 1.63532 19.7092 2.14948C20.2234 2.66365 20.4805 3.2899 20.4805 4.02823V15.7457C20.4805 16.1636 20.3884 16.5595 20.2042 16.9335C20.0202 17.3075 19.7608 17.6192 19.426 17.8685L12 23.438ZM12 20.1325L17.8305 15.7597V4.02823H6.16947V15.7597L12 20.1325ZM10.95 15.0282L16.7555 9.23698L15.1857 7.64574L10.95 11.8815L8.83572 9.76749L7.24447 11.337L10.95 15.0282Z" fill="currentColor"/>
</svg>
