<svg width="24" height="24" viewBox="0 0 24 24" fill="none" xmlns="http://www.w3.org/2000/svg">
<path d="M10.5575 16.8825L17.8195 9.62072L16.038 7.82497L10.5575 13.3055L7.87725 10.625L6.09575 12.4207L10.5575 16.8825ZM12 22.4805C10.5413 22.4805 9.17542 22.2058 7.90225 21.6565C6.62925 21.1071 5.52192 20.3616 4.58025 19.4197C3.63842 18.4781 2.89283 17.3707 2.3435 16.0977C1.79417 14.8246 1.5195 13.4586 1.5195 12C1.5195 10.5413 1.79417 9.17539 2.3435 7.90222C2.89283 6.62922 3.63842 5.52189 4.58025 4.58022C5.52192 3.63839 6.62925 2.8928 7.90225 2.34347C9.17542 1.79414 10.5413 1.51947 12 1.51947C13.4587 1.51947 14.8246 1.79414 16.0978 2.34347C17.3708 2.8928 18.4781 3.63839 19.4198 4.58022C20.3616 5.52189 21.1072 6.62922 21.6565 7.90222C22.2058 9.17539 22.4805 10.5413 22.4805 12C22.4805 13.4586 22.2058 14.8246 21.6565 16.0977C21.1072 17.3707 20.3616 18.4781 19.4198 19.4197C18.4781 20.3616 17.3708 21.1071 16.0978 21.6565C14.8246 22.2058 13.4587 22.4805 12 22.4805Z" fill="currentColor"/>
</svg>
