<svg width="24" height="24" viewBox="0 0 24 24" fill="none" xmlns="http://www.w3.org/2000/svg">
<path d="M5.16947 21.4805C4.43114 21.4805 3.80489 21.2234 3.29072 20.7092C2.77655 20.1951 2.51947 19.5688 2.51947 18.8305V5.16947C2.51947 4.43114 2.77655 3.80489 3.29072 3.29072C3.80489 2.77655 4.43114 2.51947 5.16947 2.51947H18.8305C19.5688 2.51947 20.1951 2.77655 20.7092 3.29072C21.2234 3.80489 21.4805 4.43114 21.4805 5.16947V18.8305C21.4805 19.5688 21.2234 20.1951 20.7092 20.7092C20.1951 21.2234 19.5688 21.4805 18.8305 21.4805H5.16947ZM5.16947 18.8305H18.8305V5.16947H5.16947V18.8305Z" fill="currentColor"/>
</svg>
