<svg width="24" height="24" viewBox="0 0 24 24" fill="none" xmlns="http://www.w3.org/2000/svg">
<path d="M11.9718 23.438L8.78803 20.2402H5.16953C4.4312 20.2402 3.80495 19.9832 3.29078 19.469C2.77661 18.9548 2.51953 18.3286 2.51953 17.5902V3.92924C2.51953 3.1909 2.77661 2.56465 3.29078 2.05049C3.80495 1.53632 4.4312 1.27924 5.16953 1.27924H18.8305C19.5689 1.27924 20.1951 1.53632 20.7093 2.05049C21.2234 2.56465 21.4805 3.1909 21.4805 3.92924V17.5902C21.4805 18.3286 21.2234 18.9548 20.7093 19.469C20.1951 19.9832 19.5689 20.2402 18.8305 20.2402H15.1695L11.9718 23.438ZM14.5598 10.9892C15.2619 10.2869 15.613 9.43357 15.613 8.42924C15.613 7.4249 15.2619 6.57399 14.5598 5.87649C13.8576 5.17915 13.0044 4.83049 12 4.83049C10.9957 4.83049 10.1424 5.17915 9.44028 5.87649C8.73811 6.57399 8.38703 7.4249 8.38703 8.42924C8.38703 9.43357 8.73811 10.2869 9.44028 10.9892C10.1424 11.6914 10.9957 12.0425 12 12.0425C13.0044 12.0425 13.8576 11.6914 14.5598 10.9892ZM5.16953 17.5902H18.8305V16.1292C17.9305 15.2931 16.9129 14.6467 15.7778 14.1902C14.6426 13.7337 13.3834 13.5055 12 13.5055C10.6167 13.5055 9.35745 13.7384 8.22228 14.2042C7.08712 14.6702 6.06953 15.3213 5.16953 16.1575V17.5902Z" fill="currentColor"/>
</svg>
