<svg width="24" height="24" viewBox="0 0 24 24" fill="none" xmlns="http://www.w3.org/2000/svg">
<path d="M10.788 17.113H13.212V13.212H17.113V10.788H13.212V6.88697H10.788V10.788H6.88703V13.212H10.788V17.113ZM5.16953 21.4805C4.4312 21.4805 3.80495 21.2234 3.29078 20.7092C2.77661 20.1951 2.51953 19.5688 2.51953 18.8305V5.16947C2.51953 4.43114 2.77661 3.80489 3.29078 3.29072C3.80495 2.77655 4.4312 2.51947 5.16953 2.51947H18.8305C19.5689 2.51947 20.1951 2.77655 20.7093 3.29072C21.2234 3.80489 21.4805 4.43114 21.4805 5.16947V18.8305C21.4805 19.5688 21.2234 20.1951 20.7093 20.7092C20.1951 21.2234 19.5689 21.4805 18.8305 21.4805H5.16953ZM5.16953 18.8305H18.8305V5.16947H5.16953V18.8305Z" fill="currentColor"/>
</svg>
