<svg width="24" height="24" viewBox="0 0 24 24" fill="none" xmlns="http://www.w3.org/2000/svg">
<path d="M5.16953 22.4805C4.4312 22.4805 3.80495 22.2234 3.29078 21.7092C2.77661 21.1951 2.51953 20.5688 2.51953 19.8305V6.16947C2.51953 5.43114 2.77661 4.80489 3.29078 4.29072C3.80495 3.77655 4.4312 3.51947 5.16953 3.51947H6.00003V1.51947H8.32503V3.51947H15.675V1.51947H18V3.51947H18.8305C19.5689 3.51947 20.1951 3.77655 20.7093 4.29072C21.2234 4.80489 21.4805 5.43114 21.4805 6.16947V19.8305C21.4805 20.5688 21.2234 21.1951 20.7093 21.7092C20.1951 22.2234 19.5689 22.4805 18.8305 22.4805H5.16953ZM5.16953 19.8305H18.8305V9.99997H5.16953V19.8305ZM5.16953 7.99997H18.8305V6.16947H5.16953V7.99997Z" fill="currentColor"/>
</svg>
