<svg width="24" height="24" viewBox="0 0 24 24" fill="none" xmlns="http://www.w3.org/2000/svg">
<path d="M5.1695 22.4805C4.43117 22.4805 3.80492 22.2234 3.29075 21.7092C2.77658 21.1951 2.5195 20.5688 2.5195 19.8305V6.16947C2.5195 5.43114 2.77658 4.80489 3.29075 4.29072C3.80492 3.77655 4.43117 3.51947 5.1695 3.51947H6V1.51947H8.325V3.51947H15.675V1.51947H18V3.51947H18.8305C19.5688 3.51947 20.1951 3.77655 20.7092 4.29072C21.2234 4.80489 21.4805 5.43114 21.4805 6.16947V19.8305C21.4805 20.5688 21.2234 21.1951 20.7092 21.7092C20.1951 22.2234 19.5688 22.4805 18.8305 22.4805H5.1695ZM5.1695 19.8305H18.8305V9.99997H5.1695V19.8305Z" fill="currentColor"/>
</svg>
