<svg width="24" height="24" viewBox="0 0 24 24" fill="none" xmlns="http://www.w3.org/2000/svg">
<path d="M9.44251 16.6977L12 14.1402L14.5575 16.6977L16.1978 15.0575L13.6403 12.5L16.1978 9.94248L14.5575 8.30223L12 10.8597L9.44251 8.30223L7.80226 9.94248L10.3598 12.5L7.80226 15.0575L9.44251 16.6977ZM6.84451 21.4805C6.10617 21.4805 5.47992 21.2234 4.96576 20.7092C4.45159 20.1951 4.19451 19.5688 4.19451 18.8305V6.15548H2.86951V3.50548H8.67501V2.18048H15.2968V3.50548H21.1305V6.15548H19.8055V18.8305C19.8055 19.5688 19.5484 20.1951 19.0343 20.7092C18.5201 21.2234 17.8938 21.4805 17.1555 21.4805H6.84451Z" fill="currentColor"/>
</svg>
