<svg width="24" height="24" viewBox="0 0 24 24" fill="none" xmlns="http://www.w3.org/2000/svg">
<path d="M9.44239 16.6977L11.9999 14.1402L14.5574 16.6977L16.1976 15.0575L13.6401 12.5L16.1976 9.94248L14.5574 8.30223L11.9999 10.8597L9.44239 8.30223L7.80213 9.94248L10.3596 12.5L7.80213 15.0575L9.44239 16.6977ZM6.84439 21.4805C6.10605 21.4805 5.4798 21.2234 4.96564 20.7092C4.45147 20.1951 4.19438 19.5688 4.19438 18.8305V6.15548H2.86938V3.50548H8.67489V2.18048H15.2966V3.50548H21.1304V6.15548H19.8054V18.8305C19.8054 19.5688 19.5483 20.1951 19.0341 20.7092C18.52 21.2234 17.8937 21.4805 17.1554 21.4805H6.84439ZM17.1554 6.15548H6.84439V18.8305H17.1554V6.15548Z" fill="currentColor"/>
</svg>
