<svg width="24" height="24" viewBox="0 0 24 24" fill="none" xmlns="http://www.w3.org/2000/svg">
<path d="M8.00003 16.9152C8.28336 16.9152 8.52086 16.8194 8.71253 16.6277C8.9042 16.4361 9.00003 16.1986 9.00003 15.9152C9.00003 15.6319 8.9042 15.3944 8.71253 15.2027C8.52086 15.0111 8.28336 14.9152 8.00003 14.9152C7.7167 14.9152 7.4792 15.0111 7.28753 15.2027C7.09586 15.3944 7.00003 15.6319 7.00003 15.9152C7.00003 16.1986 7.09586 16.4361 7.28753 16.6277C7.4792 16.8194 7.7167 16.9152 8.00003 16.9152ZM8.00003 13C8.28336 13 8.52086 12.9041 8.71253 12.7125C8.9042 12.5208 9.00003 12.2833 9.00003 12C9.00003 11.7166 8.9042 11.4791 8.71253 11.2875C8.52086 11.0958 8.28336 11 8.00003 11C7.7167 11 7.4792 11.0958 7.28753 11.2875C7.09586 11.4791 7.00003 11.7166 7.00003 12C7.00003 12.2833 7.09586 12.5208 7.28753 12.7125C7.4792 12.9041 7.7167 13 8.00003 13ZM8.00003 9.08472C8.28336 9.08472 8.52086 8.98889 8.71253 8.79722C8.9042 8.60555 9.00003 8.36805 9.00003 8.08472C9.00003 7.80139 8.9042 7.56389 8.71253 7.37222C8.52086 7.18055 8.28336 7.08472 8.00003 7.08472C7.7167 7.08472 7.4792 7.18055 7.28753 7.37222C7.09586 7.56389 7.00003 7.80139 7.00003 8.08472C7.00003 8.36805 7.09586 8.60555 7.28753 8.79722C7.4792 8.98889 7.7167 9.08472 8.00003 9.08472ZM11 16.9152H17V14.9152H11V16.9152ZM11 13H17V11H11V13ZM11 9.08472H17V7.08472H11V9.08472ZM5.16953 21.4805C4.4312 21.4805 3.80495 21.2234 3.29078 20.7092C2.77661 20.1951 2.51953 19.5688 2.51953 18.8305V5.16947C2.51953 4.43114 2.77661 3.80489 3.29078 3.29072C3.80495 2.77655 4.4312 2.51947 5.16953 2.51947H18.8305C19.5689 2.51947 20.1951 2.77655 20.7093 3.29072C21.2234 3.80489 21.4805 4.43114 21.4805 5.16947V18.8305C21.4805 19.5688 21.2234 20.1951 20.7093 20.7092C20.1951 21.2234 19.5689 21.4805 18.8305 21.4805H5.16953ZM5.16953 18.8305H18.8305V5.16947H5.16953V18.8305Z" fill="currentColor"/>
</svg>
