<svg width="32" height="20" viewBox="0 0 32 20" fill="none" xmlns="http://www.w3.org/2000/svg">
<path d="M16.6601 0C16.406 0.457771 16.1779 0.931333 15.9705 1.41542C14.0001 1.1155 11.9934 1.1155 10.0179 1.41542C9.81568 0.931333 9.58233 0.457771 9.32827 0C7.47717 0.320979 5.67273 0.883979 3.96163 1.6785C0.57053 6.77717 -0.347243 11.7443 0.109057 16.643C2.09496 18.1321 4.31941 19.2686 6.68902 19.9947C7.22309 19.2686 7.69495 18.4951 8.09939 17.6901C7.33198 17.4007 6.5905 17.0376 5.88014 16.6167C6.0668 16.4799 6.24828 16.3378 6.42457 16.201C10.5883 18.19 15.4105 18.19 19.5793 16.201C19.7556 16.3483 19.9371 16.4904 20.1238 16.6167C19.4134 17.0429 18.6719 17.4007 17.8993 17.6954C18.3038 18.5004 18.7756 19.2739 19.3097 20C21.6793 19.2739 23.9037 18.1426 25.8898 16.6535C26.4289 10.9708 24.9667 6.04577 22.0266 1.68377C20.3208 0.88925 18.5164 0.326229 16.6653 0.0105208L16.6601 0ZM8.68012 13.628C7.3994 13.628 6.33644 12.4494 6.33644 10.9919C6.33644 9.53435 7.35791 8.35044 8.67495 8.35044C9.99199 8.35044 11.0394 9.5396 11.0186 10.9919C10.9979 12.4441 9.98679 13.628 8.68012 13.628ZM17.3186 13.628C16.0327 13.628 14.9801 12.4494 14.9801 10.9919C14.9801 9.53435 16.0016 8.35044 17.3186 8.35044C18.6356 8.35044 19.6779 9.5396 19.6571 10.9919C19.6364 12.4441 18.6253 13.628 17.3186 13.628Z" fill="white"/>
</svg>
