<svg width="24" height="24" viewBox="0 0 24 24" fill="none" xmlns="http://www.w3.org/2000/svg">
<path d="M5.1695 11.113C4.43117 11.113 3.80492 10.8559 3.29075 10.3418C2.77658 9.82775 2.5195 9.2015 2.5195 8.463V4.887C2.5195 4.1485 2.77658 3.52217 3.29075 3.008C3.80492 2.494 4.43117 2.237 5.1695 2.237H18.8305C19.5688 2.237 20.1951 2.494 20.7092 3.008C21.2234 3.52217 21.4805 4.1485 21.4805 4.887V8.463C21.4805 9.2015 21.2234 9.82775 20.7092 10.3418C20.1951 10.8559 19.5688 11.113 18.8305 11.113H5.1695ZM5.1695 21.763C4.43117 21.763 3.80492 21.506 3.29075 20.992C2.77658 20.4778 2.5195 19.8515 2.5195 19.113V15.537C2.5195 14.7985 2.77658 14.1722 3.29075 13.6582C3.80492 13.1441 4.43117 12.887 5.1695 12.887H18.8305C19.5688 12.887 20.1951 13.1441 20.7092 13.6582C21.2234 14.1722 21.4805 14.7985 21.4805 15.537V19.113C21.4805 19.8515 21.2234 20.4778 20.7092 20.992C20.1951 21.506 19.5688 21.763 18.8305 21.763H5.1695ZM5.1695 19.113H18.8305V15.537H5.1695V19.113Z" fill="currentColor"/>
</svg>
