<svg width="24" height="24" viewBox="0 0 24 24" fill="none" xmlns="http://www.w3.org/2000/svg">
<path d="M2.51947 21.4805V16.326L15.6912 3.16522C15.9101 2.95355 16.1545 2.79305 16.4245 2.68372C16.6943 2.57422 16.9767 2.51947 17.2717 2.51947C17.5572 2.51947 17.8391 2.57422 18.1175 2.68372C18.3956 2.79305 18.6452 2.95714 18.8662 3.17597L20.849 5.14122C21.0678 5.35289 21.2301 5.60022 21.336 5.88322C21.4416 6.16605 21.4945 6.45139 21.4945 6.73922C21.4945 7.03405 21.4416 7.3188 21.336 7.59347C21.2301 7.86814 21.0678 8.11489 20.849 8.33372L7.70222 21.4805H2.51947ZM17.289 8.12497L18.689 6.73922L17.275 5.31097L15.8607 6.71097L17.289 8.12497Z" fill="currentColor"/>
</svg>
