<svg width="24" height="24" viewBox="0 0 24 24" fill="none" xmlns="http://www.w3.org/2000/svg">
<path d="M4.16953 21.9468C3.4312 21.9468 2.80495 21.6897 2.29078 21.1755C1.77661 20.6615 1.51953 20.0353 1.51953 19.2968V14.65C1.51953 13.9117 1.77661 13.2854 2.29078 12.7713C2.80495 12.2571 3.4312 12 4.16953 12H9.00003C9.00003 12.8334 9.2917 13.5417 9.87503 14.125C10.4584 14.7084 11.1667 15 12 15C12.8334 15 13.5417 14.7084 14.125 14.125C14.7084 13.5417 15 12.8334 15 12H19.8305C20.5689 12 21.1951 12.2571 21.7093 12.7713C22.2234 13.2854 22.4805 13.9117 22.4805 14.65V19.2968C22.4805 20.0353 22.2234 20.6615 21.7093 21.1755C21.1951 21.6897 20.5689 21.9468 19.8305 21.9468H4.16953ZM4.16953 19.2968H19.8305V14.65H16.9533C16.4424 15.595 15.7522 16.3313 14.8825 16.8588C14.0127 17.3863 13.0507 17.65 11.9965 17.65C10.9424 17.65 9.98153 17.3839 9.11403 16.8518C8.2467 16.3194 7.55761 15.5855 7.04678 14.65H4.16953V19.2968ZM17.812 10.6023L15.9598 8.75002L19.962 4.74777L21.8283 6.60002L17.812 10.6023ZM6.18803 10.6023L2.17178 6.60002L4.03803 4.74777L8.04028 8.75002L6.18803 10.6023ZM10.675 7.67502V2.02502H13.325V7.67502H10.675Z" fill="currentColor"/>
</svg>
