<svg width="24" height="24" viewBox="0 0 24 24" fill="none" xmlns="http://www.w3.org/2000/svg">
<path d="M11.9967 17.4805C12.3952 17.4805 12.7304 17.3456 13.0022 17.076C13.2739 16.8065 13.4097 16.4725 13.4097 16.074C13.4097 15.6753 13.275 15.3378 13.0055 15.0615C12.7358 14.785 12.4017 14.6467 12.0032 14.6467C11.6047 14.6467 11.2696 14.785 10.9977 15.0615C10.7261 15.3378 10.5902 15.6753 10.5902 16.074C10.5902 16.4725 10.725 16.8065 10.9945 17.076C11.2641 17.3456 11.5982 17.4805 11.9967 17.4805ZM10.675 13.0282H13.325V6.70322H10.675V13.0282ZM12 22.4805C10.5413 22.4805 9.17539 22.2058 7.90222 21.6565C6.62922 21.1071 5.52189 20.3616 4.58022 19.4197C3.63839 18.4781 2.8928 17.3707 2.34347 16.0977C1.79414 14.8246 1.51947 13.4586 1.51947 12C1.51947 10.5413 1.79414 9.17539 2.34347 7.90222C2.8928 6.62922 3.63839 5.52189 4.58022 4.58022C5.52189 3.63839 6.62922 2.8928 7.90222 2.34347C9.17539 1.79414 10.5413 1.51947 12 1.51947C13.4586 1.51947 14.8246 1.79414 16.0977 2.34347C17.3707 2.8928 18.4781 3.63839 19.4197 4.58022C20.3616 5.52189 21.1071 6.62922 21.6565 7.90222C22.2058 9.17539 22.4805 10.5413 22.4805 12C22.4805 13.4586 22.2058 14.8246 21.6565 16.0977C21.1071 17.3707 20.3616 18.4781 19.4197 19.4197C18.4781 20.3616 17.3707 21.1071 16.0977 21.6565C14.8246 22.2058 13.4586 22.4805 12 22.4805Z" fill="currentColor"/>
</svg>
