<svg width="24" height="24" viewBox="0 0 24 24" fill="none" xmlns="http://www.w3.org/2000/svg">
<path d="M9.04453 16.3957L12 14.1825L14.9195 16.3957L13.813 12.7977L16.7543 10.4847H13.1708L12 6.90097L10.8293 10.4847H7.25978L10.137 12.7977L9.04453 16.3957ZM4.16953 20.4805C3.4312 20.4805 2.80495 20.2234 2.29078 19.7092C1.77661 19.1951 1.51953 18.5688 1.51953 17.8305V14.3707C1.51953 14.1874 1.57553 14.0314 1.68753 13.9027C1.79953 13.7741 1.9472 13.6931 2.13053 13.6597C2.52103 13.5452 2.8502 13.3389 3.11803 13.0407C3.3857 12.7426 3.51953 12.3956 3.51953 12C3.51953 11.595 3.3857 11.2433 3.11803 10.945C2.8502 10.6468 2.52103 10.4452 2.13053 10.3402C1.9472 10.3069 1.79953 10.2259 1.68753 10.0972C1.57553 9.96855 1.51953 9.81255 1.51953 9.62922V6.16947C1.51953 5.43114 1.77661 4.80489 2.29078 4.29072C2.80495 3.77655 3.4312 3.51947 4.16953 3.51947H19.8305C20.5689 3.51947 21.1951 3.77655 21.7093 4.29072C22.2234 4.80489 22.4805 5.43114 22.4805 6.16947V9.64347C22.4805 9.8268 22.4245 9.98039 22.3125 10.1042C22.2005 10.2282 22.0529 10.3069 21.8695 10.3402C21.479 10.4452 21.1499 10.6468 20.882 10.945C20.6144 11.2433 20.4805 11.595 20.4805 12C20.4805 12.3956 20.6144 12.7426 20.882 13.0407C21.1499 13.3389 21.479 13.5452 21.8695 13.6597C22.0529 13.6931 22.2005 13.7717 22.3125 13.8957C22.4245 14.0196 22.4805 14.1731 22.4805 14.3565V17.8305C22.4805 18.5688 22.2234 19.1951 21.7093 19.7092C21.1951 20.2234 20.5689 20.4805 19.8305 20.4805H4.16953Z" fill="currentColor"/>
</svg>
