<svg width="24" height="24" viewBox="0 0 24 24" fill="none" xmlns="http://www.w3.org/2000/svg">
<path d="M11.9857 21.65L10.2107 20.0533C8.48974 18.5084 7.06749 17.1719 5.94399 16.0435C4.82049 14.9152 3.93133 13.9018 3.27649 13.0033C2.62183 12.1048 2.16299 11.2747 1.89999 10.513C1.63699 9.75152 1.50549 8.96385 1.50549 8.15002C1.50549 6.44252 2.07633 5.01652 3.21799 3.87202C4.35966 2.72769 5.78224 2.15552 7.48574 2.15552C8.34241 2.15552 9.15783 2.32002 9.93199 2.64902C10.7063 2.97785 11.3909 3.4521 11.9857 4.07177C12.5807 3.4521 13.2653 2.97785 14.0395 2.64902C14.8138 2.32002 15.6292 2.15552 16.4857 2.15552C18.1974 2.15552 19.6268 2.72769 20.774 3.87202C21.921 5.01652 22.4945 6.44252 22.4945 8.15002C22.4945 8.95435 22.3653 9.73735 22.107 10.499C21.8487 11.2605 21.3898 12.0882 20.7305 12.982C20.071 13.8759 19.1772 14.8893 18.049 16.0223C16.9207 17.1553 15.4913 18.4989 13.761 20.0533L11.9857 21.65ZM11.9857 18.088C13.5669 16.6547 14.8672 15.4373 15.8865 14.4358C16.9057 13.4344 17.7082 12.5617 18.294 11.8175C18.8798 11.0732 19.2847 10.4163 19.5087 9.84677C19.7326 9.27727 19.8445 8.71177 19.8445 8.15027C19.8445 7.18777 19.5252 6.38968 18.8867 5.75602C18.2484 5.12235 17.4504 4.80552 16.4927 4.80552C15.7426 4.80552 15.0436 5.02635 14.3957 5.46802C13.7479 5.90968 13.299 6.47218 13.049 7.15552H10.937C10.6915 6.47218 10.2413 5.90968 9.58649 5.46802C8.93166 5.02635 8.23274 4.80552 7.48974 4.80552C6.54108 4.80552 5.75058 5.12235 5.11824 5.75602C4.48574 6.38968 4.16949 7.18769 4.16949 8.15002C4.16949 8.72168 4.28358 9.29735 4.51174 9.87702C4.73974 10.4569 5.14699 11.1184 5.73349 11.8615C6.31983 12.6045 7.11791 13.4744 8.12774 14.4713C9.13758 15.4679 10.4236 16.6735 11.9857 18.088Z" fill="currentColor"/>
</svg>
