<svg width="24" height="24" viewBox="0 0 24 24" fill="none" xmlns="http://www.w3.org/2000/svg">
<path d="M11.9857 21.65L10.2107 20.0533C8.48974 18.5084 7.06749 17.1719 5.94399 16.0435C4.82049 14.9152 3.93133 13.9018 3.27649 13.0033C2.62183 12.1048 2.16299 11.2747 1.89999 10.513C1.63699 9.75152 1.50549 8.96385 1.50549 8.15002C1.50549 6.44202 2.07524 5.01593 3.21474 3.87177C4.35424 2.7276 5.77791 2.15552 7.48574 2.15552C8.34308 2.15552 9.15866 2.32002 9.93249 2.64902C10.7065 2.97785 11.3909 3.4521 11.9857 4.07177C12.5807 3.4521 13.2652 2.97785 14.0392 2.64902C14.8131 2.32002 15.6286 2.15552 16.4857 2.15552C18.1937 2.15552 19.6222 2.7276 20.7712 3.87177C21.9201 5.01593 22.4945 6.44202 22.4945 8.15002C22.4945 8.95435 22.3653 9.73735 22.107 10.499C21.8487 11.2605 21.3898 12.0882 20.7305 12.982C20.071 13.8759 19.1772 14.8893 18.049 16.0223C16.9207 17.1553 15.4913 18.4989 13.761 20.0533L11.9857 21.65Z" fill="currentColor"/>
</svg>
