<svg width="24" height="24" viewBox="0 0 24 24" fill="none" xmlns="http://www.w3.org/2000/svg">
<path d="M2.01983 12.1466C1.75847 11.6101 1.557 11.0704 1.41545 10.5275C1.27404 9.98448 1.20334 9.44246 1.20334 8.90149C1.20334 7.24922 1.77743 5.85261 2.92563 4.71166C4.07367 3.57055 5.47897 3 7.1415 3C8.08321 3 8.98008 3.19537 9.83212 3.58612C10.684 3.97673 11.4066 4.52649 12 5.23541C12.5934 4.52649 13.316 3.97673 14.1679 3.58612C15.0199 3.19537 15.9168 3 16.8585 3C18.521 3 19.9263 3.57055 21.0744 4.71166C22.2226 5.85261 22.7967 7.24922 22.7967 8.90149C22.7967 9.44246 22.7251 9.9844 22.5819 10.5273C22.4385 11.0702 22.2379 11.6058 21.9802 12.1341C21.7219 11.8088 21.4189 11.5386 21.071 11.3236C20.7233 11.1084 20.3443 10.9632 19.9342 10.8881C20.0852 10.5453 20.2026 10.21 20.2864 9.88217C20.3704 9.55431 20.4124 9.22742 20.4124 8.90149C20.4124 7.91597 20.068 7.08097 19.3791 6.39649C18.6903 5.71186 17.8501 5.36954 16.8585 5.36954C15.7541 5.36954 14.8799 5.6506 14.236 6.21274C13.5923 6.77487 12.8469 7.54996 12 8.53801C11.1531 7.5434 10.4077 6.76667 9.76397 6.20782C9.12007 5.64897 8.24591 5.36954 7.1415 5.36954C6.14986 5.36954 5.30967 5.71186 4.62093 6.39649C3.93204 7.08097 3.5876 7.91597 3.5876 8.90149C3.5876 9.22742 3.62959 9.55431 3.71356 9.88217C3.79739 10.21 3.9148 10.5453 4.0658 10.8881C3.66423 10.9632 3.28949 11.1105 2.9416 11.3298C2.59386 11.5492 2.2866 11.8215 2.01983 12.1466ZM1 21V19.3896C1 18.6726 1.35247 18.0983 2.0574 17.6666C2.76248 17.2348 3.67742 17.019 4.80222 17.019C4.92939 17.019 5.04687 17.0206 5.15469 17.0239C5.26266 17.0271 5.3737 17.0353 5.48781 17.0482C5.26093 17.38 5.08864 17.7374 4.97092 18.1206C4.85321 18.5036 4.79435 18.9117 4.79435 19.3449V21H1ZM6.39833 21V19.3449C6.39833 18.3157 6.91552 17.4845 7.9499 16.8513C8.98428 16.2179 10.3337 15.9012 11.9982 15.9012C13.6783 15.9012 15.0322 16.2179 16.06 16.8513C17.0878 17.4845 17.6017 18.3157 17.6017 19.3449V21H6.39833ZM19.2056 21V19.3449C19.2056 18.9121 19.1505 18.5044 19.0403 18.1217C18.9301 17.7388 18.7649 17.381 18.5446 17.0482C18.6587 17.0353 18.7685 17.0271 18.8741 17.0239C18.9797 17.0206 19.0876 17.019 19.1978 17.019C20.3385 17.019 21.2574 17.2348 21.9545 17.6666C22.6515 18.0983 23 18.6726 23 19.3896V21H19.2056ZM4.80335 16.1753C4.27386 16.1753 3.82018 15.9881 3.4423 15.6135C3.06456 15.239 2.8757 14.7888 2.8757 14.2629C2.8757 13.721 3.06411 13.2661 3.44095 12.898C3.81778 12.53 4.27079 12.346 4.79998 12.346C5.34521 12.346 5.80302 12.5294 6.1734 12.8962C6.54364 13.2629 6.72875 13.7174 6.72875 14.2596C6.72875 14.7858 6.54424 15.2367 6.1752 15.6122C5.80616 15.9876 5.34888 16.1753 4.80335 16.1753ZM19.1989 16.1753C18.6694 16.1753 18.2157 15.9881 17.8378 15.6135C17.4601 15.239 17.2712 14.7888 17.2712 14.2629C17.2712 13.721 17.4597 13.2661 17.8365 12.898C18.2133 12.53 18.6663 12.346 19.1955 12.346C19.7408 12.346 20.1986 12.5294 20.569 12.8962C20.9392 13.2629 21.1243 13.7174 21.1243 14.2596C21.1243 14.7858 20.9398 15.2367 20.5707 15.6122C20.2017 15.9876 19.7444 16.1753 19.1989 16.1753ZM12 15.2434C11.1937 15.2434 10.5083 14.9629 9.94391 14.402C9.37963 13.841 9.0975 13.1599 9.0975 12.3586C9.0975 11.548 9.37963 10.8646 9.94391 10.3085C10.5083 9.75214 11.1937 9.47398 12 9.47398C12.8156 9.47398 13.5033 9.75214 14.0631 10.3085C14.6227 10.8646 14.9025 11.548 14.9025 12.3586C14.9025 13.1599 14.6227 13.841 14.0631 14.402C13.5033 14.9629 12.8156 15.2434 12 15.2434Z" fill="currentColor"/>
</svg>
