<svg width="24" height="24" viewBox="0 0 24 24" fill="none" xmlns="http://www.w3.org/2000/svg">
<path d="M11.9718 23.438L8.78803 20.2402H5.16953C4.4312 20.2402 3.80495 19.9832 3.29078 19.469C2.77661 18.9548 2.51953 18.3286 2.51953 17.5902V3.92924C2.51953 3.1909 2.77661 2.56465 3.29078 2.05049C3.80495 1.53632 4.4312 1.27924 5.16953 1.27924H18.8305C19.5689 1.27924 20.1951 1.53632 20.7093 2.05049C21.2234 2.56465 21.4805 3.1909 21.4805 3.92924V17.5902C21.4805 18.3286 21.2234 18.9548 20.7093 19.469C20.1951 19.9832 19.5689 20.2402 18.8305 20.2402H15.1695L11.9718 23.438ZM5.16953 16.1575C6.06953 15.3213 7.08712 14.6702 8.22228 14.2042C9.35745 13.7384 10.6167 13.5055 12 13.5055C13.3834 13.5055 14.6426 13.7337 15.7778 14.1902C16.9129 14.6467 17.9305 15.2931 18.8305 16.1292V3.92924H5.16953V16.1575ZM12 12.0425C13.0044 12.0425 13.8576 11.6914 14.5598 10.9892C15.2619 10.2869 15.613 9.43357 15.613 8.42924C15.613 7.4249 15.2619 6.57399 14.5598 5.87649C13.8576 5.17915 13.0044 4.83049 12 4.83049C10.9957 4.83049 10.1424 5.17915 9.44028 5.87649C8.73811 6.57399 8.38703 7.4249 8.38703 8.42924C8.38703 9.43357 8.73811 10.2869 9.44028 10.9892C10.1424 11.6914 10.9957 12.0425 12 12.0425ZM7.00003 17.5902H17V17.439C16.3 16.8557 15.525 16.4229 14.675 16.1407C13.825 15.8586 12.9334 15.7175 12 15.7175C11.0667 15.7175 10.175 15.8586 9.32503 16.1407C8.47503 16.4229 7.70003 16.8557 7.00003 17.439V17.5902ZM11.9968 9.83049C11.6106 9.83049 11.2834 9.69432 11.0153 9.42199C10.7471 9.14965 10.613 8.81907 10.613 8.43024C10.613 8.04124 10.7482 7.71265 11.0185 7.44449C11.2889 7.17649 11.6171 7.04249 12.0033 7.04249C12.3894 7.04249 12.7166 7.17765 12.9848 7.44799C13.2529 7.71832 13.387 8.04657 13.387 8.43274C13.387 8.8189 13.2519 9.1484 12.9815 9.42124C12.7112 9.69407 12.3829 9.83049 11.9968 9.83049Z" fill="currentColor"/>
</svg>
