<svg width="24" height="24" viewBox="0 0 24 24" fill="none" xmlns="http://www.w3.org/2000/svg">
<path d="M2.71739 6.562V2.22275L7.07064 4.39225L2.71739 6.562ZM18.1554 6.562V2.22275L22.4944 4.39225L18.1554 6.562ZM10.7596 5.47725V1.138L15.1129 3.3075L10.7596 5.47725ZM11.1129 22.551C9.76139 22.5367 8.49747 22.4396 7.32114 22.2598C6.14464 22.0801 5.12397 21.8452 4.25914 21.555C3.39431 21.2647 2.71206 20.9281 2.21239 20.5453C1.71272 20.1623 1.46289 19.7555 1.46289 19.325V10C1.46289 9.4985 1.74422 9.03325 2.30689 8.60425C2.86956 8.17525 3.62914 7.80208 4.58564 7.48475C5.54231 7.16742 6.65956 6.91775 7.93739 6.73575C9.21522 6.55392 10.5694 6.463 11.9999 6.463C13.4304 6.463 14.7846 6.55392 16.0624 6.73575C17.3402 6.91775 18.4575 7.16742 19.4141 7.48475C20.3706 7.80208 21.1302 8.17525 21.6929 8.60425C22.2556 9.03325 22.5369 9.4985 22.5369 10V19.325C22.5369 19.7555 22.2871 20.1598 21.7874 20.538C21.2877 20.9163 20.6055 21.2483 19.7406 21.5338C18.8758 21.8193 17.8576 22.0518 16.6859 22.2315C15.5141 22.4112 14.2477 22.5177 12.8869 22.551V18.537H11.1129V22.551ZM11.9999 10.788C13.4752 10.788 14.7416 10.7063 15.7989 10.543C16.8561 10.3795 17.7158 10.1916 18.3781 9.97925C18.0578 9.83942 17.3302 9.66008 16.1954 9.44125C15.0607 9.22242 13.6622 9.113 11.9999 9.113C10.3376 9.113 8.93664 9.22242 7.79714 9.44125C6.65764 9.66008 5.93247 9.83942 5.62164 9.97925C6.28397 10.1916 7.14372 10.3795 8.20089 10.543C9.25822 10.7063 10.5246 10.788 11.9999 10.788ZM8.46289 19.6945V15.887H15.5369V19.6945C16.6536 19.5707 17.578 19.4031 18.3101 19.1918C19.0425 18.9806 19.5681 18.7844 19.8869 18.6033V12.2523C18.9514 12.6189 17.8273 12.9083 16.5146 13.1203C15.202 13.3321 13.6971 13.438 11.9999 13.438C10.3027 13.438 8.79781 13.3321 7.48514 13.1203C6.17247 12.9083 5.04839 12.6189 4.11289 12.2523V18.6033C4.43172 18.7844 4.95731 18.9806 5.68964 19.1918C6.42181 19.4031 7.34622 19.5707 8.46289 19.6945Z" fill="currentColor"/>
</svg>
