<svg width="24" height="24" viewBox="0 0 24 24" fill="none" xmlns="http://www.w3.org/2000/svg">
<path d="M5.562 16.4523C4.91767 16.4523 4.36909 16.2258 3.91625 15.7728C3.46342 15.3199 3.237 14.7714 3.237 14.1273C3.237 13.4829 3.46342 12.9343 3.91625 12.4815C4.36909 12.0287 4.91767 11.8023 5.562 11.8023C6.20617 11.8023 6.75467 12.0287 7.2075 12.4815C7.6605 12.9343 7.887 13.4829 7.887 14.1273C7.887 14.7714 7.6605 15.3199 7.2075 15.7728C6.75467 16.2258 6.20617 16.4523 5.562 16.4523ZM18.438 16.4523C17.7938 16.4523 17.2453 16.2258 16.7925 15.7728C16.3395 15.3199 16.113 14.7714 16.113 14.1273C16.113 13.4829 16.3395 12.9343 16.7925 12.4815C17.2453 12.0287 17.7938 11.8023 18.438 11.8023C19.0823 11.8023 19.6309 12.0287 20.0838 12.4815C20.5366 12.9343 20.763 13.4829 20.763 14.1273C20.763 14.7714 20.5366 15.3199 20.0838 15.7728C19.6309 16.2258 19.0823 16.4523 18.438 16.4523ZM12 15.424C11.2152 15.424 10.5482 15.1517 9.999 14.607C9.44967 14.0625 9.175 13.3978 9.175 12.613C9.175 11.8188 9.44967 11.1471 9.999 10.5978C10.5482 10.0486 11.2152 9.77401 12 9.77401C12.7848 9.77401 13.4518 10.0486 14.001 10.5978C14.5503 11.1471 14.825 11.8188 14.825 12.613C14.825 13.3978 14.5503 14.0625 14.001 14.607C13.4518 15.1517 12.7848 15.424 12 15.424ZM6.76075 22.0458C6.99409 20.8109 7.60025 19.7813 8.57925 18.957C9.55825 18.1328 10.6985 17.7208 12 17.7208C13.3108 17.7208 14.4558 18.1328 15.4348 18.957C16.4138 19.7813 17.0199 20.8109 17.2533 22.0458H6.76075ZM1.237 22.0458C1.237 20.8516 1.65925 19.8322 2.50375 18.9875C3.34825 18.143 4.36767 17.7208 5.562 17.7208C5.883 17.7208 6.18967 17.7528 6.482 17.817C6.7745 17.881 7.0515 17.9724 7.313 18.0913C6.766 18.6029 6.314 19.1948 5.957 19.867C5.60017 20.539 5.36342 21.2653 5.24675 22.0458H1.237ZM18.7675 22.0458C18.6413 21.2653 18.4022 20.539 18.05 19.867C17.6978 19.1948 17.2482 18.6029 16.701 18.0913C16.9627 17.9724 17.2397 17.881 17.532 17.817C17.8245 17.7528 18.1265 17.7208 18.438 17.7208C19.6323 17.7208 20.6518 18.143 21.4963 18.9875C22.3408 19.8322 22.763 20.8516 22.763 22.0458H18.7675ZM2.01625 11.887L0.434753 9.77826L12 0.869507L15.8445 3.82051V1.96851H19.4805V6.61526L23.5653 9.77826L21.9838 11.887L12 4.20001L2.01625 11.887Z" fill="currentColor"/>
</svg>
