<svg width="24" height="24" viewBox="0 0 24 24" fill="none" xmlns="http://www.w3.org/2000/svg">
<path d="M5.16947 21.4805C4.43114 21.4805 3.80489 21.2234 3.29072 20.7093C2.77655 20.1951 2.51947 19.5689 2.51947 18.8305V5.16953C2.51947 4.4312 2.77655 3.80495 3.29072 3.29078C3.80489 2.77661 4.43114 2.51953 5.16947 2.51953H12.9575V5.16953H5.16947V18.8305H18.8305V11.0425H21.4805V18.8305C21.4805 19.5689 21.2234 20.1951 20.7092 20.7093C20.1951 21.2234 19.5688 21.4805 18.8305 21.4805H5.16947ZM5.99997 17H18L14.25 12L11.25 16L8.99997 13L5.99997 17ZM17.113 9.04253V6.88703H14.9575V4.67503H17.113V2.51953H19.325V4.67503H21.4805V6.88703H19.325V9.04253H17.113Z" fill="currentColor"/>
</svg>
