<svg width="24" height="24" viewBox="0 0 24 24" fill="none" xmlns="http://www.w3.org/2000/svg">
<path d="M2.51953 9.56528V3.29678H4.73153V5.91203C5.60253 4.8692 6.66445 4.04311 7.91728 3.43378C9.17028 2.82428 10.5312 2.51953 12 2.51953C14.2022 2.51953 16.1448 3.18386 17.8278 4.51253C19.5108 5.8412 20.6182 7.52545 21.15 9.56528H18.3675C17.8762 8.27111 17.0604 7.21495 15.92 6.39678C14.7799 5.57861 13.4733 5.16953 12.0003 5.16953C11.0124 5.16953 10.0883 5.36336 9.22778 5.75103C8.36728 6.1387 7.62503 6.67278 7.00103 7.35328H8.80228V9.56528H2.51953ZM5.75978 18.1695H18.2403L14.25 12.7175L11.25 16.7175L9.00003 13.7175L5.75978 18.1695ZM5.16953 22.4805C4.4312 22.4805 3.80495 22.2234 3.29078 21.7093C2.77661 21.1951 2.51953 20.5689 2.51953 19.8305V12.1695H5.16953V19.8305H18.8305V12.1695H21.4805V19.8305C21.4805 20.5689 21.2234 21.1951 20.7093 21.7093C20.1951 22.2234 19.5689 22.4805 18.8305 22.4805H5.16953Z" fill="currentColor"/>
</svg>
