<svg width="24" height="24" viewBox="0 0 24 24" fill="none" xmlns="http://www.w3.org/2000/svg">
<path d="M10.788 17.212H13.212V11H10.788V17.212ZM12 9.28253C12.3633 9.28253 12.6679 9.15961 12.9137 8.91378C13.1596 8.66795 13.2825 8.36336 13.2825 8.00003C13.2825 7.6367 13.1596 7.33211 12.9137 7.08628C12.6679 6.84045 12.3633 6.71753 12 6.71753C11.6366 6.71753 11.3321 6.84045 11.0862 7.08628C10.8404 7.33211 10.7175 7.6367 10.7175 8.00003C10.7175 8.36336 10.8404 8.66795 11.0862 8.91378C11.3321 9.15961 11.6366 9.28253 12 9.28253ZM12 22.4805C10.5413 22.4805 9.17539 22.2059 7.90222 21.6565C6.62922 21.1072 5.52189 20.3616 4.58022 19.4198C3.63839 18.4781 2.8928 17.3708 2.34347 16.0978C1.79414 14.8246 1.51947 13.4587 1.51947 12C1.51947 10.5414 1.79414 9.17545 2.34347 7.90228C2.8928 6.62928 3.63839 5.52195 4.58022 4.58028C5.52189 3.63845 6.62922 2.89286 7.90222 2.34353C9.17539 1.7942 10.5413 1.51953 12 1.51953C13.4586 1.51953 14.8246 1.7942 16.0977 2.34353C17.3707 2.89286 18.4781 3.63845 19.4197 4.58028C20.3616 5.52195 21.1071 6.62928 21.6565 7.90228C22.2058 9.17545 22.4805 10.5414 22.4805 12C22.4805 13.4587 22.2058 14.8246 21.6565 16.0978C21.1071 17.3708 20.3616 18.4781 19.4197 19.4198C18.4781 20.3616 17.3707 21.1072 16.0977 21.6565C14.8246 22.2059 13.4586 22.4805 12 22.4805Z" fill="currentColor"/>
</svg>
