<svg width="24" height="24" viewBox="0 0 24 24" fill="none" xmlns="http://www.w3.org/2000/svg">
<path d="M18.2543 13.3922V10.5055H15.3675V8.27924H18.2543V5.39224H20.4805V8.27924H23.3675V10.5055H20.4805V13.3922H18.2543ZM9.04251 11.7597C7.80118 11.7597 6.7441 11.3233 5.87126 10.4505C4.99843 9.57766 4.56201 8.52057 4.56201 7.27924C4.56201 6.0379 4.99843 4.98324 5.87126 4.11524C6.7441 3.24707 7.80118 2.81299 9.04251 2.81299C10.2837 2.81299 11.3407 3.24707 12.2135 4.11524C13.0863 4.98324 13.5228 6.0379 13.5228 7.27924C13.5228 8.52057 13.0863 9.57766 12.2135 10.4505C11.3407 11.3233 10.2837 11.7597 9.04251 11.7597ZM0.562012 20.7207V17.412C0.562012 16.7577 0.732262 16.1562 1.07276 15.6077C1.41343 15.0594 1.86601 14.6409 2.43051 14.3522C3.49201 13.8261 4.57476 13.4292 5.67876 13.1615C6.78276 12.8937 7.90401 12.7597 9.04251 12.7597C10.199 12.7597 11.3294 12.8912 12.4338 13.1542C13.5381 13.4174 14.6116 13.812 15.6543 14.338C16.2188 14.6253 16.6713 15.0419 17.012 15.5877C17.3525 16.1336 17.5228 16.7414 17.5228 17.4112V20.7207H0.562012Z" fill="currentColor"/>
</svg>
