<svg width="24" height="24" viewBox="0 0 24 24" fill="none" xmlns="http://www.w3.org/2000/svg">
<path d="M8.99999 21.4523L7.12274 19.6L8.41199 18.3111H8.33574C6.4329 18.2074 4.84707 17.4457 3.57824 16.0261C2.3094 14.6066 1.67499 12.9312 1.67499 11C1.67499 8.96522 2.38715 7.23572 3.81149 5.81155C5.23565 4.38722 6.96515 3.67505 8.99999 3.67505H15C17.0348 3.67505 18.7643 4.38722 20.1885 5.81155C21.6128 7.23572 22.325 8.96522 22.325 11C22.325 13.0254 21.6341 14.7526 20.2522 16.1816C18.8702 17.6105 17.176 18.3251 15.1695 18.3251V15.675C16.4303 15.675 17.4965 15.2158 18.368 14.2973C19.2393 13.3788 19.675 12.2797 19.675 11C19.675 9.70155 19.2205 8.59772 18.3115 7.68855C17.4023 6.77955 16.2985 6.32505 15 6.32505H8.99999C7.70149 6.32505 6.59765 6.77955 5.68849 7.68855C4.77949 8.59772 4.32499 9.70155 4.32499 11C4.32499 12.1667 4.69474 13.194 5.43424 14.082C6.17374 14.97 7.11265 15.5065 8.25099 15.6913H8.42499L7.13374 14.4001L8.99999 12.5338L13.4662 16.9858L8.99999 21.4523Z" fill="currentColor"/>
</svg>
