<svg width="24" height="24" viewBox="0 0 24 24" fill="none" xmlns="http://www.w3.org/2000/svg">
<path d="M6.88701 21.65V19H10.675V16.4795C9.85835 16.2678 9.1221 15.9125 8.46626 15.4135C7.81043 14.9146 7.30901 14.2866 6.96201 13.5295C5.48585 13.5113 4.23976 12.9607 3.22376 11.8777C2.20793 10.7947 1.70001 9.50214 1.70001 7.99998V6.99998C1.70001 6.26164 1.9571 5.63539 2.47126 5.12123C2.98526 4.60706 3.61151 4.34998 4.35001 4.34998H6.35001V2.34998H17.65V4.34998H19.65C20.3885 4.34998 21.0148 4.60706 21.5288 5.12123C22.0429 5.63539 22.3 6.26164 22.3 6.99998V7.99998C22.3 9.50214 21.7921 10.7947 20.7763 11.8777C19.7603 12.9607 18.5142 13.5113 17.038 13.5295C16.691 14.2866 16.1896 14.9146 15.5338 15.4135C14.8779 15.9125 14.1417 16.2678 13.325 16.4795V19H17.113V21.65H6.88701ZM6.35001 10.8V6.99998H4.35001V7.99998C4.35001 8.63331 4.53335 9.20414 4.90001 9.71248C5.26668 10.2208 5.75001 10.5833 6.35001 10.8ZM17.65 10.8C18.25 10.5833 18.7333 10.2208 19.1 9.71248C19.4667 9.20414 19.65 8.63331 19.65 7.99998V6.99998H17.65V10.8Z" fill="currentColor"/>
</svg>
