<svg width="24" height="24" viewBox="0 0 24 24" fill="none" xmlns="http://www.w3.org/2000/svg">
<path d="M15.0183 16.7323L12.3398 19.4108C11.2676 20.483 9.97585 21.0192 8.46464 21.0193C6.95344 21.0194 5.66185 20.4835 4.58987 19.4115C3.51802 18.3397 2.98185 17.0478 2.98138 15.5361C2.98103 14.0244 3.51696 12.7324 4.58917 11.6602L7.26769 8.9817L9.14152 10.8555L6.46724 13.5298C5.91016 14.0869 5.6312 14.755 5.63038 15.5341C5.62956 16.3135 5.90709 16.9811 6.463 17.537C7.0189 18.0929 7.68653 18.3704 8.46588 18.3696C9.24499 18.3688 9.91309 18.0898 10.4702 17.5327L13.1445 14.8585L15.0183 16.7323ZM9.72877 15.8452L8.15475 14.2712L14.2712 8.15474L15.8452 9.72876L9.72877 15.8452ZM16.7323 15.0183L14.8585 13.1444L17.5328 10.4702C18.0898 9.91308 18.3688 9.24498 18.3696 8.46587C18.3704 7.68652 18.0929 7.01889 17.537 6.46299C16.9811 5.90709 16.3135 5.62955 15.5341 5.63037C14.755 5.6312 14.0869 5.91015 13.5298 6.46723L10.8555 9.14151L8.98171 7.26768L11.6602 4.58916C12.7324 3.51695 14.0242 2.98078 15.5354 2.98066C17.0466 2.98055 18.3381 3.51648 19.4101 4.58845C20.482 5.66031 21.0181 6.95213 21.0186 8.46392C21.019 9.9756 20.483 11.2675 19.4108 12.3398L16.7323 15.0183Z" fill="currentColor"/>
</svg>
