<svg width="24" height="24" viewBox="0 0 24 24" fill="none" xmlns="http://www.w3.org/2000/svg">
<path d="M5.16953 21.4805C4.4312 21.4805 3.80495 21.2234 3.29078 20.7093C2.77661 20.1951 2.51953 19.5689 2.51953 18.8305V15.325H5.16953V18.8305H18.8305V5.16953H5.16953V8.67503H2.51953V5.16953C2.51953 4.4312 2.77661 3.80495 3.29078 3.29078C3.80495 2.77661 4.4312 2.51953 5.16953 2.51953H18.8305C19.5689 2.51953 20.1951 2.77661 20.7093 3.29078C21.2234 3.80495 21.4805 4.4312 21.4805 5.16953V18.8305C21.4805 19.5689 21.2234 20.1951 20.7093 20.7093C20.1951 21.2234 19.5689 21.4805 18.8305 21.4805H5.16953ZM10.7543 17.5653L8.90228 15.6773L11.2543 13.325H2.51953V10.675H11.2543L8.90228 8.32278L10.7543 6.43478L16.3195 12L10.7543 17.5653Z" fill="currentColor"/>
</svg>
