<svg width="24" height="24" viewBox="0 0 24 24" fill="none" xmlns="http://www.w3.org/2000/svg">
<g clip-path="url(#clip0_168_66)">
<path d="M-0.225952 18.2259V16.4249C-0.225952 15.6329 0.164215 14.9931 0.944548 14.5054C1.72505 14.0178 2.74355 13.7739 4.00005 13.7739C4.14138 13.7739 4.27196 13.7757 4.3918 13.7792C4.5118 13.7829 4.63521 13.7919 4.76205 13.8064C4.50038 14.1941 4.30655 14.6025 4.18055 15.0317C4.05438 15.4607 3.9913 15.9084 3.9913 16.3749V18.2259H-0.225952ZM5.77405 18.2259V16.3749C5.77405 15.8133 5.92221 15.2952 6.21855 14.8207C6.51488 14.346 6.94388 13.9326 7.50555 13.5804C8.06705 13.2283 8.73046 12.9641 9.4958 12.7879C10.261 12.6119 11.0955 12.5239 11.9995 12.5239C12.9209 12.5239 13.7618 12.6119 14.5223 12.7879C15.2828 12.9641 15.9439 13.2283 16.5055 13.5804C17.067 13.9326 17.4942 14.346 17.787 14.8207C18.0797 15.2952 18.226 15.8133 18.226 16.3749V18.2259H5.77405ZM20.0088 18.2259V16.3749C20.0088 15.8909 19.9475 15.4349 19.825 15.0069C19.7025 14.5789 19.5189 14.1788 19.274 13.8064C19.4009 13.7919 19.523 13.7829 19.6403 13.7792C19.7576 13.7757 19.8775 13.7739 20 13.7739C21.2679 13.7739 22.2892 14.0154 23.064 14.4982C23.8387 14.981 24.226 15.6233 24.226 16.4249V18.2259H20.0088ZM4.0013 12.8304C3.4128 12.8304 2.90855 12.621 2.48855 12.2022C2.06871 11.7832 1.8588 11.2796 1.8588 10.6914C1.8588 10.0854 2.06821 9.57669 2.48705 9.16519C2.90588 8.75353 3.40938 8.54769 3.99755 8.54769C4.60355 8.54769 5.11238 8.75278 5.52405 9.16294C5.93555 9.57311 6.1413 10.0814 6.1413 10.6877C6.1413 11.2764 5.93621 11.7806 5.52605 12.2004C5.11588 12.6204 4.60763 12.8304 4.0013 12.8304ZM20.0013 12.8304C19.4128 12.8304 18.9085 12.621 18.4885 12.2022C18.0687 11.7832 17.8588 11.2796 17.8588 10.6914C17.8588 10.0854 18.0682 9.57669 18.487 9.16519C18.9059 8.75353 19.4094 8.54769 19.9975 8.54769C20.6035 8.54769 21.1124 8.75278 21.524 9.16294C21.9355 9.57311 22.1413 10.0814 22.1413 10.6877C22.1413 11.2764 21.9362 11.7806 21.526 12.2004C21.1159 12.6204 20.6076 12.8304 20.0013 12.8304ZM12 11.7879C11.1039 11.7879 10.3421 11.4743 9.7148 10.8469C9.08763 10.2198 8.77405 9.45811 8.77405 8.56194C8.77405 7.65544 9.08763 6.89111 9.7148 6.26894C10.3421 5.64678 11.1039 5.33569 12 5.33569C12.9065 5.33569 13.6709 5.64678 14.293 6.26894C14.915 6.89111 15.226 7.65544 15.226 8.56194C15.226 9.45811 14.915 10.2198 14.293 10.8469C13.6709 11.4743 12.9065 11.7879 12 11.7879Z" fill="currentColor"/>
</g>
<defs>
<clipPath id="clip0_168_66">
<rect width="24" height="24" fill="currentColor"/>
</clipPath>
</defs>
</svg>
