<svg width="24" height="24" viewBox="0 0 24 24" fill="none" xmlns="http://www.w3.org/2000/svg">
<path d="M5.56801 14.212C4.95751 14.212 4.43517 13.9954 4.00101 13.5622C3.56701 13.129 3.35001 12.6083 3.35001 12C3.35001 11.384 3.56659 10.8613 3.99976 10.432C4.43292 10.0026 4.95367 9.78796 5.56201 9.78796C6.17417 9.78796 6.69817 10.0026 7.13401 10.432C7.57001 10.8613 7.78801 11.3816 7.78801 11.993C7.78801 12.6041 7.57067 13.1268 7.13601 13.561C6.70117 13.995 6.17851 14.212 5.56801 14.212ZM12.007 14.212C11.3958 14.212 10.8732 13.9954 10.439 13.5622C10.005 13.129 9.78801 12.6083 9.78801 12C9.78801 11.384 10.0046 10.8613 10.4378 10.432C10.8709 10.0026 11.3917 9.78796 12 9.78796C12.616 9.78796 13.1387 10.0026 13.568 10.432C13.9973 10.8613 14.212 11.3816 14.212 11.993C14.212 12.6041 13.9973 13.1268 13.568 13.561C13.1387 13.995 12.6183 14.212 12.007 14.212ZM18.442 14.212C17.8288 14.212 17.3038 13.9954 16.867 13.5622C16.4303 13.129 16.212 12.6083 16.212 12C16.212 11.384 16.4303 10.8613 16.867 10.432C17.3038 10.0026 17.8288 9.78796 18.442 9.78796C19.0553 9.78796 19.5767 10.0026 20.006 10.432C20.4353 10.8613 20.65 11.3816 20.65 11.993C20.65 12.6041 20.4353 13.1268 20.006 13.561C19.5767 13.995 19.0553 14.212 18.442 14.212Z" fill="currentColor"/>
</svg>
