<svg width="24" height="24" viewBox="0 0 24 24" fill="none" xmlns="http://www.w3.org/2000/svg">
<path d="M12.007 20.65C11.3959 20.65 10.8732 20.4334 10.439 20.0002C10.005 19.5671 9.78802 19.0463 9.78802 18.438C9.78802 17.8258 10.0046 17.3018 10.4378 16.866C10.8709 16.43 11.3917 16.212 12 16.212C12.616 16.212 13.1387 16.4293 13.568 16.864C13.9974 17.2988 14.212 17.8215 14.212 18.432C14.212 19.0425 13.9974 19.5648 13.568 19.999C13.1387 20.433 12.6184 20.65 12.007 20.65ZM12.007 14.212C11.3959 14.212 10.8732 13.9954 10.439 13.5622C10.005 13.1291 9.78802 12.6083 9.78802 12C9.78802 11.384 10.0046 10.8613 10.4378 10.432C10.8709 10.0026 11.3917 9.78798 12 9.78798C12.616 9.78798 13.1387 10.0026 13.568 10.432C13.9974 10.8613 14.212 11.3816 14.212 11.993C14.212 12.6041 13.9974 13.1268 13.568 13.561C13.1387 13.995 12.6184 14.212 12.007 14.212ZM12.007 7.78798C11.3959 7.78798 10.8732 7.56964 10.439 7.13298C10.005 6.69614 9.78802 6.17114 9.78802 5.55798C9.78802 4.94464 10.0046 4.42331 10.4378 3.99398C10.8709 3.56464 11.3917 3.34998 12 3.34998C12.616 3.34998 13.1387 3.56464 13.568 3.99398C13.9974 4.42331 14.212 4.94464 14.212 5.55798C14.212 6.17114 13.9974 6.69614 13.568 7.13298C13.1387 7.56964 12.6184 7.78798 12.007 7.78798Z" fill="currentColor"/>
</svg>
