<svg width="24" height="24" viewBox="0 0 24 24" fill="none" xmlns="http://www.w3.org/2000/svg">
<path d="M5.56798 14.212C4.95748 14.212 4.43514 13.9954 4.00098 13.5622C3.56698 13.129 3.34998 12.6083 3.34998 12C3.34998 11.384 3.56656 10.8613 3.99973 10.432C4.43289 10.0026 4.95364 9.78796 5.56198 9.78796C6.17414 9.78796 6.69814 10.0026 7.13398 10.432C7.56998 10.8613 7.78798 11.3816 7.78798 11.993C7.78798 12.6041 7.57064 13.1268 7.13598 13.561C6.70114 13.995 6.17848 14.212 5.56798 14.212ZM12.007 14.212C11.3958 14.212 10.8731 13.9954 10.439 13.5622C10.005 13.129 9.78798 12.6083 9.78798 12C9.78798 11.384 10.0046 10.8613 10.4377 10.432C10.8709 10.0026 11.3916 9.78796 12 9.78796C12.616 9.78796 13.1386 10.0026 13.568 10.432C13.9973 10.8613 14.212 11.3816 14.212 11.993C14.212 12.6041 13.9973 13.1268 13.568 13.561C13.1386 13.995 12.6183 14.212 12.007 14.212ZM18.442 14.212C17.8288 14.212 17.3038 13.9954 16.867 13.5622C16.4303 13.129 16.212 12.6083 16.212 12C16.212 11.384 16.4303 10.8613 16.867 10.432C17.3038 10.0026 17.8288 9.78796 18.442 9.78796C19.0553 9.78796 19.5766 10.0026 20.006 10.432C20.4353 10.8613 20.65 11.3816 20.65 11.993C20.65 12.6041 20.4353 13.1268 20.006 13.561C19.5766 13.995 19.0553 14.212 18.442 14.212Z" fill="currentColor"/>
</svg>
