<svg width="24" height="24" viewBox="0 0 24 24" fill="none" xmlns="http://www.w3.org/2000/svg">
<path d="M3.51953 19.4805V16.8305H5.35003V10.311C5.35003 8.8052 5.79261 7.45586 6.67778 6.26303C7.56295 5.07036 8.7287 4.2932 10.175 3.93153V3.34453C10.175 2.8377 10.3524 2.40678 10.7073 2.05178C11.0621 1.69695 11.493 1.51953 12 1.51953C12.507 1.51953 12.9379 1.69695 13.2928 2.05178C13.6476 2.40678 13.825 2.8377 13.825 3.34453V3.93153C15.2809 4.2932 16.449 5.06803 17.3295 6.25603C18.2099 7.44403 18.65 8.7957 18.65 10.311V16.8305H20.4805V19.4805H3.51953ZM12.0143 22.636C11.4176 22.636 10.9068 22.4249 10.4818 22.0028C10.0569 21.5806 9.84453 21.0732 9.84453 20.4805H14.1695C14.1695 21.0775 13.9585 21.586 13.5365 22.006C13.1144 22.426 12.6069 22.636 12.0143 22.636Z" fill="currentColor"/>
</svg>
