<svg width="24" height="24" viewBox="0 0 24 24" fill="none" xmlns="http://www.w3.org/2000/svg">
<path d="M2.85876 22.4805V20.6978H5.35876V20.0893H3.85876V18.5893H5.35876V17.9805H2.85876V16.1978H6.00001C6.32335 16.1978 6.59443 16.3072 6.81326 16.526C7.03193 16.7447 7.14126 17.0158 7.14126 17.3393V18.1978C7.14126 18.5213 7.03193 18.7924 6.81326 19.011C6.59443 19.2299 6.32335 19.3393 6.00001 19.3393C6.32335 19.3393 6.59443 19.4486 6.81326 19.6673C7.03193 19.8861 7.14126 20.1572 7.14126 20.4805V21.3393C7.14126 21.6626 7.03193 21.9336 6.81326 22.1523C6.59443 22.3711 6.32335 22.4805 6.00001 22.4805H2.85876ZM2.85876 15.1413V12.3913C2.85876 12.0679 2.9681 11.7969 3.18676 11.5783C3.4056 11.3594 3.67668 11.25 4.00001 11.25H5.35876V10.6413H2.85876V8.85878H6.00001C6.32335 8.85878 6.59443 8.96811 6.81326 9.18678C7.03193 9.40561 7.14126 9.6767 7.14126 10V11.6088C7.14126 11.9321 7.03193 12.2031 6.81326 12.4218C6.59443 12.6406 6.32335 12.75 6.00001 12.75H4.64126V13.3588H7.14126V15.1413H2.85876ZM4.35876 7.80228V3.16078H2.85876V1.51953H6.14126V7.80228H4.35876ZM9.14126 19.325V16.675H21.4805V19.325H9.14126ZM9.14126 13.325V10.675H21.4805V13.325H9.14126ZM9.14126 7.32503V4.67503H21.4805V7.32503H9.14126Z" fill="currentColor"/>
</svg>
