<svg width="24" height="24" viewBox="0 0 24 24" fill="none" xmlns="http://www.w3.org/2000/svg">
<path d="M0.562012 20.7208V17.412C0.562012 16.7577 0.732262 16.1563 1.07276 15.6078C1.41343 15.0595 1.86601 14.641 2.43051 14.3523C3.49201 13.8261 4.57476 13.4292 5.67876 13.1615C6.78276 12.8937 7.90401 12.7598 9.04251 12.7598C10.199 12.7598 11.3294 12.8913 12.4338 13.1543C13.5381 13.4175 14.6116 13.812 15.6543 14.338C16.2188 14.6254 16.6713 15.042 17.012 15.5878C17.3525 16.1336 17.5228 16.7415 17.5228 17.4113V20.7208H0.562012ZM19.7348 20.7208V17.2543C19.7348 16.4833 19.5353 15.7368 19.1365 15.0148C18.7375 14.2926 18.1489 13.6192 17.3708 12.9945C18.1171 13.1134 18.8276 13.2865 19.5023 13.514C20.1769 13.7417 20.8203 14.0164 21.4325 14.338C22.0703 14.6714 22.564 15.0955 22.9135 15.6103C23.2632 16.1251 23.438 16.6873 23.438 17.2968V20.7208H19.7348ZM9.04251 11.7598C7.86701 11.7598 6.86643 11.347 6.04076 10.5213C5.2151 9.69546 4.80226 8.69488 4.80226 7.51955C4.80226 6.34421 5.2151 5.34371 6.04076 4.51805C6.86643 3.69221 7.86701 3.2793 9.04251 3.2793C10.2178 3.2793 11.2183 3.69221 12.044 4.51805C12.8697 5.34371 13.2825 6.34421 13.2825 7.51955C13.2825 8.69488 12.8697 9.69546 12.044 10.5213C11.2183 11.347 10.2178 11.7598 9.04251 11.7598ZM19.7348 7.51955C19.7348 8.68555 19.3198 9.68371 18.49 10.514C17.66 11.3445 16.6623 11.7598 15.4968 11.7598C15.3026 11.7598 15.0685 11.7366 14.7945 11.6903C14.5207 11.644 14.2733 11.5864 14.0523 11.5175C14.5211 10.9652 14.8787 10.346 15.125 9.6598C15.3713 8.97346 15.4945 8.2608 15.4945 7.5218C15.4945 6.78263 15.3713 6.06921 15.125 5.38155C14.8787 4.69388 14.5211 4.07396 14.0523 3.5218C14.2949 3.42896 14.5329 3.36538 14.7663 3.33105C14.9996 3.29655 15.2402 3.2793 15.488 3.2793C16.6558 3.2793 17.6556 3.69446 18.4873 4.5248C19.3189 5.35513 19.7348 6.35338 19.7348 7.51955ZM3.21201 18.0708H14.8728V17.4825C14.8728 17.3084 14.8269 17.15 14.7353 17.0075C14.6436 16.865 14.5228 16.7542 14.3728 16.675C13.5293 16.2627 12.6633 15.9488 11.775 15.7333C10.8867 15.5176 9.97585 15.4098 9.04251 15.4098C8.12801 15.4098 7.2171 15.5176 6.30976 15.7333C5.4026 15.9488 4.53668 16.2627 3.71201 16.675C3.56201 16.7542 3.44118 16.865 3.34951 17.0075C3.25785 17.15 3.21201 17.3084 3.21201 17.4825V18.0708ZM9.04026 9.3218C9.53509 9.3218 9.95951 9.14555 10.3135 8.79305C10.6675 8.44055 10.8445 8.0168 10.8445 7.5218C10.8445 7.0268 10.6683 6.6023 10.3158 6.2483C9.96326 5.89446 9.53959 5.71755 9.04476 5.71755C8.54976 5.71755 8.12526 5.89371 7.77126 6.24605C7.41726 6.59855 7.24026 7.0223 7.24026 7.5173C7.24026 8.0123 7.41651 8.4368 7.76901 8.7908C8.12151 9.1448 8.54526 9.3218 9.04026 9.3218Z" fill="currentColor"/>
</svg>
