<svg width="24" height="24" viewBox="0 0 24 24" fill="none" xmlns="http://www.w3.org/2000/svg">
<path d="M11 21.2543C9.69353 21.2543 8.46378 21.0068 7.31078 20.512C6.15795 20.017 5.15203 19.3423 4.29303 18.488C3.43386 17.6337 2.75686 16.6301 2.26203 15.4773C1.76703 14.3243 1.51953 13.0945 1.51953 11.788C1.51953 10.4815 1.76703 9.25185 2.26203 8.09901C2.75686 6.94601 3.43386 5.94001 4.29303 5.08101C5.15203 4.22185 6.15795 3.54485 7.31078 3.05001C8.46378 2.55501 9.69353 2.30751 11 2.30751C11.35 2.30751 11.6875 2.32368 12.0125 2.35601C12.3375 2.38818 12.6667 2.44593 13 2.52926V5.27176C12.6667 5.15293 12.3375 5.07085 12.0125 5.02551C11.6875 4.98018 11.35 4.95751 11 4.95751C9.08986 4.95751 7.47395 5.61843 6.15228 6.94026C4.83045 8.26193 4.16953 9.87785 4.16953 11.788C4.16953 13.6982 4.83045 15.3118 6.15228 16.6288C7.47395 17.9458 9.08986 18.6043 11 18.6043C12.9102 18.6043 14.5261 17.9463 15.8478 16.6305C17.1696 15.3145 17.8305 13.698 17.8305 11.781C17.8305 11.6023 17.8234 11.438 17.809 11.288C17.7947 11.138 17.7732 10.9713 17.7445 10.788H20.4305C20.4639 10.9713 20.4805 11.138 20.4805 11.288V11.788C20.4805 13.0945 20.233 14.3243 19.738 15.4773C19.2432 16.6301 18.5662 17.6337 17.707 18.488C16.848 19.3423 15.8421 20.017 14.6893 20.512C13.5363 21.0068 12.3065 21.2543 11 21.2543ZM13.687 16.087L9.88703 12.287V6.78801H12.113V11.388L15.2565 14.5315L13.687 16.087ZM18 8.78801V5.78801H15V3.56201H18V0.562012H20.212V3.56201H23.212V5.78801H20.212V8.78801H18Z" fill="currentColor"/>
</svg>
