<svg width="24" height="24" viewBox="0 0 24 24" fill="none" xmlns="http://www.w3.org/2000/svg">
<path d="M5.65224 11.5227L12 1.13794L18.3477 11.5227H5.65224ZM17.8932 22.8619C16.5129 22.8619 15.3382 22.3789 14.369 21.4127C13.3998 20.4465 12.9152 19.2734 12.9152 17.8932C12.9152 16.5129 13.3992 15.3381 14.3672 14.3689C15.3354 13.3998 16.511 12.9152 17.894 12.9152C19.277 12.9152 20.4507 13.3992 21.4152 14.3672C22.3797 15.3354 22.862 16.5109 22.862 17.8939C22.862 19.2769 22.3789 20.4507 21.4127 21.4152C20.4466 22.3797 19.2734 22.8619 17.8932 22.8619ZM1.91199 22.3619V13.4152H10.8727V22.3619H1.91199ZM17.8957 20.2119C18.5392 20.2119 19.0862 19.9868 19.5365 19.5364C19.9868 19.0861 20.212 18.5392 20.212 17.8957C20.212 17.2522 19.9868 16.7029 19.5365 16.2477C19.0862 15.7927 18.5392 15.5652 17.8957 15.5652C17.2522 15.5652 16.7029 15.7927 16.2477 16.2477C15.7927 16.7029 15.5652 17.2522 15.5652 17.8957C15.5652 18.5392 15.7927 19.0861 16.2477 19.5364C16.7029 19.9868 17.2522 20.2119 17.8957 20.2119ZM4.56199 19.7119H8.22274V16.0652H4.56199V19.7119ZM10.375 8.87269H13.625L12 6.21744L10.375 8.87269Z" fill="currentColor"/>
</svg>
