<svg width="24" height="24" viewBox="0 0 24 24" fill="none" xmlns="http://www.w3.org/2000/svg">
<path d="M20.701 23.5968L17.8217 20.7315C16.9816 21.2969 16.0757 21.7297 15.1042 22.03C14.1329 22.3304 13.1047 22.4805 12.0195 22.4805C10.5667 22.4805 9.20366 22.2063 7.9305 21.6578C6.65733 21.1091 5.54716 20.3613 4.6 19.4143C3.65283 18.4671 2.905 17.3567 2.3565 16.083C1.808 14.8092 1.53375 13.4482 1.53375 12C1.53375 10.9094 1.68483 9.87578 1.987 8.89928C2.28916 7.92295 2.721 7.01595 3.2825 6.17828L0.604248 3.50003L2.17075 1.93378L22.2675 22.0305L20.701 23.5968ZM11.0282 19.7805V17.8445C10.4877 17.8445 10.0262 17.6534 9.64375 17.271C9.26141 16.8885 9.07025 16.4288 9.07025 15.8918V14.9153L4.38375 10.2283C4.33375 10.5189 4.28791 10.8095 4.24625 11.1C4.20458 11.3905 4.18375 11.6832 4.18375 11.978C4.18375 13.9592 4.83208 15.6947 6.12875 17.1845C7.42558 18.6745 9.05875 19.5399 11.0282 19.7805ZM20.887 17.5315L18.9425 15.587C19.225 15.0294 19.4436 14.4454 19.5982 13.835C19.7531 13.2247 19.8305 12.6036 19.8305 11.9718C19.8305 10.3774 19.3904 8.92145 18.5102 7.60378C17.6302 6.28611 16.446 5.3367 14.9575 4.75553V5.12728C14.9575 5.66561 14.7617 6.12645 14.37 6.50978C13.9783 6.89311 13.5122 7.08478 12.9717 7.08478H11.0847V7.72928L6.4825 3.11303C7.29083 2.61403 8.15808 2.2237 9.08425 1.94203C10.0104 1.66036 10.9871 1.51953 12.0142 1.51953C13.4589 1.51953 14.8167 1.79378 16.0875 2.34228C17.3582 2.89095 18.4671 3.63878 19.4142 4.58578C20.3612 5.53295 21.1091 6.64336 21.6577 7.91703C22.2062 9.19086 22.4805 10.5519 22.4805 12C22.4805 13.0272 22.3397 14.0039 22.058 14.93C21.7763 15.8562 21.386 16.7234 20.887 17.5315Z" fill="currentColor"/>
</svg>
