<svg width="24" height="24" viewBox="0 0 24 24" fill="none" xmlns="http://www.w3.org/2000/svg">
<path d="M14.588 19.8033H2.69673C2.39673 19.8033 2.13807 19.6946 1.92073 19.4773C1.70323 19.2598 1.59448 19.001 1.59448 18.701C1.59448 18.1439 1.5999 17.633 1.61073 17.1685C1.62173 16.704 1.64282 16.2855 1.67398 15.913H9.97598C11.258 15.913 12.3526 15.4599 13.2597 14.5538C14.1671 13.6476 14.6207 12.5369 14.6207 11.2218C14.6207 10.2681 14.3526 9.40069 13.8162 8.61953C13.2801 7.83836 12.5696 7.26703 11.6847 6.90553L8.44773 5.60878C9.35723 5.14644 10.3007 4.79553 11.2782 4.55603C12.2557 4.31653 13.259 4.19678 14.288 4.19678C16.525 4.19678 18.4395 4.94819 20.0315 6.45103C21.6235 7.95403 22.4195 9.80369 22.4195 12C22.4195 14.187 21.661 16.0343 20.144 17.5418C18.627 19.0494 16.775 19.8033 14.588 19.8033ZM2.11198 13.288C2.44532 12.18 2.93223 11.1194 3.57273 10.106C4.2134 9.09253 4.97898 8.18578 5.86948 7.38578L10.6945 9.35228C11.0996 9.51678 11.4154 9.76819 11.6417 10.1065C11.8682 10.445 11.9815 10.8168 11.9815 11.2218C11.9815 11.8079 11.7855 12.2989 11.3935 12.6945C11.0015 13.0902 10.5123 13.288 9.92598 13.288H2.11198Z" fill="currentColor"/>
</svg>
