<svg width="24" height="24" viewBox="0 0 24 24" fill="none" xmlns="http://www.w3.org/2000/svg">
<path d="M12.0142 22.4805C10.5659 22.4805 9.20486 22.2063 7.93119 21.6578C6.65752 21.1091 5.54711 20.3613 4.59994 19.4143C3.65277 18.4671 2.90494 17.3565 2.35644 16.0825C1.80794 14.8085 1.53369 13.4473 1.53369 11.9988C1.53369 10.5503 1.80794 9.18945 2.35644 7.91628C2.90494 6.64311 3.65277 5.53295 4.59994 4.58578C5.54711 3.63878 6.65761 2.89095 7.93144 2.34228C9.20544 1.79378 10.5667 1.51953 12.0152 1.51953C13.4637 1.51953 14.8222 1.79378 16.0907 2.34228C17.3592 2.89095 18.467 3.63878 19.4142 4.58578C20.3612 5.53295 21.109 6.64353 21.6577 7.91753C22.2062 9.19153 22.4804 10.5528 22.4804 12.0013C22.4804 13.4498 22.2062 14.8106 21.6577 16.0838C21.109 17.3569 20.3612 18.4671 19.4142 19.4143C18.467 20.3613 17.3581 21.1091 16.0874 21.6578C14.8166 22.2063 13.4589 22.4805 12.0142 22.4805ZM11.0282 19.7805V17.8445C10.4877 17.8445 10.0262 17.6534 9.64369 17.271C9.26136 16.8885 9.07019 16.4288 9.07019 15.8918V14.9153L4.38369 10.2283C4.33369 10.5189 4.28786 10.8095 4.24619 11.1C4.20452 11.3905 4.18369 11.6832 4.18369 11.978C4.18369 13.9592 4.83202 15.6947 6.12869 17.1845C7.42552 18.6745 9.05869 19.5399 11.0282 19.7805ZM17.7869 17.287C18.4514 16.5559 18.9581 15.7339 19.3069 14.821C19.6559 13.9084 19.8304 12.9586 19.8304 11.9718C19.8304 10.3774 19.3904 8.92145 18.5102 7.60378C17.6302 6.28611 16.4459 5.3367 14.9574 4.75553V5.12728C14.9574 5.66561 14.7616 6.12645 14.3699 6.50978C13.9783 6.89311 13.5144 7.08478 12.9782 7.08478H11.0282V9.03828C11.0282 9.31495 10.9324 9.54911 10.7407 9.74078C10.549 9.93245 10.3149 10.0283 10.0382 10.0283H8.08469V11.9718H13.9659C14.2436 11.9718 14.4783 12.0676 14.6699 12.2593C14.8616 12.4509 14.9574 12.6849 14.9574 12.9613V15.887H15.9152C16.3485 15.887 16.7362 16.0162 17.0782 16.2745C17.4204 16.5329 17.6566 16.8704 17.7869 17.287Z" fill="currentColor"/>
</svg>
