<svg width="24" height="24" viewBox="0 0 24 24" fill="none" xmlns="http://www.w3.org/2000/svg">
<path d="M12 17.325C12.3434 17.325 12.6312 17.2089 12.8635 16.9765C13.0959 16.7444 13.212 16.4565 13.212 16.113C13.212 15.7732 13.0959 15.4839 12.8635 15.245C12.6312 15.0064 12.3434 14.887 12 14.887C11.6567 14.887 11.3689 15.0064 11.1365 15.245C10.9042 15.4839 10.788 15.7732 10.788 16.113C10.788 16.4529 10.9042 16.7399 11.1365 16.974C11.3689 17.208 11.6567 17.325 12 17.325ZM10.887 13.3958H13.113V6.74578H10.887V13.3958ZM8.05228 21.4805L2.51953 15.9513V8.05228L8.04878 2.51953H15.9478L21.4805 8.04878V15.9478L15.9513 21.4805H8.05228ZM9.17003 18.8305H14.8293L18.8305 14.83V9.17078L14.83 5.16953H9.17078L5.16953 9.17003V14.8293L9.17003 18.8305Z" fill="currentColor"/>
</svg>
