<svg width="24" height="24" viewBox="0 0 24 24" fill="none" xmlns="http://www.w3.org/2000/svg">
<path d="M7.05098 21.226C5.47164 21.226 4.12664 20.6707 3.01598 19.56C1.90531 18.4494 1.34998 17.1044 1.34998 15.525C1.34998 14.0187 1.85739 12.7182 2.87223 11.6235C3.88706 10.5289 5.14881 9.93263 6.65748 9.8348L2.63248 1.77405H10.1412L12 5.4913L13.8587 1.77405H21.3675L17.3675 9.7848C18.8688 9.8993 20.1246 10.5039 21.1347 11.5985C22.1449 12.6932 22.65 13.9937 22.65 15.5C22.65 17.0899 22.0931 18.4417 20.9795 19.5555C19.8656 20.6692 18.5138 21.226 16.924 21.226C16.7315 21.226 16.5337 21.2149 16.3307 21.1925C16.1276 21.17 15.9275 21.1374 15.7305 21.0945C16.7225 20.5417 17.4697 19.7587 17.9722 18.7455C18.4747 17.7322 18.726 16.6504 18.726 15.5C18.726 13.6269 18.0733 12.0375 16.768 10.732C15.4625 9.42671 13.8731 8.77405 12 8.77405C10.1268 8.77405 8.53748 9.42671 7.23198 10.732C5.92664 12.0375 5.27398 13.628 5.27398 15.5033C5.27398 16.6721 5.51431 17.773 5.99498 18.806C6.47581 19.839 7.23039 20.6019 8.25873 21.0945C8.06156 21.1467 7.85981 21.1817 7.65348 21.1995C7.44731 21.2172 7.24648 21.226 7.05098 21.226ZM12 20.226C10.6935 20.226 9.57914 19.765 8.65698 18.843C7.73498 17.9209 7.27398 16.8065 7.27398 15.5C7.27398 14.1935 7.73498 13.0792 8.65698 12.157C9.57914 11.235 10.6935 10.774 12 10.774C13.3065 10.774 14.4208 11.235 15.343 12.157C16.265 13.0792 16.726 14.1935 16.726 15.5C16.726 16.8065 16.265 17.9209 15.343 18.843C14.4208 19.765 13.3065 20.226 12 20.226ZM10.2207 18.137L12 16.7793L13.7792 18.137L13.1075 15.9468L14.887 14.6783H12.6977L12 12.363L11.3022 14.6783H9.11298L10.8925 15.9468L10.2207 18.137Z" fill="currentColor"/>
</svg>
