<svg width="24" height="24" viewBox="0 0 24 24" fill="none" xmlns="http://www.w3.org/2000/svg">
<path d="M11.95 19.9435C13.1152 19.9435 14.1093 19.5318 14.9325 18.7085C15.7558 17.8853 16.1675 16.8912 16.1675 15.726C16.1675 14.5608 15.7558 13.5667 14.9325 12.7435C14.1093 11.9202 13.1152 11.5085 11.95 11.5085C10.7848 11.5085 9.79066 11.9202 8.96749 12.7435C8.14416 13.5667 7.73249 14.5608 7.73249 15.726C7.73249 16.8912 8.14416 17.8853 8.96749 18.7085C9.79066 19.5318 10.7848 19.9435 11.95 19.9435ZM9.18049 9.601C9.43849 9.47417 9.70549 9.37075 9.98149 9.29075C10.2577 9.21058 10.5402 9.14917 10.8292 9.1065L8.53049 4.5085H6.65224L9.18049 9.601ZM14.7195 9.601L17.2587 4.5085H15.3695L13.3575 8.5325L13.7105 9.2395C13.884 9.28917 14.0532 9.34208 14.218 9.39825C14.3828 9.45442 14.55 9.522 14.7195 9.601ZM5.95424 18.7435C5.7274 18.2883 5.54899 17.8077 5.41899 17.3015C5.28899 16.7955 5.22399 16.2705 5.22399 15.7265C5.22399 15.1827 5.28899 14.6575 5.41899 14.151C5.54899 13.6445 5.7274 13.1637 5.95424 12.7085C5.32974 12.9325 4.81599 13.3167 4.41299 13.8612C4.01015 14.4059 3.80874 15.0275 3.80874 15.726C3.80874 16.4245 4.01015 17.0461 4.41299 17.5908C4.81599 18.1353 5.32974 18.5195 5.95424 18.7435ZM17.9457 18.7435C18.5702 18.5195 19.084 18.1353 19.487 17.5908C19.8898 17.0461 20.0912 16.4245 20.0912 15.726C20.0912 15.0275 19.8898 14.4059 19.487 13.8612C19.084 13.3167 18.5702 12.9325 17.9457 12.7085C18.1726 13.1637 18.351 13.6443 18.481 14.1505C18.611 14.6565 18.676 15.1815 18.676 15.7255C18.676 16.2693 18.611 16.7945 18.481 17.301C18.351 17.8075 18.1726 18.2883 17.9457 18.7435ZM11.9522 22.452C11.2557 22.452 10.5916 22.3538 9.95974 22.1575C9.32791 21.9612 8.74424 21.6822 8.20874 21.3205C8.01157 21.3727 7.81532 21.4077 7.61999 21.4255C7.42449 21.4432 7.21816 21.452 7.00099 21.452C5.42166 21.452 4.07665 20.8967 2.96599 19.786C1.85532 18.6753 1.29999 17.3303 1.29999 15.751C1.29999 14.235 1.81157 12.9321 2.83474 11.8422C3.8579 10.7524 5.11549 10.1586 6.60749 10.0608L2.58249 2H10.0912L11.95 5.71725L13.8087 2H21.3175L17.3175 10.0107C18.8095 10.1252 20.0629 10.7274 21.0777 11.8172C22.0926 12.9071 22.6 14.2078 22.6 15.7193C22.6 17.3174 22.0432 18.6724 20.9295 19.7843C19.8157 20.8961 18.4638 21.452 16.874 21.452C16.6815 21.452 16.4837 21.4408 16.2807 21.4185C16.0776 21.396 15.8775 21.3633 15.6805 21.3205C15.145 21.6822 14.5638 21.9612 13.937 22.1575C13.3102 22.3538 12.6486 22.452 11.9522 22.452ZM10.1707 18.363L10.8425 16.1727L9.06299 14.9043H11.2522L11.95 12.589L12.6477 14.9043H14.837L13.0575 16.1727L13.7292 18.363L11.95 17.0052L10.1707 18.363Z" fill="currentColor"/>
</svg>
