<svg width="24" height="24" viewBox="0 0 24 24" fill="none" xmlns="http://www.w3.org/2000/svg">
<path d="M5.16953 21.4805C4.4312 21.4805 3.80495 21.2234 3.29078 20.7093C2.77661 20.1951 2.51953 19.5689 2.51953 18.8305V5.16953C2.51953 4.4312 2.77661 3.80495 3.29078 3.29078C3.80495 2.77661 4.4312 2.51953 5.16953 2.51953H8.90328C9.20261 1.9102 9.62578 1.42453 10.1728 1.06253C10.7199 0.700531 11.329 0.519531 12 0.519531C12.671 0.519531 13.2801 0.700531 13.8273 1.06253C14.3743 1.42453 14.7974 1.9102 15.0968 2.51953H18.8305C19.5689 2.51953 20.1951 2.77661 20.7093 3.29078C21.2234 3.80495 21.4805 4.4312 21.4805 5.16953V18.8305C21.4805 19.5689 21.2234 20.1951 20.7093 20.7093C20.1951 21.2234 19.5689 21.4805 18.8305 21.4805H5.16953ZM12 4.36303C12.2544 4.36303 12.4618 4.28278 12.6223 4.12228C12.7828 3.96178 12.863 3.75436 12.863 3.50003C12.863 3.2457 12.7828 3.03828 12.6223 2.87778C12.4618 2.71728 12.2544 2.63703 12 2.63703C11.7457 2.63703 11.5383 2.71728 11.3778 2.87778C11.2173 3.03828 11.137 3.2457 11.137 3.50003C11.137 3.75436 11.2173 3.96178 11.3778 4.12228C11.5383 4.28278 11.7457 4.36303 12 4.36303ZM12 13.2825C13.0044 13.2825 13.8576 12.9314 14.5598 12.2293C15.2619 11.5271 15.613 10.6739 15.613 9.66953C15.613 8.6652 15.2619 7.81428 14.5598 7.11678C13.8576 6.41945 13.0044 6.07078 12 6.07078C10.9957 6.07078 10.1424 6.41945 9.44028 7.11678C8.73811 7.81428 8.38703 8.6652 8.38703 9.66953C8.38703 10.6739 8.73811 11.5271 9.44028 12.2293C10.1424 12.9314 10.9957 13.2825 12 13.2825ZM5.16953 18.8305H18.8305V17.3695C17.9305 16.5334 16.9129 15.887 15.7778 15.4305C14.6426 14.974 13.3834 14.7458 12 14.7458C10.6167 14.7458 9.35745 14.9787 8.22228 15.4445C7.08712 15.9105 6.06953 16.5616 5.16953 17.3978V18.8305Z" fill="currentColor"/>
</svg>
