<svg width="24" height="24" viewBox="0 0 24 24" fill="none" xmlns="http://www.w3.org/2000/svg">
<path d="M19.5718 21.537L13.1728 15.138C12.6823 15.5004 12.1143 15.7888 11.469 16.0033C10.8237 16.2178 10.1297 16.325 9.38701 16.325C7.48551 16.325 5.87259 15.6629 4.54826 14.3385C3.22409 13.0144 2.56201 11.4015 2.56201 9.50005C2.56201 7.59855 3.22409 5.98572 4.54826 4.66155C5.87259 3.33722 7.48551 2.67505 9.38701 2.67505C11.2885 2.67505 12.9013 3.33722 14.2255 4.66155C15.5498 5.98572 16.212 7.59855 16.212 9.50005C16.212 10.2522 16.1048 10.9462 15.8903 11.582C15.6758 12.2179 15.3873 12.7764 15.025 13.2575L21.438 19.6848L19.5718 21.537ZM9.38701 13.675C10.5522 13.675 11.5393 13.2705 12.3483 12.4615C13.1574 11.6524 13.562 10.6652 13.562 9.50005C13.562 8.33488 13.1574 7.34771 12.3483 6.53855C11.5393 5.72955 10.5522 5.32505 9.38701 5.32505C8.22185 5.32505 7.23468 5.72955 6.42551 6.53855C5.61651 7.34771 5.21201 8.33488 5.21201 9.50005C5.21201 10.6652 5.61651 11.6524 6.42551 12.4615C7.23468 13.2705 8.22185 13.675 9.38701 13.675Z" fill="currentColor"/>
</svg>
