<svg width="24" height="24" viewBox="0 0 24 24" fill="none" xmlns="http://www.w3.org/2000/svg">
<path d="M6.99997 14.1273V11.9153H17V14.1273H6.99997ZM6.99997 18.0848V15.8728H14V18.0848H6.99997ZM5.16947 22.4805C4.43114 22.4805 3.80489 22.2234 3.29072 21.7093C2.77655 21.1951 2.51947 20.5689 2.51947 19.8305V6.16953C2.51947 5.4312 2.77655 4.80495 3.29072 4.29078C3.80489 3.77661 4.43114 3.51953 5.16947 3.51953H5.99997V1.51953H8.32497V3.51953H15.675V1.51953H18V3.51953H18.8305C19.5688 3.51953 20.1951 3.77661 20.7092 4.29078C21.2234 4.80495 21.4805 5.4312 21.4805 6.16953V19.8305C21.4805 20.5689 21.2234 21.1951 20.7092 21.7093C20.1951 22.2234 19.5688 22.4805 18.8305 22.4805H5.16947ZM5.16947 19.8305H18.8305V10H5.16947V19.8305Z" fill="currentColor"/>
</svg>
