<svg width="24" height="24" viewBox="0 0 24 24" fill="none" xmlns="http://www.w3.org/2000/svg">
<path d="M7.88697 16.113H16.113V7.88703H7.88697V16.113ZM12 22.4805C10.5413 22.4805 9.17539 22.2059 7.90222 21.6565C6.62922 21.1072 5.52189 20.3616 4.58022 19.4198C3.63839 18.4781 2.8928 17.3708 2.34347 16.0978C1.79414 14.8246 1.51947 13.4587 1.51947 12C1.51947 10.5414 1.79414 9.17545 2.34347 7.90228C2.8928 6.62928 3.63839 5.52195 4.58022 4.58028C5.52189 3.63845 6.62922 2.89286 7.90222 2.34353C9.17539 1.7942 10.5413 1.51953 12 1.51953C13.4586 1.51953 14.8246 1.7942 16.0977 2.34353C17.3707 2.89286 18.4781 3.63845 19.4197 4.58028C20.3616 5.52195 21.1071 6.62928 21.6565 7.90228C22.2058 9.17545 22.4805 10.5414 22.4805 12C22.4805 13.4587 22.2058 14.8246 21.6565 16.0978C21.1071 17.3708 20.3616 18.4781 19.4197 19.4198C18.4781 20.3616 17.3707 21.1072 16.0977 21.6565C14.8246 22.2059 13.4586 22.4805 12 22.4805ZM12 19.8305C14.1956 19.8305 16.0496 19.0744 17.562 17.562C19.0743 16.0497 19.8305 14.1957 19.8305 12C19.8305 9.80436 19.0743 7.95036 17.562 6.43803C16.0496 4.9257 14.1956 4.16953 12 4.16953C9.8043 4.16953 7.9503 4.9257 6.43797 6.43803C4.92564 7.95036 4.16947 9.80436 4.16947 12C4.16947 14.1957 4.92564 16.0497 6.43797 17.562C7.9503 19.0744 9.8043 19.8305 12 19.8305Z" fill="currentColor"/>
</svg>
