<svg width="24" height="24" viewBox="0 0 24 24" fill="none" xmlns="http://www.w3.org/2000/svg">
<path d="M11.9988 22.4805C10.5503 22.4805 9.18945 22.2086 7.91628 21.6648C6.64311 21.1209 5.53295 20.3778 4.58578 19.4353C3.63878 18.4929 2.89095 17.3864 2.34228 16.1158C1.79378 14.8449 1.51953 13.4872 1.51953 12.0425C1.51953 11.3194 1.58745 10.6089 1.72328 9.91103C1.85928 9.2132 2.0642 8.52978 2.33803 7.86078L4.45328 9.97603C4.35761 10.3247 4.28645 10.6694 4.23978 11.01C4.19295 11.3509 4.16953 11.695 4.16953 12.0425C4.16953 14.2167 4.93045 16.0582 6.45228 17.567C7.97395 19.076 9.8232 19.8305 12 19.8305C14.1769 19.8305 16.0261 19.0696 17.5478 17.5478C19.0696 16.0261 19.8305 14.1769 19.8305 12C19.8305 9.8232 19.0814 7.97395 17.5833 6.45228C16.0849 4.93045 14.2474 4.16953 12.0708 4.16953C11.7149 4.16953 11.3622 4.19295 11.0125 4.23978C10.6629 4.28645 10.3174 4.35761 9.97603 4.45328L7.87178 2.36303C8.53845 2.09136 9.2122 1.88286 9.89303 1.73753C10.5739 1.5922 11.2762 1.51953 12 1.51953C13.4482 1.51953 14.8092 1.79378 16.083 2.34228C17.3567 2.89095 18.4671 3.63878 19.4143 4.58578C20.3613 5.53295 21.1091 6.64353 21.6578 7.91753C22.2063 9.19153 22.4805 10.5528 22.4805 12.0013C22.4805 13.4498 22.2063 14.8106 21.6578 16.0838C21.1091 17.3569 20.3613 18.4671 19.4143 19.4143C18.4671 20.3613 17.3565 21.1091 16.0825 21.6578C14.8085 22.2063 13.4473 22.4805 11.9988 22.4805ZM5.46928 7.36753C4.94728 7.36753 4.50361 7.18161 4.13828 6.80978C3.77295 6.43811 3.59028 5.99128 3.59028 5.46928C3.59028 4.94728 3.77295 4.50361 4.13828 4.13828C4.50361 3.77295 4.94728 3.59028 5.46928 3.59028C5.99128 3.59028 6.43812 3.77295 6.80978 4.13828C7.18161 4.50361 7.36753 4.94728 7.36753 5.46928C7.36753 5.99128 7.18161 6.43811 6.80978 6.80978C6.43812 7.18161 5.99128 7.36753 5.46928 7.36753Z" fill="currentColor"/>
</svg>
