<svg width="24" height="24" viewBox="0 0 24 24" fill="none" xmlns="http://www.w3.org/2000/svg">
<path d="M20.312 23.2185L17.811 20.7315C16.9472 21.3025 16.027 21.7368 15.0505 22.0343C14.074 22.3318 13.058 22.4805 12.0025 22.4805C10.5422 22.4805 9.17541 22.2059 7.90224 21.6565C6.62924 21.1072 5.52191 20.3616 4.58024 19.4198C3.63841 18.4781 2.89283 17.3708 2.34349 16.0978C1.79416 14.8246 1.51949 13.4579 1.51949 11.9975C1.51949 10.942 1.66824 9.92603 1.96574 8.94953C2.26324 7.97303 2.69749 7.05286 3.26849 6.18903L0.781494 3.68803L2.34774 2.12178L21.8782 21.6523L20.312 23.2185ZM12 19.8305C12.6905 19.8305 13.3609 19.7435 14.0112 19.5695C14.6617 19.3957 15.2895 19.1395 15.8945 18.801L5.19899 8.10553C4.85116 8.71053 4.59266 9.33645 4.42349 9.98328C4.25416 10.6299 4.16949 11.3022 4.16949 12C4.16949 14.179 4.92983 16.0289 6.45049 17.5495C7.97116 19.0702 9.82099 19.8305 12 19.8305ZM20.887 17.5425L18.9425 15.5978C19.2337 15.0209 19.4545 14.4328 19.605 13.8333C19.7553 13.2336 19.8305 12.6225 19.8305 12C19.8305 9.82103 19.0702 7.9712 17.5495 6.45053C16.0288 4.92986 14.179 4.16953 12 4.16953C11.3775 4.16953 10.7664 4.2447 10.1667 4.39503C9.56724 4.54553 8.97908 4.76636 8.40224 5.05753L6.45749 3.11303C7.29299 2.59853 8.17483 2.20436 9.10299 1.93053C10.031 1.65653 10.9967 1.51953 12 1.51953C13.4587 1.51953 14.8246 1.7942 16.0977 2.34353C17.3707 2.89286 18.4781 3.63845 19.4197 4.58028C20.3616 5.52195 21.1072 6.62928 21.6565 7.90228C22.2058 9.17545 22.4805 10.5414 22.4805 12C22.4805 13.0034 22.3435 13.969 22.0695 14.897C21.7957 15.8252 21.4015 16.707 20.887 17.5425Z" fill="currentColor"/>
</svg>
