<svg width="24" height="24" viewBox="0 0 24 24" fill="none" xmlns="http://www.w3.org/2000/svg">
<path d="M10.1412 15.7175L15.8587 12L10.1412 8.28253V15.7175ZM11.9987 22.4805C10.5502 22.4805 9.18939 22.2086 7.91622 21.6648C6.64305 21.1209 5.53289 20.3778 4.58572 19.4353C3.63872 18.4929 2.89089 17.3864 2.34222 16.1158C1.79372 14.8449 1.51947 13.4872 1.51947 12.0425C1.51947 11.3194 1.58739 10.6089 1.72322 9.91103C1.85922 9.2132 2.06414 8.52978 2.33797 7.86078L4.45322 9.97603C4.35755 10.3247 4.28639 10.6694 4.23972 11.01C4.19289 11.3509 4.16947 11.695 4.16947 12.0425C4.16947 14.2167 4.93039 16.0582 6.45222 17.567C7.97389 19.076 9.82314 19.8305 12 19.8305C14.1768 19.8305 16.0261 19.0696 17.5477 17.5478C19.0696 16.0261 19.8305 14.1769 19.8305 12C19.8305 9.8232 19.0814 7.97395 17.5832 6.45228C16.0849 4.93045 14.2474 4.16953 12.0707 4.16953C11.7149 4.16953 11.3621 4.19295 11.0125 4.23978C10.6628 4.28645 10.3173 4.35761 9.97597 4.45328L7.87172 2.36303C8.53839 2.09136 9.21214 1.88286 9.89297 1.73753C10.5738 1.5922 11.2761 1.51953 12 1.51953C13.4481 1.51953 14.8091 1.79378 16.083 2.34228C17.3566 2.89095 18.4671 3.63878 19.4142 4.58578C20.3612 5.53295 21.1091 6.64353 21.6577 7.91753C22.2062 9.19153 22.4805 10.5528 22.4805 12.0013C22.4805 13.4498 22.2062 14.8106 21.6577 16.0838C21.1091 17.3569 20.3612 18.4671 19.4142 19.4143C18.4671 20.3613 17.3565 21.1091 16.0825 21.6578C14.8085 22.2063 13.4472 22.4805 11.9987 22.4805ZM5.46922 7.36753C4.94722 7.36753 4.50355 7.18161 4.13822 6.80978C3.77289 6.43811 3.59022 5.99128 3.59022 5.46928C3.59022 4.94728 3.77289 4.50361 4.13822 4.13828C4.50355 3.77295 4.94722 3.59028 5.46922 3.59028C5.99122 3.59028 6.43805 3.77295 6.80972 4.13828C7.18155 4.50361 7.36747 4.94728 7.36747 5.46928C7.36747 5.99128 7.18155 6.43811 6.80972 6.80978C6.43805 7.18161 5.99122 7.36753 5.46922 7.36753Z" fill="currentColor"/>
</svg>
