<svg width="24" height="24" viewBox="0 0 24 24" fill="none" xmlns="http://www.w3.org/2000/svg">
<path d="M12 22.325C10.5695 22.325 9.22713 22.0554 7.9728 21.5162C6.71847 20.9771 5.6248 20.2411 4.6918 19.3082C3.75897 18.3752 3.02297 17.2816 2.4838 16.0272C1.94463 14.7729 1.67505 13.4305 1.67505 12C1.67505 9.78114 2.31672 7.77839 3.60005 5.99173C4.88338 4.20523 6.57505 2.94931 8.67505 2.22398V4.86848C7.29022 5.53231 6.18372 6.50206 5.35555 7.77773C4.52722 9.05339 4.11305 10.4608 4.11305 12C4.11305 14.1956 4.87863 16.0591 6.4098 17.5902C7.94097 19.1214 9.80438 19.887 12 19.887C14.1957 19.887 16.0591 19.1214 17.5903 17.5902C19.1215 16.0591 19.887 14.1956 19.887 12C19.887 10.4608 19.4729 9.05339 18.6446 7.77773C17.8164 6.50206 16.7099 5.53231 15.325 4.86848V2.22398C17.425 2.94931 19.1167 4.20523 20.4 5.99173C21.6834 7.77839 22.325 9.78114 22.325 12C22.325 13.4305 22.0555 14.7729 21.5163 16.0272C20.9771 17.2816 20.2411 18.3752 19.3083 19.3082C18.3753 20.2411 17.2816 20.9771 16.0273 21.5162C14.773 22.0554 13.4305 22.325 12 22.325ZM12 16.4522L6.5478 11L8.40005 9.14773L10.675 11.412V1.74573H13.325V11.412L15.6 9.14773L17.4523 11L12 16.4522Z" fill="currentColor"/>
</svg>
