<svg width="24" height="24" viewBox="0 0 24 24" fill="none" xmlns="http://www.w3.org/2000/svg">
<path d="M7.88703 16.113H16.113V7.88703H7.88703V16.113ZM12 22.4805C10.5414 22.4805 9.17545 22.2059 7.90228 21.6565C6.62928 21.1072 5.52195 20.3616 4.58028 19.4198C3.63845 18.4781 2.89286 17.3708 2.34353 16.0978C1.7942 14.8246 1.51953 13.4587 1.51953 12C1.51953 10.5414 1.7942 9.17545 2.34353 7.90228C2.89286 6.62928 3.63845 5.52195 4.58028 4.58028C5.52195 3.63845 6.62928 2.89286 7.90228 2.34353C9.17545 1.7942 10.5414 1.51953 12 1.51953C13.4587 1.51953 14.8246 1.7942 16.0978 2.34353C17.3708 2.89286 18.4781 3.63845 19.4198 4.58028C20.3616 5.52195 21.1072 6.62928 21.6565 7.90228C22.2059 9.17545 22.4805 10.5414 22.4805 12C22.4805 13.4587 22.2059 14.8246 21.6565 16.0978C21.1072 17.3708 20.3616 18.4781 19.4198 19.4198C18.4781 20.3616 17.3708 21.1072 16.0978 21.6565C14.8246 22.2059 13.4587 22.4805 12 22.4805ZM12 19.8305C14.1957 19.8305 16.0497 19.0744 17.562 17.562C19.0744 16.0497 19.8305 14.1957 19.8305 12C19.8305 9.80436 19.0744 7.95036 17.562 6.43803C16.0497 4.9257 14.1957 4.16953 12 4.16953C9.80437 4.16953 7.95036 4.9257 6.43803 6.43803C4.9257 7.95036 4.16953 9.80436 4.16953 12C4.16953 14.1957 4.9257 16.0497 6.43803 17.562C7.95036 19.0744 9.80437 19.8305 12 19.8305Z" fill="currentColor"/>
</svg>
