<svg width="24" height="24" viewBox="0 0 24 24" fill="none" xmlns="http://www.w3.org/2000/svg">
<path d="M8.84025 22.4805L8.412 19.125C8.27066 19.07 8.13475 19.003 8.00425 18.924C7.87391 18.845 7.74533 18.7624 7.6185 18.676L4.50225 19.9968L1.32825 14.4838L4.01625 12.449C4.00908 12.37 4.0055 12.2952 4.0055 12.2245V11.7755C4.0055 11.7049 4.00908 11.63 4.01625 11.551L1.32825 9.51628L4.50225 4.03153L7.64675 5.33803C7.77358 5.25186 7.89933 5.17161 8.024 5.09728C8.1485 5.02295 8.27783 4.95828 8.412 4.90328L8.84025 1.51953H15.1597L15.588 4.90328C15.7293 4.95828 15.8652 5.02295 15.9957 5.09728C16.1261 5.17161 16.2547 5.25186 16.3815 5.33803L19.4977 4.03153L22.6717 9.51628L19.9695 11.551C19.9768 11.63 19.9805 11.7049 19.9805 11.7755V12C19.9805 12.079 19.9782 12.1539 19.9735 12.2245C19.9687 12.2952 19.959 12.37 19.9445 12.449L22.6467 14.4838L19.4587 19.9968L16.3532 18.676C16.2264 18.7624 16.1007 18.845 15.976 18.924C15.8515 19.003 15.7222 19.07 15.588 19.125L15.1597 22.4805H8.84025ZM11.1555 19.8305H12.8055L13.1695 17.2088C13.6957 17.0754 14.1913 16.8772 14.6565 16.614C15.1217 16.351 15.5376 16.0174 15.9042 15.613L18.3652 16.638L19.1707 15.1925L17.063 13.5958C17.1463 13.3436 17.2094 13.0836 17.2522 12.8158C17.2949 12.5481 17.3162 12.2762 17.3162 12C17.3162 11.7239 17.2949 11.4519 17.2522 11.1843C17.2094 10.9164 17.1463 10.6564 17.063 10.4043L19.199 8.80753L18.3652 7.36203L15.9185 8.41203C15.5518 8.00036 15.1359 7.65836 14.6707 7.38603C14.2054 7.11353 13.705 6.91528 13.1695 6.79128L12.8445 4.16953H11.1662L10.8445 6.77728C10.2997 6.90111 9.79225 7.09928 9.32225 7.37178C8.85241 7.64428 8.42941 7.9827 8.05325 8.38703L5.62075 7.36203L4.801 8.80753L6.8945 10.3653C6.81116 10.6341 6.74816 10.9006 6.7055 11.1648C6.66266 11.4288 6.64125 11.7072 6.64125 12C6.64125 12.2762 6.66266 12.5487 6.7055 12.8175C6.74816 13.0864 6.81116 13.3552 6.8945 13.624L4.801 15.1925L5.62075 16.638L8.05325 15.6023C8.42941 16.0044 8.85475 16.3417 9.32925 16.614C9.80391 16.8865 10.309 17.0894 10.8445 17.2228L11.1555 19.8305ZM12.0075 15.5C12.9742 15.5 13.7992 15.1584 14.4825 14.475C15.1658 13.7917 15.5075 12.9667 15.5075 12C15.5075 11.0334 15.1658 10.2084 14.4825 9.52503C13.7992 8.8417 12.9742 8.50003 12.0075 8.50003C11.0337 8.50003 10.2069 8.8417 9.52725 9.52503C8.84741 10.2084 8.5075 11.0334 8.5075 12C8.5075 12.9667 8.84741 13.7917 9.52725 14.475C10.2069 15.1584 11.0337 15.5 12.0075 15.5Z" fill="currentColor"/>
</svg>
