<svg width="24" height="24" viewBox="0 0 24 24" fill="none" xmlns="http://www.w3.org/2000/svg">
<path d="M17.0557 22.4805C16.1004 22.4805 15.2887 22.1476 14.6207 21.4818C13.9526 20.8161 13.6185 20.0077 13.6185 19.0565C13.6185 18.966 13.6387 18.7751 13.6792 18.4838L7.13472 14.6805C6.83989 14.921 6.50847 15.1098 6.14047 15.2468C5.77247 15.3838 5.37814 15.4523 4.95747 15.4523C4.00247 15.4523 3.19072 15.1169 2.52222 14.4463C1.85372 13.7756 1.51947 12.9613 1.51947 12.0033C1.51947 11.0453 1.85372 10.2299 2.52222 9.55703C3.19072 8.8842 4.00247 8.54778 4.95747 8.54778C5.3763 8.54778 5.77489 8.61861 6.15322 8.76028C6.53155 8.90195 6.87289 9.09778 7.17722 9.34778L13.6652 5.57278C13.6412 5.47495 13.6275 5.37428 13.624 5.27078C13.6203 5.16711 13.6185 5.0627 13.6185 4.95753C13.6185 4.00253 13.9528 3.19078 14.6215 2.52228C15.2901 1.85378 16.1021 1.51953 17.0572 1.51953C18.0126 1.51953 18.8243 1.85386 19.4925 2.52253C20.1605 3.1912 20.4945 4.0032 20.4945 4.95853C20.4945 5.9137 20.1602 6.72536 19.4917 7.39353C18.8232 8.0617 18.0115 8.39578 17.0565 8.39578C16.6153 8.39578 16.2018 8.3202 15.816 8.16903C15.43 8.01803 15.0848 7.80811 14.7805 7.53928L8.34897 11.2575C8.3823 11.3842 8.40314 11.5063 8.41147 11.6238C8.4198 11.7413 8.42397 11.869 8.42397 12.007C8.42397 12.1452 8.41739 12.2779 8.40422 12.405C8.39122 12.5322 8.36805 12.6588 8.33472 12.7848L14.7522 16.5033C15.0566 16.2249 15.4047 16.0055 15.7967 15.845C16.1886 15.6845 16.6085 15.6043 17.0565 15.6043C18.0115 15.6043 18.8232 15.9396 19.4917 16.6103C20.1602 17.2809 20.4945 18.0953 20.4945 19.0533C20.4945 20.0113 20.1601 20.8219 19.4915 21.4853C18.8228 22.1488 18.0109 22.4805 17.0557 22.4805ZM17.0477 19.9718C17.3087 19.9718 17.5303 19.8826 17.7125 19.7043C17.8946 19.5259 17.9857 19.3049 17.9857 19.0413C17.9857 18.7776 17.8953 18.5569 17.7145 18.3793C17.5336 18.2018 17.3096 18.113 17.0425 18.113C16.7831 18.113 16.5657 18.2042 16.3902 18.3865C16.2149 18.5687 16.1272 18.7874 16.1272 19.0425C16.1272 19.2975 16.2154 19.5161 16.3917 19.6983C16.5682 19.8806 16.7869 19.9718 17.0477 19.9718ZM4.95872 12.9435C5.22239 12.9435 5.44772 12.8534 5.63472 12.673C5.82172 12.4929 5.91522 12.2695 5.91522 12.003C5.91522 11.7365 5.82172 11.5122 5.63472 11.33C5.44772 11.1477 5.22239 11.0565 4.95872 11.0565C4.69505 11.0565 4.47405 11.1467 4.29572 11.327C4.11739 11.5072 4.02822 11.7305 4.02822 11.997C4.02822 12.2635 4.11739 12.4879 4.29572 12.67C4.47405 12.8524 4.69505 12.9435 4.95872 12.9435ZM17.0565 5.88703C17.3116 5.88703 17.528 5.79878 17.7055 5.62228C17.883 5.44578 17.9717 5.22711 17.9717 4.96628C17.9717 4.70545 17.8835 4.48395 17.707 4.30178C17.5305 4.11945 17.3118 4.02828 17.051 4.02828C16.7901 4.02828 16.5686 4.1187 16.3865 4.29953C16.2041 4.48036 16.113 4.70445 16.113 4.97178C16.113 5.23111 16.2065 5.44845 16.3935 5.62378C16.5805 5.79928 16.8015 5.88703 17.0565 5.88703Z" fill="currentColor"/>
</svg>
