<svg width="24" height="24" viewBox="0 0 24 24" fill="none" xmlns="http://www.w3.org/2000/svg">
<path d="M12 22.4805C10.558 22.4805 9.20053 22.2059 7.92753 21.6565C6.6547 21.1074 5.54311 20.3576 4.59278 19.4073C3.64245 18.4569 2.8927 17.3454 2.34353 16.0725C1.7942 14.7995 1.51953 13.442 1.51953 12C1.51953 10.5494 1.79411 9.19053 2.34328 7.92353C2.89245 6.65636 3.64211 5.54653 4.59228 4.59403C5.54245 3.64153 6.65411 2.89095 7.92728 2.34228C9.20045 1.79378 10.558 1.51953 12 1.51953C12.3682 1.51953 12.681 1.64836 12.9385 1.90603C13.1962 2.1637 13.325 2.47653 13.325 2.84453C13.325 3.2127 13.1962 3.52561 12.9385 3.78328C12.681 4.04078 12.3682 4.16953 12 4.16953C9.83036 4.16953 7.98286 4.9322 6.45753 6.45753C4.9322 7.98286 4.16953 9.83028 4.16953 11.9998C4.16953 14.1694 4.9322 16.017 6.45753 17.5425C7.98286 19.0679 9.83028 19.8305 11.9998 19.8305C14.1694 19.8305 16.017 19.0679 17.5425 17.5425C19.0679 16.0172 19.8305 14.1697 19.8305 12C19.8305 11.6319 19.9593 11.319 20.2168 11.0615C20.4744 10.8039 20.7874 10.675 21.1555 10.675C21.5235 10.675 21.8364 10.8039 22.094 11.0615C22.3517 11.319 22.4805 11.6319 22.4805 12C22.4805 13.442 22.2059 14.7997 21.6568 16.073C21.1076 17.3464 20.3579 18.4584 19.4078 19.409C18.4576 20.3595 17.3484 21.1091 16.0803 21.6578C14.8121 22.2063 13.452 22.4805 12 22.4805Z" fill="currentColor"/>
</svg>
