<svg width="24" height="24" viewBox="0 0 24 24" fill="none" xmlns="http://www.w3.org/2000/svg">
<path d="M0.448975 20.9327V16.6077C0.448975 15.9562 0.677725 15.4058 1.13522 14.9565C1.59289 14.5072 2.13914 14.2825 2.77397 14.2825H6.13373C6.49522 14.2825 6.80947 14.3517 7.07647 14.4902C7.34364 14.6286 7.55947 14.8253 7.72397 15.0805C8.22614 15.7775 8.85022 16.3187 9.59622 16.7042C10.3422 17.0897 11.1435 17.2825 12 17.2825C12.8638 17.2825 13.6711 17.0897 14.4217 16.7042C15.1724 16.3187 15.7952 15.7775 16.2902 15.0805C16.4692 14.8253 16.6904 14.6286 16.9537 14.4902C17.2172 14.3517 17.5214 14.2825 17.8662 14.2825H21.2402C21.8917 14.2825 22.4421 14.5072 22.8912 14.9565C23.3406 15.4058 23.5652 15.9562 23.5652 16.6077V20.9327H15.9152V18.5305C15.3319 18.8907 14.7098 19.1672 14.049 19.3602C13.388 19.5534 12.705 19.65 12 19.65C11.3116 19.65 10.6352 19.5517 9.97073 19.355C9.30622 19.1582 8.68231 18.8797 8.09897 18.5195V20.9327H0.448975ZM12 16C11.4138 16 10.8586 15.8636 10.3342 15.5907C9.80989 15.3179 9.37022 14.942 9.01522 14.463C8.67539 13.971 8.26231 13.6042 7.77598 13.3625C7.28981 13.1208 6.74964 13 6.15548 13C6.61631 12.4022 7.44306 11.9123 8.63573 11.5305C9.82856 11.1485 10.95 10.9575 12 10.9575C13.05 10.9575 14.1737 11.1485 15.3712 11.5305C16.5687 11.9123 17.3979 12.4022 17.8587 13C17.2717 13 16.7333 13.1185 16.2435 13.3555C15.7536 13.5923 15.3388 13.9615 14.999 14.463C14.6605 14.9493 14.2267 15.3271 13.6977 15.5962C13.1687 15.8654 12.6028 16 12 16ZM3.99997 12.7175C3.12897 12.7175 2.38764 12.4117 1.77597 11.8C1.16447 11.1883 0.858725 10.447 0.858725 9.57599C0.858725 8.69782 1.16447 7.95474 1.77597 7.34674C2.38764 6.73874 3.12897 6.43474 3.99997 6.43474C4.87831 6.43474 5.62139 6.73874 6.22922 7.34674C6.83722 7.95474 7.14122 8.69782 7.14122 9.57599C7.14122 10.447 6.83722 11.1883 6.22922 11.8C5.62139 12.4117 4.87831 12.7175 3.99997 12.7175ZM20 12.7175C19.129 12.7175 18.3876 12.4117 17.776 11.8C17.1645 11.1883 16.8587 10.447 16.8587 9.57599C16.8587 8.69782 17.1645 7.95474 17.776 7.34674C18.3876 6.73874 19.129 6.43474 20 6.43474C20.8783 6.43474 21.6214 6.73874 22.2292 7.34674C22.8372 7.95474 23.1412 8.69782 23.1412 9.57599C23.1412 10.447 22.8372 11.1883 22.2292 11.8C21.6214 12.4117 20.8783 12.7175 20 12.7175ZM12 9.39224C11.129 9.39224 10.3876 9.08649 9.77598 8.47499C9.16448 7.86332 8.85873 7.12199 8.85873 6.25099C8.85873 5.37282 9.16448 4.62974 9.77598 4.02174C10.3876 3.41374 11.129 3.10974 12 3.10974C12.8783 3.10974 13.6214 3.41374 14.2292 4.02174C14.8372 4.62974 15.1412 5.37282 15.1412 6.25099C15.1412 7.12199 14.8372 7.86332 14.2292 8.47499C13.6214 9.08649 12.8783 9.39224 12 9.39224Z" fill="currentColor"/>
</svg>
