<svg width="24" height="24" viewBox="0 0 24 24" fill="none" xmlns="http://www.w3.org/2000/svg">
<path d="M6.79996 20.2119C6.23396 20.2119 5.75713 20.0181 5.36946 19.6304C4.9818 19.2428 4.78796 18.7659 4.78796 18.1999C4.78796 17.8028 4.90213 17.4312 5.13046 17.0852C5.35863 16.7392 5.65355 16.4949 6.01521 16.3522L9.78796 14.8444V13.0749C8.88796 14.0308 7.84688 14.7572 6.66471 15.2542C5.48238 15.7514 4.19013 15.9999 2.78796 15.9999V13.5619C3.95896 13.5619 5.01405 13.338 5.95321 12.8902C6.89238 12.4424 7.71813 11.7945 8.43046 10.9467L9.78046 9.33244C9.9993 9.07094 10.2561 8.87711 10.551 8.75094C10.846 8.62494 11.1623 8.56194 11.5 8.56194H12.5C12.8376 8.56194 13.154 8.62736 13.449 8.75819C13.7438 8.88886 14.0006 9.08502 14.2195 9.34669L15.5695 10.9749C16.2818 11.8228 17.1075 12.4659 18.0467 12.9042C18.9859 13.3427 20.041 13.5619 21.212 13.5619V15.9999C19.8098 15.9999 18.5175 15.7514 17.3352 15.2542C16.153 14.7572 15.112 14.0308 14.212 13.0749V14.8444L17.9847 16.3522C18.3464 16.4949 18.6413 16.7392 18.8695 17.0852C19.0978 17.4312 19.212 17.8028 19.212 18.1999C19.212 18.7659 19.0181 19.2428 18.6305 19.6304C18.2428 20.0181 17.766 20.2119 17.2 20.2119H9.99996V19.4999C9.99996 19.0383 10.1487 18.6729 10.4462 18.4037C10.7437 18.1345 11.095 17.9999 11.5 17.9999H14.5C14.65 17.9999 14.7708 17.9541 14.8625 17.8624C14.9541 17.7708 15 17.6499 15 17.4999C15 17.3499 14.9541 17.2291 14.8625 17.1374C14.7708 17.0458 14.65 16.9999 14.5 16.9999H11.5C10.8095 16.9999 10.2201 17.2416 9.73196 17.7249C9.24396 18.2083 8.99996 18.7999 8.99996 19.4999V20.2119H6.79996ZM12 7.56194C11.384 7.56194 10.8613 7.34727 10.432 6.91794C10.0026 6.4886 9.78796 5.96594 9.78796 5.34994C9.78796 4.73394 10.0026 4.21127 10.432 3.78194C10.8613 3.35261 11.384 3.13794 12 3.13794C12.616 3.13794 13.1386 3.35261 13.568 3.78194C13.9973 4.21127 14.212 4.73394 14.212 5.34994C14.212 5.96594 13.9973 6.4886 13.568 6.91794C13.1386 7.34727 12.616 7.56194 12 7.56194Z" fill="currentColor"/>
</svg>
