<svg width="24" height="24" viewBox="0 0 24 24" fill="none" xmlns="http://www.w3.org/2000/svg">
<path d="M15.088 16.7848L16.813 15.088L13.212 11.487V7.07078H10.788V12.4785L15.088 16.7848ZM12 22.4805C10.5414 22.4805 9.17545 22.2059 7.90228 21.6565C6.62928 21.1072 5.52195 20.3616 4.58028 19.4198C3.63845 18.4781 2.89286 17.3708 2.34353 16.0978C1.7942 14.8246 1.51953 13.4587 1.51953 12C1.51953 10.5414 1.7942 9.17545 2.34353 7.90228C2.89286 6.62928 3.63845 5.52195 4.58028 4.58028C5.52195 3.63845 6.62928 2.89286 7.90228 2.34353C9.17545 1.7942 10.5414 1.51953 12 1.51953C13.4587 1.51953 14.8246 1.7942 16.0978 2.34353C17.3708 2.89286 18.4781 3.63845 19.4198 4.58028C20.3616 5.52195 21.1072 6.62928 21.6565 7.90228C22.2059 9.17545 22.4805 10.5414 22.4805 12C22.4805 13.4587 22.2059 14.8246 21.6565 16.0978C21.1072 17.3708 20.3616 18.4781 19.4198 19.4198C18.4781 20.3616 17.3708 21.1072 16.0978 21.6565C14.8246 22.2059 13.4587 22.4805 12 22.4805ZM11.9998 19.8305C14.1694 19.8305 16.017 19.0702 17.5425 17.5495C19.0679 16.0289 19.8305 14.179 19.8305 12C19.8305 9.82103 19.0679 7.9712 17.5425 6.45053C16.0172 4.92986 14.1698 4.16953 12.0003 4.16953C9.83061 4.16953 7.98303 4.92986 6.45753 6.45053C4.9322 7.9712 4.16953 9.82103 4.16953 12C4.16953 14.179 4.9322 16.0289 6.45753 17.5495C7.98286 19.0702 9.83028 19.8305 11.9998 19.8305Z" fill="currentColor"/>
</svg>
