<svg width="24" height="24" viewBox="0 0 24 24" fill="none" xmlns="http://www.w3.org/2000/svg">
<path d="M8.56203 3.00001V0.562012H15.438V3.00001H8.56203ZM10.788 14.3958H13.212V8.35326H10.788V14.3958ZM12 22.862C10.6914 22.862 9.46286 22.6133 8.31453 22.1158C7.16636 21.6183 6.16278 20.9418 5.30378 20.0863C4.44478 19.2309 3.76595 18.2292 3.26728 17.081C2.76878 15.9328 2.51953 14.7044 2.51953 13.3958C2.51953 12.0869 2.76928 10.8587 3.26878 9.71101C3.76811 8.56318 4.44711 7.56001 5.30578 6.70151C6.16445 5.84285 7.16761 5.16376 8.31528 4.66426C9.46311 4.16493 10.6914 3.91526 12 3.91526C13.0522 3.91526 14.0721 4.08193 15.0598 4.41526C16.0474 4.7486 16.9627 5.2366 17.8055 5.87926L19.375 4.30976L21.1 6.03476L19.5305 7.60426C20.1732 8.4471 20.6589 9.36001 20.9875 10.343C21.3162 11.326 21.4805 12.3436 21.4805 13.3958C21.4805 14.7044 21.2313 15.9328 20.7328 17.081C20.2341 18.2292 19.5553 19.2309 18.6963 20.0863C17.8373 20.9418 16.8337 21.6183 15.6855 22.1158C14.5372 22.6133 13.3087 22.862 12 22.862ZM12 20.212C13.8957 20.212 15.508 19.5498 16.837 18.2255C18.166 16.9013 18.8305 15.2914 18.8305 13.3958C18.8305 11.5001 18.166 9.88776 16.837 8.55876C15.508 7.22976 13.8957 6.56526 12 6.56526C10.1044 6.56526 8.49203 7.22976 7.16303 8.55876C5.83403 9.88776 5.16953 11.5001 5.16953 13.3958C5.16953 15.2914 5.83403 16.9013 7.16303 18.2255C8.49203 19.5498 10.1044 20.212 12 20.212Z" fill="currentColor"/>
</svg>
