<svg width="24" height="24" viewBox="0 0 24 24" fill="none" xmlns="http://www.w3.org/2000/svg">
<path d="M12 21C10.75 21 9.57917 20.7625 8.4875 20.2875C7.39583 19.8125 6.44583 19.1708 5.6375 18.3625C4.82917 17.5542 4.1875 16.6042 3.7125 15.5125C3.2375 14.4208 3 13.25 3 12C3 10.75 3.2375 9.57917 3.7125 8.4875C4.1875 7.39583 4.82917 6.44583 5.6375 5.6375C6.44583 4.82917 7.39583 4.1875 8.4875 3.7125C9.57917 3.2375 10.75 3 12 3V5.65C10.229 5.65 8.72792 6.26558 7.49675 7.49675C6.26558 8.72792 5.65 10.229 5.65 12C5.65 13.771 6.26558 15.2721 7.49675 16.5033C8.72792 17.7344 10.229 18.35 12 18.35V21ZM16 17.4663L14.1337 15.575L16.3837 13.325H8.675V10.675H16.3837L14.1337 8.4L16 6.53375L21.4663 12L16 17.4663Z" fill="currentColor"/>
</svg>
