<svg width="24" height="24" viewBox="0 0 24 24" fill="none" xmlns="http://www.w3.org/2000/svg">
<path d="M4.67505 22.1305V19.4805H19.325V22.1305H4.67505ZM7.58055 16.0185C6.50588 14.8932 5.96855 13.3838 5.96855 11.4903V3.05652H9.15105V11.5555C9.15105 12.47 9.40088 13.2024 9.90055 13.7528C10.4002 14.3031 11.1 14.5783 12 14.5783C12.9 14.5783 13.5999 14.3031 14.0995 13.7528C14.5992 13.2024 14.849 12.47 14.849 11.5555V3.05652H18.0315V11.4903C18.0315 13.3838 17.4942 14.8932 16.4195 16.0185C15.3449 17.1439 13.8717 17.7065 12 17.7065C10.1284 17.7065 8.65522 17.1439 7.58055 16.0185Z" fill="currentColor"/>
</svg>
