<svg width="600" height="120" viewBox="0 0 600 120" fill="none" xmlns="http://www.w3.org/2000/svg">
<path d="M57.7582 0.357483H111.835V60.3944L57.7582 0.357483ZM0.525871 35.5908H0C0 23.5542 3.27209 14.6729 9.81626 8.94671C16.3604 3.22056 26.4396 0.357483 40.0538 0.357483L111.835 87.4768C111.835 99.0459 108.709 107.314 102.457 112.28C96.3804 117.13 86.4473 119.555 72.6578 119.555L0.525871 35.5908ZM0.262935 59.255L52.3242 119.643H0.262935V59.255Z" fill="currentColor"/>
<path d="M587.278 9.40416V48.4448H577.854V9.40416H565.133V1.32678H600V9.40416H587.278Z" fill="currentColor"/>
<path d="M560.149 48.4448H549.783L539.686 30.6746H533.83V48.4448H524.406V1.32678H549.918L557.726 5.83665V26.1647L549.918 30.6746L560.149 48.4448ZM533.83 9.40416V22.5972H548.302V9.40416H533.83Z" fill="currentColor"/>
<path d="M512.974 44.2715L505.166 48.7814H484.097L476.289 44.2715V5.50011L484.097 0.990234H505.166L512.974 5.50011V44.2715ZM485.713 9.06761V40.704H503.55V9.06761H485.713Z" fill="currentColor"/>
<path d="M434.22 48.4448V1.32678H459.058L466.866 5.83665V26.8378L459.058 31.3477H443.643V48.4448H434.22ZM443.643 9.40416V23.2703H457.442V9.40416H443.643Z" fill="currentColor"/>
<path d="M390.112 24.5493V5.50011L397.92 0.990234H414.95L422.758 5.50011V14.4525H413.335V9.06761H399.536V20.3086H414.95L422.758 24.8185V44.2715L414.95 48.7814H397.247L389.439 44.2715V35.3191H398.863V40.704H413.335V29.0591H397.92L390.112 24.5493Z" fill="currentColor"/>
<path d="M381.09 48.4448H370.724L360.627 30.6746H354.771V48.4448H345.347V1.32678H370.858L378.667 5.83665V26.1647L370.858 30.6746L381.09 48.4448ZM354.771 9.40416V22.5972H369.243V9.40416H354.771Z" fill="currentColor"/>
<path d="M333.915 44.2715L326.107 48.7814H305.038L297.23 44.2715V5.50011L305.038 0.990234H326.107L333.915 5.50011V44.2715ZM306.654 9.06761V40.704H324.491V9.06761H306.654Z" fill="currentColor"/>
<path d="M277.08 9.40416V48.4448H267.656V9.40416H254.935V1.32678H289.802V9.40416H277.08Z" fill="currentColor"/>
<path d="M247.541 44.2715L239.733 48.7814H218.664L210.856 44.2715V5.50011L218.664 0.990234H239.733L247.541 5.50011V44.2715ZM220.28 9.06761V40.704H238.117V9.06761H220.28Z" fill="currentColor"/>
<path d="M190.356 48.4448V17.3469H190.221L179.586 48.4448H170.634L159.931 16.943H159.797V48.4448H150.709V1.32678H163.229L175.076 35.9922H175.211L186.99 1.32678H199.443V48.4448H190.356Z" fill="currentColor"/>
<path d="M395.765 94.7775V75.7284L403.574 71.2185H420.603L428.411 75.7284V84.6808H418.988V79.2959H405.189V90.5369H420.603L428.411 95.0468V114.5L420.603 119.01H402.9L395.092 114.5V105.547H404.516V110.932H418.988V99.2874H403.574L395.765 94.7775Z" fill="currentColor"/>
<path d="M368.247 98.4796V110.596H387.027V118.673H358.823V71.5551H387.027V79.6324H368.247V90.4023H382.988V98.4796H368.247Z" fill="currentColor"/>
<path d="M337.967 71.5551H347.391V114.5L339.582 119.01H318.514L310.706 114.5V71.5551H320.129V110.259H337.967V71.5551Z" fill="currentColor"/>
<path d="M282.769 102.182V94.1044H299.933V114.5L292.125 119.01H273.076L265.268 114.5V75.7284L273.076 71.2185H292.125L299.933 75.7284V85.3539H290.51V79.2959H274.691V110.932H290.51V102.182H282.769Z" fill="currentColor"/>
<path d="M242.394 71.5551L259.221 118.673H249.932L246.365 108.509H228.729L225.162 118.673H215.873L232.701 71.5551H242.394ZM237.48 83.4019L231.556 100.432H243.471L237.614 83.4019H237.48Z" fill="currentColor"/>
<path d="M193.066 98.4796V110.596H211.846V118.673H183.642V71.5551H211.846V79.6324H193.066V90.4023H207.807V98.4796H193.066Z" fill="currentColor"/>
<path d="M150.709 118.673V71.5551H160.133V110.596H176.221V118.673H150.709Z" fill="currentColor"/>
</svg>
