<svg width="121" height="160" viewBox="0 0 121 160" fill="none" xmlns="http://www.w3.org/2000/svg">
<path d="M116.866 130.25V140.69H114.346V130.25H110.944V128.09H120.268V130.25H116.866Z" fill="currentColor"/>
<path d="M109.612 140.69H106.84L104.14 135.938H102.574V140.69H100.054V128.09H106.876L108.964 129.296V134.732L106.876 135.938L109.612 140.69ZM102.574 130.25V133.778H106.444V130.25H102.574Z" fill="currentColor"/>
<path d="M96.9965 139.574L94.9085 140.78H89.2745L87.1865 139.574V129.206L89.2745 128H94.9085L96.9965 129.206V139.574ZM89.7065 130.16V138.62H94.4765V130.16H89.7065Z" fill="currentColor"/>
<path d="M75.9365 140.69V128.09H82.5785L84.6665 129.296V134.912L82.5785 136.118H78.4565V140.69H75.9365ZM78.4565 130.25V133.958H82.1465V130.25H78.4565Z" fill="currentColor"/>
<path d="M64.1417 134.3V129.206L66.2297 128H70.7837L72.8717 129.206V131.6H70.3517V130.16H66.6617V133.166H70.7837L72.8717 134.372V139.574L70.7837 140.78H66.0497L63.9617 139.574V137.18H66.4817V138.62H70.3517V135.506H66.2297L64.1417 134.3Z" fill="currentColor"/>
<path d="M61.7289 140.69H58.9569L56.2569 135.938H54.6909V140.69H52.1709V128.09H58.9929L61.0809 129.296V134.732L58.9929 135.938L61.7289 140.69ZM54.6909 130.25V133.778H58.5609V130.25H54.6909Z" fill="currentColor"/>
<path d="M49.1137 139.574L47.0257 140.78H41.3917L39.3037 139.574V129.206L41.3917 128H47.0257L49.1137 129.206V139.574ZM41.8237 130.16V138.62H46.5937V130.16H41.8237Z" fill="currentColor"/>
<path d="M33.9152 130.25V140.69H31.3952V130.25H27.9932V128.09H37.3172V130.25H33.9152Z" fill="currentColor"/>
<path d="M26.0161 139.574L23.9281 140.78H18.2941L16.2061 139.574V129.206L18.2941 128H23.9281L26.0161 129.206V139.574ZM18.7261 130.16V138.62H23.4961V130.16H18.7261Z" fill="currentColor"/>
<path d="M10.7241 140.69V132.374H10.6881L7.84407 140.69H5.45007L2.58807 132.266H2.55207V140.69H0.12207V128.09H3.47007L6.63807 137.36H6.67407L9.82407 128.09H13.1541V140.69H10.7241Z" fill="currentColor"/>
<path d="M88.596 153.08V147.986L90.684 146.78H95.238L97.326 147.986V150.38H94.806V148.94H91.116V151.946H95.238L97.326 153.152V158.354L95.238 159.56H90.504L88.416 158.354V155.96H90.936V157.4H94.806V154.286H90.684L88.596 153.08Z" fill="currentColor"/>
<path d="M81.237 154.07V157.31H86.259V159.47H78.717V146.87H86.259V149.03H81.237V151.91H85.179V154.07H81.237Z" fill="currentColor"/>
<path d="M73.1399 146.87H75.6599V158.354L73.5719 159.56H67.9379L65.8499 158.354V146.87H68.3699V157.22H73.1399V146.87Z" fill="currentColor"/>
<path d="M58.3792 155.06V152.9H62.9692V158.354L60.8812 159.56H55.7872L53.6992 158.354V147.986L55.7872 146.78H60.8812L62.9692 147.986V150.56H60.4492V148.94H56.2192V157.4H60.4492V155.06H58.3792Z" fill="currentColor"/>
<path d="M47.5822 146.87L52.0822 159.47H49.5982L48.6442 156.752H43.9282L42.9742 159.47H40.4902L44.9902 146.87H47.5822ZM46.2682 150.038L44.6842 154.592H47.8702L46.3042 150.038H46.2682Z" fill="currentColor"/>
<path d="M34.3913 154.07V157.31H39.4133V159.47H31.8713V146.87H39.4133V149.03H34.3913V151.91H38.3333V154.07H34.3913Z" fill="currentColor"/>
<path d="M23.0647 159.47V146.87H25.5847V157.31H29.8867V159.47H23.0647Z" fill="currentColor"/>
<path d="M61.7298 0H112.551V56.3703L61.7298 0ZM7.94294 33.0816H7.44873C7.44873 21.7801 10.5238 13.4411 16.674 8.06466C22.8242 2.68822 32.2967 0 45.0913 0L112.551 81.7987C112.551 92.6613 109.614 100.424 103.738 105.087C98.027 109.641 88.6919 111.918 75.7325 111.918L7.94294 33.0816ZM7.69584 55.3005L56.6229 112H7.69584V55.3005Z" fill="currentColor"/>
</svg>
